{"glyphs":{"0":{"ha":822,"x_min":83,"x_max":738,"o":"m 208 -17 l 208 107 l 83 107 l 83 756 l 208 756 l 208 879 l 611 879 l 611 756 l 738 756 l 738 107 l 611 107 l 611 -17 l 208 -17 m 236 139 l 583 139 l 583 722 l 236 722 l 236 139 z "},"1":{"ha":571,"x_min":83,"x_max":486,"o":"m 333 -17 l 333 722 l 236 722 l 236 600 l 83 600 l 83 756 l 208 756 l 208 879 l 360 879 l 360 756 l 486 756 l 486 -17 l 333 -17 z "},"2":{"ha":822,"x_min":83,"x_max":738,"o":"m 208 -17 l 208 107 l 83 107 l 83 388 l 208 388 l 208 508 l 583 508 l 583 722 l 236 722 l 236 600 l 83 600 l 83 756 l 208 756 l 208 879 l 611 879 l 611 756 l 738 756 l 738 478 l 611 478 l 611 354 l 236 354 l 236 139 l 583 139 l 583 264 l 738 264 l 738 107 l 611 107 l 611 -17 l 208 -17 z "},"3":{"ha":822,"x_min":83,"x_max":738,"o":"m 208 -17 l 208 107 l 83 107 l 83 264 l 236 264 l 236 139 l 583 139 l 583 354 l 208 354 l 208 508 l 583 508 l 583 722 l 236 722 l 236 600 l 83 600 l 83 756 l 208 756 l 208 879 l 611 879 l 611 756 l 738 756 l 738 478 l 611 478 l 611 388 l 738 388 l 738 107 l 611 107 l 611 -17 l 208 -17 z "},"4":{"ha":822,"x_min":83,"x_max":738,"o":"m 583 -17 l 583 231 l 83 231 l 83 508 l 208 508 l 208 633 l 333 633 l 333 756 l 460 756 l 460 879 l 738 879 l 738 -17 l 583 -17 m 236 388 l 583 388 l 583 722 l 486 722 l 486 600 l 360 600 l 360 478 l 236 478 l 236 388 z "},"5":{"ha":822,"x_min":83,"x_max":738,"o":"m 208 -17 l 208 107 l 83 107 l 83 264 l 236 264 l 236 139 l 583 139 l 583 231 l 333 231 l 333 354 l 208 354 l 208 478 l 83 478 l 83 756 l 208 756 l 208 879 l 611 879 l 611 756 l 738 756 l 738 478 l 583 478 l 583 722 l 236 722 l 236 508 l 360 508 l 360 388 l 611 388 l 611 264 l 738 264 l 738 107 l 611 107 l 611 -17 l 208 -17 z "},"6":{"ha":822,"x_min":83,"x_max":738,"o":"m 208 -17 l 208 107 l 83 107 l 83 756 l 208 756 l 208 879 l 611 879 l 611 756 l 738 756 l 738 600 l 583 600 l 583 722 l 236 722 l 236 508 l 611 508 l 611 388 l 738 388 l 738 107 l 611 107 l 611 -17 l 208 -17 m 236 139 l 583 139 l 583 354 l 236 354 l 236 139 z "},"7":{"ha":822,"x_min":83,"x_max":738,"o":"m 583 -17 l 583 722 l 236 722 l 236 600 l 83 600 l 83 756 l 208 756 l 208 879 l 611 879 l 611 756 l 738 756 l 738 -17 l 583 -17 z "},"8":{"ha":822,"x_min":83,"x_max":738,"o":"m 208 -17 l 208 107 l 83 107 l 83 388 l 208 388 l 208 478 l 83 478 l 83 756 l 208 756 l 208 879 l 611 879 l 611 756 l 738 756 l 738 478 l 611 478 l 611 388 l 738 388 l 738 107 l 611 107 l 611 -17 l 208 -17 m 236 139 l 583 139 l 583 354 l 236 354 l 236 139 m 236 508 l 583 508 l 583 722 l 236 722 l 236 508 z "},"9":{"ha":822,"x_min":83,"x_max":738,"o":"m 208 -17 l 208 107 l 83 107 l 83 264 l 236 264 l 236 139 l 583 139 l 583 354 l 208 354 l 208 478 l 83 478 l 83 756 l 208 756 l 208 879 l 611 879 l 611 756 l 738 756 l 738 107 l 611 107 l 611 -17 l 208 -17 m 236 508 l 583 508 l 583 722 l 236 722 l 236 508 z "},"A":{"ha":822,"x_min":83,"x_max":738,"o":"m 83 -17 l 83 633 l 208 633 l 208 756 l 333 756 l 333 879 l 486 879 l 486 756 l 611 756 l 611 633 l 738 633 l 738 -17 l 583 -17 l 583 231 l 236 231 l 236 -17 l 83 -17 m 236 388 l 583 388 l 583 600 l 460 600 l 460 722 l 360 722 l 360 600 l 236 600 l 236 388 z "},"Á":{"ha":822,"x_min":83,"x_max":738,"o":"m 83 -17 l 83 633 l 208 633 l 208 756 l 333 756 l 333 879 l 486 879 l 486 756 l 611 756 l 611 633 l 738 633 l 738 -17 l 583 -17 l 583 231 l 236 231 l 236 -17 l 83 -17 m 236 388 l 583 388 l 583 600 l 460 600 l 460 722 l 360 722 l 360 600 l 236 600 l 236 388 m 289 967 l 289 1060 l 351 1060 l 351 1121 l 414 1121 l 414 1185 l 503 1185 l 503 1090 l 442 1090 l 442 1028 l 378 1028 l 378 967 l 289 967 z "},"Ă":{"ha":822,"x_min":83,"x_max":738,"o":"m 83 -17 l 83 633 l 208 633 l 208 756 l 333 756 l 333 879 l 486 879 l 486 756 l 611 756 l 611 633 l 738 633 l 738 -17 l 583 -17 l 583 231 l 236 231 l 236 -17 l 83 -17 m 236 388 l 583 388 l 583 600 l 460 600 l 460 722 l 360 722 l 360 600 l 236 600 l 236 388 m 235 967 l 235 1124 l 324 1124 l 324 1061 l 496 1061 l 496 1124 l 583 1124 l 583 967 l 235 967 z "},"Â":{"ha":822,"x_min":83,"x_max":738,"o":"m 83 -17 l 83 633 l 208 633 l 208 756 l 333 756 l 333 879 l 486 879 l 486 756 l 611 756 l 611 633 l 738 633 l 738 -17 l 583 -17 l 583 231 l 236 231 l 236 -17 l 83 -17 m 236 388 l 583 388 l 583 600 l 460 600 l 460 722 l 360 722 l 360 600 l 236 600 l 236 388 m 304 967 l 304 1061 l 365 1061 l 365 1124 l 456 1124 l 456 1061 l 518 1061 l 518 967 l 429 967 l 429 1029 l 393 1029 l 393 967 l 304 967 z "},"Ä":{"ha":822,"x_min":83,"x_max":738,"o":"m 83 -17 l 83 633 l 208 633 l 208 756 l 333 756 l 333 879 l 486 879 l 486 756 l 611 756 l 611 633 l 738 633 l 738 -17 l 583 -17 l 583 231 l 236 231 l 236 -17 l 83 -17 m 236 388 l 583 388 l 583 600 l 460 600 l 460 722 l 360 722 l 360 600 l 236 600 l 236 388 m 194 964 l 194 1121 l 347 1121 l 347 964 l 194 964 m 488 964 l 488 1121 l 639 1121 l 639 964 l 488 964 z "},"À":{"ha":822,"x_min":83,"x_max":738,"o":"m 83 -17 l 83 633 l 208 633 l 208 756 l 333 756 l 333 879 l 486 879 l 486 756 l 611 756 l 611 633 l 738 633 l 738 -17 l 583 -17 l 583 231 l 236 231 l 236 -17 l 83 -17 m 236 388 l 583 388 l 583 600 l 460 600 l 460 722 l 360 722 l 360 600 l 236 600 l 236 388 m 367 967 l 367 1028 l 304 1028 l 304 1090 l 242 1090 l 242 1185 l 331 1185 l 331 1121 l 394 1121 l 394 1060 l 456 1060 l 456 967 l 367 967 z "},"Ā":{"ha":822,"x_min":83,"x_max":738,"o":"m 83 -17 l 83 633 l 208 633 l 208 756 l 333 756 l 333 879 l 486 879 l 486 756 l 611 756 l 611 633 l 738 633 l 738 -17 l 583 -17 l 583 231 l 236 231 l 236 -17 l 83 -17 m 236 388 l 583 388 l 583 600 l 460 600 l 460 722 l 360 722 l 360 600 l 236 600 l 236 388 m 211 967 l 211 1104 l 614 1104 l 614 967 l 211 967 z "},"Ą":{"ha":822,"x_min":83,"x_max":842,"o":"m 83 -17 l 83 633 l 208 633 l 208 756 l 333 756 l 333 879 l 486 879 l 486 756 l 611 756 l 611 633 l 738 633 l 738 -17 l 583 -17 l 583 231 l 236 231 l 236 -17 l 83 -17 m 236 388 l 583 388 l 583 600 l 460 600 l 460 722 l 360 722 l 360 600 l 236 600 l 236 388 m 567 -289 l 567 -228 l 503 -228 l 503 -133 l 567 -133 l 567 -82 l 608 -82 l 608 36 l 718 36 l 718 -106 l 656 -106 l 656 -151 l 614 -154 l 614 -194 l 754 -194 l 754 -133 l 843 -133 l 843 -228 l 781 -228 l 781 -289 l 567 -289 z "},"Å":{"ha":822,"x_min":83,"x_max":738,"o":"m 83 -17 l 83 633 l 208 633 l 208 756 l 333 756 l 333 879 l 486 879 l 486 756 l 611 756 l 611 633 l 738 633 l 738 -17 l 583 -17 l 583 231 l 236 231 l 236 -17 l 83 -17 m 236 388 l 583 388 l 583 600 l 460 600 l 460 722 l 360 722 l 360 600 l 236 600 l 236 388 m 333 968 l 333 1125 l 485 1125 l 485 968 l 333 968 m 379 1014 l 439 1014 l 439 1079 l 379 1079 l 379 1014 z "},"Ã":{"ha":822,"x_min":83,"x_max":738,"o":"m 83 -17 l 83 633 l 208 633 l 208 756 l 333 756 l 333 879 l 486 879 l 486 756 l 611 756 l 611 633 l 738 633 l 738 -17 l 583 -17 l 583 231 l 236 231 l 236 -17 l 83 -17 m 236 388 l 583 388 l 583 600 l 460 600 l 460 722 l 360 722 l 360 600 l 236 600 l 236 388 m 226 967 l 226 1126 l 449 1126 l 449 1064 l 486 1064 l 486 1126 l 579 1126 l 579 967 l 356 967 l 356 1032 l 318 1032 l 318 967 l 226 967 z "},"Æ":{"ha":1321,"x_min":83,"x_max":1236,"o":"m 83 -17 l 83 633 l 208 633 l 208 756 l 333 756 l 333 879 l 486 879 l 486 756 l 710 756 l 710 879 l 1111 879 l 1111 756 l 1236 756 l 1236 600 l 1085 600 l 1085 722 l 738 722 l 738 508 l 986 508 l 986 354 l 738 354 l 738 139 l 1085 139 l 1085 264 l 1236 264 l 1236 107 l 1111 107 l 1111 -17 l 583 -17 l 583 231 l 236 231 l 236 -17 l 83 -17 m 236 388 l 583 388 l 583 600 l 460 600 l 460 722 l 360 722 l 360 600 l 236 600 l 236 388 z "},"Ǽ":{"ha":1321,"x_min":83,"x_max":1236,"o":"m 83 -17 l 83 633 l 208 633 l 208 756 l 333 756 l 333 879 l 486 879 l 486 756 l 710 756 l 710 879 l 1111 879 l 1111 756 l 1236 756 l 1236 600 l 1085 600 l 1085 722 l 738 722 l 738 508 l 986 508 l 986 354 l 738 354 l 738 139 l 1085 139 l 1085 264 l 1236 264 l 1236 107 l 1111 107 l 1111 -17 l 583 -17 l 583 231 l 236 231 l 236 -17 l 83 -17 m 236 388 l 583 388 l 583 600 l 460 600 l 460 722 l 360 722 l 360 600 l 236 600 l 236 388 m 568 943 l 568 1036 l 631 1036 l 631 1097 l 693 1097 l 693 1161 l 782 1161 l 782 1067 l 721 1067 l 721 1004 l 657 1004 l 657 943 l 568 943 z "},"B":{"ha":822,"x_min":83,"x_max":738,"o":"m 208 -17 l 208 107 l 83 107 l 83 756 l 208 756 l 208 879 l 611 879 l 611 756 l 738 756 l 738 478 l 611 478 l 611 388 l 738 388 l 738 107 l 611 107 l 611 -17 l 208 -17 m 236 139 l 583 139 l 583 354 l 333 354 l 333 508 l 583 508 l 583 722 l 236 722 l 236 139 z "},"C":{"ha":822,"x_min":83,"x_max":738,"o":"m 208 -17 l 208 107 l 83 107 l 83 756 l 208 756 l 208 879 l 611 879 l 611 756 l 738 756 l 738 478 l 583 478 l 583 722 l 236 722 l 236 139 l 583 139 l 583 388 l 738 388 l 738 107 l 611 107 l 611 -17 l 208 -17 z "},"Ć":{"ha":822,"x_min":83,"x_max":738,"o":"m 208 -17 l 208 107 l 83 107 l 83 756 l 208 756 l 208 879 l 611 879 l 611 756 l 738 756 l 738 478 l 583 478 l 583 722 l 236 722 l 236 139 l 583 139 l 583 388 l 738 388 l 738 107 l 611 107 l 611 -17 l 208 -17 m 289 968 l 289 1061 l 351 1061 l 351 1122 l 414 1122 l 414 1186 l 503 1186 l 503 1092 l 442 1092 l 442 1029 l 378 1029 l 378 968 l 289 968 z "},"Č":{"ha":822,"x_min":83,"x_max":738,"o":"m 208 -17 l 208 107 l 83 107 l 83 756 l 208 756 l 208 879 l 611 879 l 611 756 l 738 756 l 738 478 l 583 478 l 583 722 l 236 722 l 236 139 l 583 139 l 583 388 l 738 388 l 738 107 l 611 107 l 611 -17 l 208 -17 m 365 968 l 365 1032 l 304 1032 l 304 1125 l 393 1125 l 393 1063 l 429 1063 l 429 1125 l 518 1125 l 518 1032 l 456 1032 l 456 968 l 365 968 z "},"Ç":{"ha":822,"x_min":83,"x_max":738,"o":"m 208 -17 l 208 107 l 83 107 l 83 756 l 208 756 l 208 879 l 611 879 l 611 756 l 738 756 l 738 478 l 583 478 l 583 722 l 236 722 l 236 139 l 583 139 l 583 388 l 738 388 l 738 107 l 611 107 l 611 -17 l 208 -17 m 296 -272 l 296 -211 l 232 -211 l 232 -117 l 322 -117 l 322 -178 l 463 -178 l 463 -140 l 419 -137 l 419 -89 l 357 -89 l 357 44 l 467 44 l 467 -75 l 531 -75 l 531 -135 l 572 -143 l 572 -211 l 510 -211 l 510 -272 l 296 -272 z "},"Ĉ":{"ha":822,"x_min":83,"x_max":738,"o":"m 208 -17 l 208 107 l 83 107 l 83 756 l 208 756 l 208 879 l 611 879 l 611 756 l 738 756 l 738 478 l 583 478 l 583 722 l 236 722 l 236 139 l 583 139 l 583 388 l 738 388 l 738 107 l 611 107 l 611 -17 l 208 -17 m 304 968 l 304 1063 l 365 1063 l 365 1125 l 456 1125 l 456 1063 l 518 1063 l 518 968 l 429 968 l 429 1031 l 393 1031 l 393 968 l 304 968 z "},"Ċ":{"ha":822,"x_min":83,"x_max":738,"o":"m 208 -17 l 208 107 l 83 107 l 83 756 l 208 756 l 208 879 l 611 879 l 611 756 l 738 756 l 738 478 l 583 478 l 583 722 l 236 722 l 236 139 l 583 139 l 583 388 l 738 388 l 738 107 l 611 107 l 611 -17 l 208 -17 m 335 969 l 335 1126 l 488 1126 l 488 969 l 335 969 z "},"D":{"ha":822,"x_min":83,"x_max":738,"o":"m 83 -17 l 83 879 l 486 879 l 486 756 l 611 756 l 611 633 l 738 633 l 738 231 l 611 231 l 611 107 l 486 107 l 486 -17 l 83 -17 m 236 139 l 460 139 l 460 264 l 583 264 l 583 600 l 460 600 l 460 722 l 236 722 l 236 139 z "},"Ď":{"ha":822,"x_min":83,"x_max":738,"o":"m 83 -17 l 83 879 l 486 879 l 486 756 l 611 756 l 611 633 l 738 633 l 738 231 l 611 231 l 611 107 l 486 107 l 486 -17 l 83 -17 m 236 139 l 460 139 l 460 264 l 583 264 l 583 600 l 460 600 l 460 722 l 236 722 l 236 139 m 301 968 l 301 1032 l 240 1032 l 240 1125 l 329 1125 l 329 1063 l 365 1063 l 365 1125 l 454 1125 l 454 1032 l 392 1032 l 392 968 l 301 968 z "},"Đ":{"ha":822,"x_min":31,"x_max":736,"o":"m 83 -17 l 83 329 l 31 329 l 31 486 l 83 486 l 83 879 l 486 879 l 486 756 l 610 756 l 610 633 l 736 633 l 736 231 l 610 231 l 610 107 l 486 107 l 486 -17 l 83 -17 m 236 139 l 458 139 l 458 264 l 583 264 l 583 600 l 458 600 l 458 722 l 236 722 l 236 486 l 368 486 l 368 329 l 236 329 l 236 139 z "},"Ð":{"ha":822,"x_min":31,"x_max":736,"o":"m 83 -17 l 83 329 l 31 329 l 31 486 l 83 486 l 83 879 l 486 879 l 486 756 l 610 756 l 610 633 l 736 633 l 736 231 l 610 231 l 610 107 l 486 107 l 486 -17 l 83 -17 m 236 139 l 458 139 l 458 264 l 583 264 l 583 600 l 458 600 l 458 722 l 236 722 l 236 486 l 368 486 l 368 329 l 236 329 l 236 139 z "},"E":{"ha":822,"x_min":83,"x_max":738,"o":"m 208 -17 l 208 107 l 83 107 l 83 756 l 208 756 l 208 879 l 611 879 l 611 756 l 738 756 l 738 600 l 583 600 l 583 722 l 236 722 l 236 508 l 486 508 l 486 354 l 236 354 l 236 139 l 583 139 l 583 264 l 738 264 l 738 107 l 611 107 l 611 -17 l 208 -17 z "},"É":{"ha":822,"x_min":83,"x_max":738,"o":"m 208 -17 l 208 107 l 83 107 l 83 756 l 208 756 l 208 879 l 611 879 l 611 756 l 738 756 l 738 600 l 583 600 l 583 722 l 236 722 l 236 508 l 486 508 l 486 354 l 236 354 l 236 139 l 583 139 l 583 264 l 738 264 l 738 107 l 611 107 l 611 -17 l 208 -17 m 288 968 l 288 1061 l 350 1061 l 350 1122 l 413 1122 l 413 1186 l 501 1186 l 501 1092 l 440 1092 l 440 1029 l 376 1029 l 376 968 l 288 968 z "},"Ĕ":{"ha":822,"x_min":83,"x_max":738,"o":"m 208 -17 l 208 107 l 83 107 l 83 756 l 208 756 l 208 879 l 611 879 l 611 756 l 738 756 l 738 600 l 583 600 l 583 722 l 236 722 l 236 508 l 486 508 l 486 354 l 236 354 l 236 139 l 583 139 l 583 264 l 738 264 l 738 107 l 611 107 l 611 -17 l 208 -17 m 232 968 l 232 1125 l 321 1125 l 321 1063 l 493 1063 l 493 1125 l 581 1125 l 581 968 l 232 968 z "},"Ě":{"ha":822,"x_min":83,"x_max":738,"o":"m 208 -17 l 208 107 l 83 107 l 83 756 l 208 756 l 208 879 l 611 879 l 611 756 l 738 756 l 738 600 l 583 600 l 583 722 l 236 722 l 236 508 l 486 508 l 486 354 l 236 354 l 236 139 l 583 139 l 583 264 l 738 264 l 738 107 l 611 107 l 611 -17 l 208 -17 m 364 968 l 364 1032 l 303 1032 l 303 1125 l 392 1125 l 392 1063 l 428 1063 l 428 1125 l 517 1125 l 517 1032 l 454 1032 l 454 968 l 364 968 z "},"Ê":{"ha":822,"x_min":83,"x_max":738,"o":"m 208 -17 l 208 107 l 83 107 l 83 756 l 208 756 l 208 879 l 611 879 l 611 756 l 738 756 l 738 600 l 583 600 l 583 722 l 236 722 l 236 508 l 486 508 l 486 354 l 236 354 l 236 139 l 583 139 l 583 264 l 738 264 l 738 107 l 611 107 l 611 -17 l 208 -17 m 303 968 l 303 1063 l 364 1063 l 364 1125 l 454 1125 l 454 1063 l 517 1063 l 517 968 l 428 968 l 428 1031 l 392 1031 l 392 968 l 303 968 z "},"Ë":{"ha":822,"x_min":83,"x_max":738,"o":"m 208 -17 l 208 107 l 83 107 l 83 756 l 208 756 l 208 879 l 611 879 l 611 756 l 738 756 l 738 600 l 583 600 l 583 722 l 236 722 l 236 508 l 486 508 l 486 354 l 236 354 l 236 139 l 583 139 l 583 264 l 738 264 l 738 107 l 611 107 l 611 -17 l 208 -17 m 193 965 l 193 1122 l 346 1122 l 346 965 l 193 965 m 486 965 l 486 1122 l 638 1122 l 638 965 l 486 965 z "},"Ė":{"ha":822,"x_min":83,"x_max":738,"o":"m 208 -17 l 208 107 l 83 107 l 83 756 l 208 756 l 208 879 l 611 879 l 611 756 l 738 756 l 738 600 l 583 600 l 583 722 l 236 722 l 236 508 l 486 508 l 486 354 l 236 354 l 236 139 l 583 139 l 583 264 l 738 264 l 738 107 l 611 107 l 611 -17 l 208 -17 m 333 969 l 333 1126 l 486 1126 l 486 969 l 333 969 z "},"È":{"ha":822,"x_min":83,"x_max":738,"o":"m 208 -17 l 208 107 l 83 107 l 83 756 l 208 756 l 208 879 l 611 879 l 611 756 l 738 756 l 738 600 l 583 600 l 583 722 l 236 722 l 236 508 l 486 508 l 486 354 l 236 354 l 236 139 l 583 139 l 583 264 l 738 264 l 738 107 l 611 107 l 611 -17 l 208 -17 m 365 968 l 365 1029 l 303 1029 l 303 1092 l 240 1092 l 240 1186 l 329 1186 l 329 1122 l 393 1122 l 393 1061 l 454 1061 l 454 968 l 365 968 z "},"Ē":{"ha":822,"x_min":83,"x_max":738,"o":"m 208 -17 l 208 107 l 83 107 l 83 756 l 208 756 l 208 879 l 611 879 l 611 756 l 738 756 l 738 600 l 583 600 l 583 722 l 236 722 l 236 508 l 486 508 l 486 354 l 236 354 l 236 139 l 583 139 l 583 264 l 738 264 l 738 107 l 611 107 l 611 -17 l 208 -17 m 210 968 l 210 1106 l 613 1106 l 613 968 l 210 968 z "},"Ę":{"ha":822,"x_min":83,"x_max":738,"o":"m 208 -17 l 208 107 l 83 107 l 83 756 l 208 756 l 208 879 l 611 879 l 611 756 l 738 756 l 738 600 l 583 600 l 583 722 l 236 722 l 236 508 l 486 508 l 486 354 l 236 354 l 236 139 l 583 139 l 583 264 l 738 264 l 738 107 l 611 107 l 611 -17 l 208 -17 m 308 -289 l 308 -228 l 244 -228 l 244 -133 l 308 -133 l 308 -82 l 350 -82 l 350 36 l 460 36 l 460 -106 l 397 -106 l 397 -151 l 356 -154 l 356 -194 l 496 -194 l 496 -133 l 585 -133 l 585 -228 l 522 -228 l 522 -289 l 308 -289 z "},"F":{"ha":822,"x_min":83,"x_max":738,"o":"m 83 -17 l 83 879 l 611 879 l 611 756 l 738 756 l 738 600 l 583 600 l 583 722 l 236 722 l 236 508 l 486 508 l 486 354 l 236 354 l 236 -17 l 83 -17 z "},"G":{"ha":822,"x_min":83,"x_max":738,"o":"m 208 -17 l 208 107 l 83 107 l 83 756 l 208 756 l 208 879 l 611 879 l 611 756 l 738 756 l 738 478 l 583 478 l 583 722 l 236 722 l 236 139 l 583 139 l 583 231 l 460 231 l 460 354 l 333 354 l 333 508 l 486 508 l 486 388 l 738 388 l 738 107 l 611 107 l 611 -17 l 208 -17 z "},"Ğ":{"ha":822,"x_min":83,"x_max":738,"o":"m 208 -17 l 208 107 l 83 107 l 83 756 l 208 756 l 208 879 l 611 879 l 611 756 l 738 756 l 738 478 l 583 478 l 583 722 l 236 722 l 236 139 l 583 139 l 583 231 l 460 231 l 460 354 l 333 354 l 333 508 l 486 508 l 486 388 l 738 388 l 738 107 l 611 107 l 611 -17 l 208 -17 m 235 968 l 235 1125 l 324 1125 l 324 1063 l 496 1063 l 496 1125 l 583 1125 l 583 968 l 235 968 z "},"Ĝ":{"ha":822,"x_min":83,"x_max":738,"o":"m 208 -17 l 208 107 l 83 107 l 83 756 l 208 756 l 208 879 l 611 879 l 611 756 l 738 756 l 738 478 l 583 478 l 583 722 l 236 722 l 236 139 l 583 139 l 583 231 l 460 231 l 460 354 l 333 354 l 333 508 l 486 508 l 486 388 l 738 388 l 738 107 l 611 107 l 611 -17 l 208 -17 m 304 968 l 304 1063 l 365 1063 l 365 1125 l 456 1125 l 456 1063 l 518 1063 l 518 968 l 429 968 l 429 1031 l 393 1031 l 393 968 l 304 968 z "},"Ģ":{"ha":822,"x_min":83,"x_max":738,"o":"m 208 -17 l 208 107 l 83 107 l 83 756 l 208 756 l 208 879 l 611 879 l 611 756 l 738 756 l 738 478 l 583 478 l 583 722 l 236 722 l 236 139 l 583 139 l 583 231 l 460 231 l 460 354 l 333 354 l 333 508 l 486 508 l 486 388 l 738 388 l 738 107 l 611 107 l 611 -17 l 208 -17 m 389 -349 l 389 -267 l 431 -267 l 431 -226 l 326 -226 l 326 -69 l 479 -69 l 479 -193 l 540 -193 l 540 -286 l 479 -286 l 479 -349 l 389 -349 z "},"Ġ":{"ha":822,"x_min":83,"x_max":738,"o":"m 208 -17 l 208 107 l 83 107 l 83 756 l 208 756 l 208 879 l 611 879 l 611 756 l 738 756 l 738 478 l 583 478 l 583 722 l 236 722 l 236 139 l 583 139 l 583 231 l 460 231 l 460 354 l 333 354 l 333 508 l 486 508 l 486 388 l 738 388 l 738 107 l 611 107 l 611 -17 l 208 -17 m 335 969 l 335 1126 l 488 1126 l 488 969 l 335 969 z "},"H":{"ha":822,"x_min":83,"x_max":738,"o":"m 83 -17 l 83 879 l 236 879 l 236 508 l 333 508 l 333 633 l 486 633 l 486 508 l 583 508 l 583 879 l 738 879 l 738 -17 l 583 -17 l 583 354 l 236 354 l 236 -17 l 83 -17 z "},"Ħ":{"ha":822,"x_min":83,"x_max":738,"o":"m 83 -17 l 83 879 l 236 879 l 236 829 l 583 829 l 583 879 l 738 879 l 738 -17 l 583 -17 l 583 354 l 236 354 l 236 -17 l 83 -17 m 236 508 l 333 508 l 333 633 l 486 633 l 486 508 l 583 508 l 583 674 l 236 674 l 236 508 z "},"Ĥ":{"ha":822,"x_min":83,"x_max":738,"o":"m 83 -17 l 83 879 l 236 879 l 236 508 l 333 508 l 333 633 l 486 633 l 486 508 l 583 508 l 583 879 l 738 879 l 738 -17 l 583 -17 l 583 354 l 236 354 l 236 -17 l 83 -17 m 304 968 l 304 1063 l 365 1063 l 365 1125 l 456 1125 l 456 1063 l 518 1063 l 518 968 l 429 968 l 429 1031 l 393 1031 l 393 968 l 304 968 z "},"I":{"ha":571,"x_min":83,"x_max":486,"o":"m 83 -17 l 83 139 l 208 139 l 208 722 l 83 722 l 83 879 l 486 879 l 486 722 l 360 722 l 360 139 l 486 139 l 486 -17 l 83 -17 z "},"Ĳ":{"ha":1393,"x_min":83,"x_max":1308,"o":"m 83 -17 l 83 139 l 208 139 l 208 722 l 83 722 l 83 879 l 486 879 l 486 722 l 360 722 l 360 139 l 486 139 l 486 -17 l 83 -17 m 779 -17 l 779 107 l 654 107 l 654 388 l 807 388 l 807 139 l 1154 139 l 1154 722 l 779 722 l 779 879 l 1182 879 l 1182 756 l 1308 756 l 1308 107 l 1182 107 l 1182 -17 l 779 -17 z "},"Í":{"ha":571,"x_min":83,"x_max":486,"o":"m 83 -17 l 83 139 l 208 139 l 208 722 l 83 722 l 83 879 l 486 879 l 486 722 l 360 722 l 360 139 l 486 139 l 486 -17 l 83 -17 m 164 968 l 164 1061 l 226 1061 l 226 1122 l 289 1122 l 289 1186 l 378 1186 l 378 1092 l 317 1092 l 317 1029 l 253 1029 l 253 968 l 164 968 z "},"Ĭ":{"ha":571,"x_min":83,"x_max":486,"o":"m 83 -17 l 83 139 l 208 139 l 208 722 l 83 722 l 83 879 l 486 879 l 486 722 l 360 722 l 360 139 l 486 139 l 486 -17 l 83 -17 m 108 968 l 108 1125 l 197 1125 l 197 1063 l 369 1063 l 369 1125 l 457 1125 l 457 968 l 108 968 z "},"Î":{"ha":571,"x_min":83,"x_max":486,"o":"m 83 -17 l 83 139 l 208 139 l 208 722 l 83 722 l 83 879 l 486 879 l 486 722 l 360 722 l 360 139 l 486 139 l 486 -17 l 83 -17 m 179 968 l 179 1063 l 240 1063 l 240 1125 l 331 1125 l 331 1063 l 393 1063 l 393 968 l 304 968 l 304 1031 l 268 1031 l 268 968 l 179 968 z "},"Ï":{"ha":571,"x_min":68,"x_max":514,"o":"m 83 -17 l 83 139 l 208 139 l 208 722 l 83 722 l 83 879 l 486 879 l 486 722 l 360 722 l 360 139 l 486 139 l 486 -17 l 83 -17 m 69 965 l 69 1122 l 222 1122 l 222 965 l 69 965 m 363 965 l 363 1122 l 514 1122 l 514 965 l 363 965 z "},"İ":{"ha":571,"x_min":83,"x_max":486,"o":"m 83 -17 l 83 139 l 208 139 l 208 722 l 83 722 l 83 879 l 486 879 l 486 722 l 360 722 l 360 139 l 486 139 l 486 -17 l 83 -17 m 210 969 l 210 1126 l 363 1126 l 363 969 l 210 969 z "},"Ì":{"ha":571,"x_min":83,"x_max":486,"o":"m 83 -17 l 83 139 l 208 139 l 208 722 l 83 722 l 83 879 l 486 879 l 486 722 l 360 722 l 360 139 l 486 139 l 486 -17 l 83 -17 m 242 968 l 242 1029 l 179 1029 l 179 1092 l 117 1092 l 117 1186 l 206 1186 l 206 1122 l 269 1122 l 269 1061 l 331 1061 l 331 968 l 242 968 z "},"Ī":{"ha":571,"x_min":83,"x_max":489,"o":"m 83 -17 l 83 139 l 208 139 l 208 722 l 83 722 l 83 879 l 486 879 l 486 722 l 360 722 l 360 139 l 486 139 l 486 -17 l 83 -17 m 86 968 l 86 1106 l 489 1106 l 489 968 l 86 968 z "},"Į":{"ha":571,"x_min":83,"x_max":486,"o":"m 83 -17 l 83 139 l 208 139 l 208 722 l 83 722 l 83 879 l 486 879 l 486 722 l 360 722 l 360 139 l 486 139 l 486 -17 l 83 -17 m 183 -289 l 183 -228 l 119 -228 l 119 -133 l 183 -133 l 183 -82 l 225 -82 l 225 36 l 335 36 l 335 -106 l 272 -106 l 272 -151 l 231 -154 l 231 -194 l 371 -194 l 371 -133 l 460 -133 l 460 -228 l 397 -228 l 397 -289 l 183 -289 z "},"Ĩ":{"ha":571,"x_min":83,"x_max":486,"o":"m 83 -17 l 83 139 l 208 139 l 208 722 l 83 722 l 83 879 l 486 879 l 486 722 l 360 722 l 360 139 l 486 139 l 486 -17 l 83 -17 m 101 968 l 101 1128 l 324 1128 l 324 1065 l 361 1065 l 361 1128 l 454 1128 l 454 968 l 231 968 l 231 1033 l 193 1033 l 193 968 l 101 968 z "},"J":{"ha":822,"x_min":83,"x_max":738,"o":"m 208 -17 l 208 107 l 83 107 l 83 388 l 236 388 l 236 139 l 583 139 l 583 722 l 208 722 l 208 879 l 611 879 l 611 756 l 738 756 l 738 107 l 611 107 l 611 -17 l 208 -17 z "},"Ĵ":{"ha":822,"x_min":83,"x_max":738,"o":"m 208 -17 l 208 107 l 83 107 l 83 388 l 236 388 l 236 139 l 583 139 l 583 722 l 208 722 l 208 879 l 611 879 l 611 756 l 738 756 l 738 107 l 611 107 l 611 -17 l 208 -17 m 304 968 l 304 1063 l 365 1063 l 365 1125 l 456 1125 l 456 1063 l 518 1063 l 518 968 l 429 968 l 429 1031 l 393 1031 l 393 968 l 304 968 z "},"K":{"ha":822,"x_min":83,"x_max":738,"o":"m 83 -17 l 83 756 l 208 756 l 208 879 l 360 879 l 360 722 l 236 722 l 236 508 l 333 508 l 333 633 l 460 633 l 460 756 l 583 756 l 583 879 l 738 879 l 738 722 l 611 722 l 611 600 l 486 600 l 486 478 l 360 478 l 360 388 l 486 388 l 486 264 l 611 264 l 611 139 l 738 139 l 738 -17 l 583 -17 l 583 107 l 460 107 l 460 231 l 333 231 l 333 354 l 236 354 l 236 -17 l 83 -17 z "},"Ķ":{"ha":822,"x_min":83,"x_max":738,"o":"m 83 -17 l 83 756 l 208 756 l 208 879 l 360 879 l 360 722 l 236 722 l 236 508 l 333 508 l 333 633 l 460 633 l 460 756 l 583 756 l 583 879 l 738 879 l 738 722 l 611 722 l 611 600 l 486 600 l 486 478 l 360 478 l 360 388 l 486 388 l 486 264 l 611 264 l 611 139 l 738 139 l 738 -17 l 583 -17 l 583 107 l 460 107 l 460 231 l 333 231 l 333 354 l 236 354 l 236 -17 l 83 -17 m 389 -349 l 389 -267 l 431 -267 l 431 -226 l 326 -226 l 326 -69 l 479 -69 l 479 -193 l 540 -193 l 540 -286 l 479 -286 l 479 -349 l 389 -349 z "},"L":{"ha":822,"x_min":83,"x_max":738,"o":"m 208 -17 l 208 107 l 83 107 l 83 879 l 236 879 l 236 139 l 583 139 l 583 264 l 738 264 l 738 107 l 611 107 l 611 -17 l 208 -17 z "},"Ĺ":{"ha":822,"x_min":83,"x_max":738,"o":"m 208 -17 l 208 107 l 83 107 l 83 879 l 236 879 l 236 139 l 583 139 l 583 264 l 738 264 l 738 107 l 611 107 l 611 -17 l 208 -17 m 289 996 l 289 1089 l 351 1089 l 351 1150 l 414 1150 l 414 1214 l 503 1214 l 503 1119 l 442 1119 l 442 1057 l 378 1057 l 378 996 l 289 996 z "},"Ľ":{"ha":822,"x_min":83,"x_max":738,"o":"m 208 -17 l 208 107 l 83 107 l 83 879 l 236 879 l 236 139 l 583 139 l 583 264 l 738 264 l 738 107 l 611 107 l 611 -17 l 208 -17 m 538 600 l 538 682 l 579 678 l 579 722 l 475 722 l 475 879 l 628 879 l 628 756 l 689 756 l 689 663 l 628 663 l 628 600 l 538 600 z "},"Ļ":{"ha":822,"x_min":83,"x_max":738,"o":"m 208 -17 l 208 107 l 83 107 l 83 879 l 236 879 l 236 139 l 583 139 l 583 264 l 738 264 l 738 107 l 611 107 l 611 -17 l 208 -17 m 389 -349 l 389 -267 l 431 -267 l 431 -226 l 326 -226 l 326 -69 l 479 -69 l 479 -193 l 540 -193 l 540 -286 l 479 -286 l 479 -349 l 389 -349 z "},"Ŀ":{"ha":822,"x_min":83,"x_max":738,"o":"m 208 -17 l 208 107 l 83 107 l 83 879 l 236 879 l 236 139 l 583 139 l 583 264 l 738 264 l 738 107 l 611 107 l 611 -17 l 208 -17 m 335 564 l 335 721 l 488 721 l 488 564 l 335 564 z "},"Ł":{"ha":828,"x_min":-33,"x_max":743,"o":"m 215 -17 l 215 107 l 90 107 l 90 253 l 56 206 l -33 272 l 90 432 l 90 879 l 243 879 l 243 633 l 322 738 l 408 674 l 243 454 l 243 139 l 590 139 l 590 264 l 743 264 l 743 107 l 617 107 l 617 -17 l 215 -17 z "},"M":{"ha":1071,"x_min":83,"x_max":986,"o":"m 83 -17 l 83 756 l 208 756 l 208 879 l 360 879 l 360 756 l 486 756 l 486 508 l 583 508 l 583 756 l 710 756 l 710 879 l 863 879 l 863 756 l 986 756 l 986 -17 l 835 -17 l 835 722 l 738 722 l 738 478 l 611 478 l 611 107 l 460 107 l 460 478 l 333 478 l 333 722 l 236 722 l 236 -17 l 83 -17 z "},"N":{"ha":822,"x_min":83,"x_max":738,"o":"m 83 -17 l 83 879 l 236 879 l 236 756 l 360 756 l 360 633 l 486 633 l 486 264 l 583 264 l 583 879 l 738 879 l 738 -17 l 583 -17 l 583 107 l 460 107 l 460 231 l 333 231 l 333 600 l 236 600 l 236 -17 l 83 -17 z "},"Ń":{"ha":822,"x_min":83,"x_max":738,"o":"m 83 -17 l 83 879 l 236 879 l 236 756 l 360 756 l 360 633 l 486 633 l 486 264 l 583 264 l 583 879 l 738 879 l 738 -17 l 583 -17 l 583 107 l 460 107 l 460 231 l 333 231 l 333 600 l 236 600 l 236 -17 l 83 -17 m 289 968 l 289 1061 l 351 1061 l 351 1122 l 414 1122 l 414 1186 l 503 1186 l 503 1092 l 442 1092 l 442 1029 l 378 1029 l 378 968 l 289 968 z "},"Ň":{"ha":822,"x_min":83,"x_max":738,"o":"m 83 -17 l 83 879 l 236 879 l 236 756 l 360 756 l 360 633 l 486 633 l 486 264 l 583 264 l 583 879 l 738 879 l 738 -17 l 583 -17 l 583 107 l 460 107 l 460 231 l 333 231 l 333 600 l 236 600 l 236 -17 l 83 -17 m 365 968 l 365 1032 l 304 1032 l 304 1125 l 393 1125 l 393 1063 l 429 1063 l 429 1125 l 518 1125 l 518 1032 l 456 1032 l 456 968 l 365 968 z "},"Ņ":{"ha":822,"x_min":83,"x_max":738,"o":"m 83 -17 l 83 879 l 236 879 l 236 756 l 360 756 l 360 633 l 486 633 l 486 264 l 583 264 l 583 879 l 738 879 l 738 -17 l 583 -17 l 583 107 l 460 107 l 460 231 l 333 231 l 333 600 l 236 600 l 236 -17 l 83 -17 m 389 -349 l 389 -267 l 431 -267 l 431 -226 l 326 -226 l 326 -69 l 479 -69 l 479 -193 l 540 -193 l 540 -286 l 479 -286 l 479 -349 l 389 -349 z "},"Ñ":{"ha":822,"x_min":83,"x_max":738,"o":"m 83 -17 l 83 879 l 236 879 l 236 756 l 360 756 l 360 633 l 486 633 l 486 264 l 583 264 l 583 879 l 738 879 l 738 -17 l 583 -17 l 583 107 l 460 107 l 460 231 l 333 231 l 333 600 l 236 600 l 236 -17 l 83 -17 m 226 968 l 226 1128 l 449 1128 l 449 1065 l 486 1065 l 486 1128 l 579 1128 l 579 968 l 356 968 l 356 1033 l 318 1033 l 318 968 l 226 968 z "},"Ŋ":{"ha":822,"x_min":83,"x_max":738,"o":"m 333 -337 l 333 -214 l 207 -214 l 207 -61 l 360 -61 l 360 -181 l 583 -181 l 583 107 l 460 107 l 460 231 l 333 231 l 333 600 l 236 600 l 236 -17 l 83 -17 l 83 879 l 236 879 l 236 756 l 360 756 l 360 633 l 486 633 l 486 264 l 583 264 l 583 879 l 738 879 l 738 -214 l 611 -214 l 611 -337 l 333 -337 z "},"O":{"ha":822,"x_min":83,"x_max":738,"o":"m 208 -17 l 208 107 l 83 107 l 83 756 l 208 756 l 208 879 l 611 879 l 611 756 l 738 756 l 738 107 l 611 107 l 611 -17 l 208 -17 m 236 139 l 583 139 l 583 722 l 236 722 l 236 139 z "},"Ó":{"ha":822,"x_min":83,"x_max":738,"o":"m 208 -17 l 208 107 l 83 107 l 83 756 l 208 756 l 208 879 l 611 879 l 611 756 l 738 756 l 738 107 l 611 107 l 611 -17 l 208 -17 m 236 139 l 583 139 l 583 722 l 236 722 l 236 139 m 289 968 l 289 1061 l 351 1061 l 351 1122 l 414 1122 l 414 1186 l 503 1186 l 503 1092 l 442 1092 l 442 1029 l 378 1029 l 378 968 l 289 968 z "},"Ŏ":{"ha":822,"x_min":83,"x_max":738,"o":"m 208 -17 l 208 107 l 83 107 l 83 756 l 208 756 l 208 879 l 611 879 l 611 756 l 738 756 l 738 107 l 611 107 l 611 -17 l 208 -17 m 236 139 l 583 139 l 583 722 l 236 722 l 236 139 m 235 968 l 235 1125 l 324 1125 l 324 1063 l 496 1063 l 496 1125 l 583 1125 l 583 968 l 235 968 z "},"Ô":{"ha":822,"x_min":83,"x_max":738,"o":"m 208 -17 l 208 107 l 83 107 l 83 756 l 208 756 l 208 879 l 611 879 l 611 756 l 738 756 l 738 107 l 611 107 l 611 -17 l 208 -17 m 236 139 l 583 139 l 583 722 l 236 722 l 236 139 m 304 968 l 304 1063 l 365 1063 l 365 1125 l 456 1125 l 456 1063 l 518 1063 l 518 968 l 429 968 l 429 1031 l 393 1031 l 393 968 l 304 968 z "},"Ö":{"ha":822,"x_min":83,"x_max":738,"o":"m 208 -17 l 208 107 l 83 107 l 83 756 l 208 756 l 208 879 l 611 879 l 611 756 l 738 756 l 738 107 l 611 107 l 611 -17 l 208 -17 m 236 139 l 583 139 l 583 722 l 236 722 l 236 139 m 194 965 l 194 1122 l 347 1122 l 347 965 l 194 965 m 488 965 l 488 1122 l 639 1122 l 639 965 l 488 965 z "},"Ò":{"ha":822,"x_min":83,"x_max":738,"o":"m 208 -17 l 208 107 l 83 107 l 83 756 l 208 756 l 208 879 l 611 879 l 611 756 l 738 756 l 738 107 l 611 107 l 611 -17 l 208 -17 m 236 139 l 583 139 l 583 722 l 236 722 l 236 139 m 367 968 l 367 1029 l 304 1029 l 304 1092 l 242 1092 l 242 1186 l 331 1186 l 331 1122 l 394 1122 l 394 1061 l 456 1061 l 456 968 l 367 968 z "},"Ő":{"ha":822,"x_min":83,"x_max":738,"o":"m 208 -17 l 208 107 l 83 107 l 83 756 l 208 756 l 208 879 l 611 879 l 611 756 l 738 756 l 738 107 l 611 107 l 611 -17 l 208 -17 m 236 139 l 583 139 l 583 722 l 236 722 l 236 139 m 510 968 l 510 1029 l 446 1029 l 446 1092 l 385 1092 l 385 1186 l 474 1186 l 474 1122 l 536 1122 l 536 1061 l 599 1061 l 599 968 l 510 968 m 313 968 l 313 1029 l 250 1029 l 250 1092 l 188 1092 l 188 1186 l 276 1186 l 276 1122 l 340 1122 l 340 1061 l 403 1061 l 403 968 l 313 968 z "},"Ō":{"ha":822,"x_min":83,"x_max":738,"o":"m 208 -17 l 208 107 l 83 107 l 83 756 l 208 756 l 208 879 l 611 879 l 611 756 l 738 756 l 738 107 l 611 107 l 611 -17 l 208 -17 m 236 139 l 583 139 l 583 722 l 236 722 l 236 139 m 211 968 l 211 1106 l 614 1106 l 614 968 l 211 968 z "},"Ø":{"ha":856,"x_min":69,"x_max":778,"o":"m 69 -72 l 625 931 l 778 931 l 222 -72 l 69 -72 m 225 -17 l 225 107 l 100 107 l 100 756 l 225 756 l 225 879 l 626 879 l 626 756 l 753 756 l 753 107 l 626 107 l 626 -17 l 225 -17 m 251 139 l 599 139 l 599 722 l 251 722 l 251 139 z "},"Ǿ":{"ha":856,"x_min":69,"x_max":778,"o":"m 69 -72 l 625 931 l 778 931 l 222 -72 l 69 -72 m 225 -17 l 225 107 l 100 107 l 100 756 l 225 756 l 225 879 l 626 879 l 626 756 l 753 756 l 753 107 l 626 107 l 626 -17 l 225 -17 m 251 139 l 599 139 l 599 722 l 251 722 l 251 139 m 307 1060 l 307 1153 l 369 1153 l 369 1214 l 432 1214 l 432 1278 l 521 1278 l 521 1183 l 460 1183 l 460 1121 l 396 1121 l 396 1060 l 307 1060 z "},"Õ":{"ha":822,"x_min":83,"x_max":738,"o":"m 208 -17 l 208 107 l 83 107 l 83 756 l 208 756 l 208 879 l 611 879 l 611 756 l 738 756 l 738 107 l 611 107 l 611 -17 l 208 -17 m 236 139 l 583 139 l 583 722 l 236 722 l 236 139 m 226 968 l 226 1128 l 449 1128 l 449 1065 l 486 1065 l 486 1128 l 579 1128 l 579 968 l 356 968 l 356 1033 l 318 1033 l 318 968 l 226 968 z "},"Œ":{"ha":1321,"x_min":83,"x_max":1236,"o":"m 208 -17 l 208 107 l 83 107 l 83 756 l 208 756 l 208 879 l 611 879 l 611 756 l 710 756 l 710 879 l 1111 879 l 1111 756 l 1236 756 l 1236 600 l 1085 600 l 1085 722 l 738 722 l 738 508 l 986 508 l 986 354 l 738 354 l 738 139 l 1085 139 l 1085 264 l 1236 264 l 1236 107 l 1111 107 l 1111 -17 l 710 -17 l 710 107 l 611 107 l 611 -17 l 208 -17 m 236 139 l 583 139 l 583 722 l 236 722 l 236 139 z "},"P":{"ha":822,"x_min":83,"x_max":738,"o":"m 83 -17 l 83 756 l 208 756 l 208 879 l 611 879 l 611 756 l 738 756 l 738 354 l 611 354 l 611 231 l 236 231 l 236 -17 l 83 -17 m 236 388 l 583 388 l 583 722 l 236 722 l 236 388 z "},"Þ":{"ha":822,"x_min":83,"x_max":738,"o":"m 83 -17 l 83 879 l 236 879 l 236 740 l 611 740 l 611 617 l 738 617 l 738 214 l 611 214 l 611 92 l 236 92 l 236 -17 l 83 -17 m 236 247 l 583 247 l 583 585 l 236 585 l 236 247 z "},"Q":{"ha":822,"x_min":83,"x_max":738,"o":"m 460 -261 l 460 -140 l 333 -140 l 333 -17 l 208 -17 l 208 107 l 83 107 l 83 756 l 208 756 l 208 879 l 611 879 l 611 756 l 738 756 l 738 107 l 611 107 l 611 -17 l 486 -17 l 486 -107 l 611 -107 l 611 -261 l 460 -261 m 236 139 l 583 139 l 583 722 l 236 722 l 236 139 z "},"R":{"ha":822,"x_min":83,"x_max":738,"o":"m 83 -17 l 83 756 l 208 756 l 208 879 l 611 879 l 611 756 l 738 756 l 738 354 l 611 354 l 611 231 l 550 231 l 550 139 l 674 139 l 674 -17 l 522 -17 l 522 107 l 396 107 l 396 231 l 236 231 l 236 -17 l 83 -17 m 236 388 l 583 388 l 583 722 l 236 722 l 236 388 z "},"Ŕ":{"ha":822,"x_min":83,"x_max":738,"o":"m 83 -17 l 83 756 l 208 756 l 208 879 l 611 879 l 611 756 l 738 756 l 738 354 l 611 354 l 611 231 l 550 231 l 550 139 l 674 139 l 674 -17 l 522 -17 l 522 107 l 396 107 l 396 231 l 236 231 l 236 -17 l 83 -17 m 236 388 l 583 388 l 583 722 l 236 722 l 236 388 m 289 968 l 289 1061 l 351 1061 l 351 1122 l 414 1122 l 414 1186 l 503 1186 l 503 1092 l 442 1092 l 442 1029 l 378 1029 l 378 968 l 289 968 z "},"Ř":{"ha":822,"x_min":83,"x_max":738,"o":"m 83 -17 l 83 756 l 208 756 l 208 879 l 611 879 l 611 756 l 738 756 l 738 354 l 611 354 l 611 231 l 550 231 l 550 139 l 674 139 l 674 -17 l 522 -17 l 522 107 l 396 107 l 396 231 l 236 231 l 236 -17 l 83 -17 m 236 388 l 583 388 l 583 722 l 236 722 l 236 388 m 365 968 l 365 1032 l 304 1032 l 304 1125 l 393 1125 l 393 1063 l 429 1063 l 429 1125 l 518 1125 l 518 1032 l 456 1032 l 456 968 l 365 968 z "},"Ŗ":{"ha":822,"x_min":83,"x_max":738,"o":"m 83 -17 l 83 756 l 208 756 l 208 879 l 611 879 l 611 756 l 738 756 l 738 354 l 611 354 l 611 231 l 550 231 l 550 139 l 674 139 l 674 -17 l 522 -17 l 522 107 l 396 107 l 396 231 l 236 231 l 236 -17 l 83 -17 m 236 388 l 583 388 l 583 722 l 236 722 l 236 388 m 389 -349 l 389 -267 l 431 -267 l 431 -226 l 326 -226 l 326 -69 l 479 -69 l 479 -193 l 540 -193 l 540 -286 l 479 -286 l 479 -349 l 389 -349 z "},"S":{"ha":822,"x_min":83,"x_max":738,"o":"m 208 -17 l 208 107 l 83 107 l 83 264 l 236 264 l 236 139 l 583 139 l 583 354 l 208 354 l 208 478 l 83 478 l 83 756 l 208 756 l 208 879 l 611 879 l 611 756 l 738 756 l 738 600 l 583 600 l 583 722 l 236 722 l 236 508 l 611 508 l 611 388 l 738 388 l 738 107 l 611 107 l 611 -17 l 208 -17 z "},"Ś":{"ha":822,"x_min":83,"x_max":738,"o":"m 208 -17 l 208 107 l 83 107 l 83 264 l 236 264 l 236 139 l 583 139 l 583 354 l 208 354 l 208 478 l 83 478 l 83 756 l 208 756 l 208 879 l 611 879 l 611 756 l 738 756 l 738 600 l 583 600 l 583 722 l 236 722 l 236 508 l 611 508 l 611 388 l 738 388 l 738 107 l 611 107 l 611 -17 l 208 -17 m 289 968 l 289 1061 l 351 1061 l 351 1122 l 414 1122 l 414 1186 l 503 1186 l 503 1092 l 442 1092 l 442 1029 l 378 1029 l 378 968 l 289 968 z "},"Š":{"ha":822,"x_min":83,"x_max":738,"o":"m 208 -17 l 208 107 l 83 107 l 83 264 l 236 264 l 236 139 l 583 139 l 583 354 l 208 354 l 208 478 l 83 478 l 83 756 l 208 756 l 208 879 l 611 879 l 611 756 l 738 756 l 738 600 l 583 600 l 583 722 l 236 722 l 236 508 l 611 508 l 611 388 l 738 388 l 738 107 l 611 107 l 611 -17 l 208 -17 m 365 968 l 365 1032 l 304 1032 l 304 1125 l 393 1125 l 393 1063 l 429 1063 l 429 1125 l 518 1125 l 518 1032 l 456 1032 l 456 968 l 365 968 z "},"Ş":{"ha":822,"x_min":83,"x_max":738,"o":"m 208 -17 l 208 107 l 83 107 l 83 264 l 236 264 l 236 139 l 583 139 l 583 354 l 208 354 l 208 478 l 83 478 l 83 756 l 208 756 l 208 879 l 611 879 l 611 756 l 738 756 l 738 600 l 583 600 l 583 722 l 236 722 l 236 508 l 611 508 l 611 388 l 738 388 l 738 107 l 611 107 l 611 -17 l 208 -17 m 296 -272 l 296 -211 l 232 -211 l 232 -117 l 322 -117 l 322 -178 l 463 -178 l 463 -140 l 419 -137 l 419 -89 l 357 -89 l 357 44 l 467 44 l 467 -75 l 531 -75 l 531 -135 l 572 -143 l 572 -211 l 510 -211 l 510 -272 l 296 -272 z "},"Ŝ":{"ha":822,"x_min":83,"x_max":738,"o":"m 208 -17 l 208 107 l 83 107 l 83 264 l 236 264 l 236 139 l 583 139 l 583 354 l 208 354 l 208 478 l 83 478 l 83 756 l 208 756 l 208 879 l 611 879 l 611 756 l 738 756 l 738 600 l 583 600 l 583 722 l 236 722 l 236 508 l 611 508 l 611 388 l 738 388 l 738 107 l 611 107 l 611 -17 l 208 -17 m 304 968 l 304 1063 l 365 1063 l 365 1125 l 456 1125 l 456 1063 l 518 1063 l 518 968 l 429 968 l 429 1031 l 393 1031 l 393 968 l 304 968 z "},"Ș":{"ha":822,"x_min":83,"x_max":738,"o":"m 208 -17 l 208 107 l 83 107 l 83 264 l 236 264 l 236 139 l 583 139 l 583 354 l 208 354 l 208 478 l 83 478 l 83 756 l 208 756 l 208 879 l 611 879 l 611 756 l 738 756 l 738 600 l 583 600 l 583 722 l 236 722 l 236 508 l 611 508 l 611 388 l 738 388 l 738 107 l 611 107 l 611 -17 l 208 -17 m 389 -349 l 389 -267 l 431 -267 l 431 -226 l 326 -226 l 326 -69 l 479 -69 l 479 -193 l 540 -193 l 540 -286 l 479 -286 l 479 -349 l 389 -349 z "},"ẞ":{"ha":918,"x_min":83,"x_max":835,"o":"m 306 -17 l 306 139 l 681 139 l 681 354 l 444 354 l 444 508 l 681 508 l 681 722 l 167 722 l 167 879 l 708 879 l 708 756 l 835 756 l 835 478 l 708 478 l 708 388 l 835 388 l 835 107 l 708 107 l 708 -17 l 306 -17 m 83 -17 l 83 879 l 236 879 l 236 -17 l 83 -17 z "},"T":{"ha":822,"x_min":83,"x_max":738,"o":"m 333 -17 l 333 722 l 236 722 l 236 600 l 83 600 l 83 756 l 208 756 l 208 879 l 611 879 l 611 756 l 738 756 l 738 600 l 583 600 l 583 722 l 486 722 l 486 -17 l 333 -17 z "},"Ŧ":{"ha":832,"x_min":83,"x_max":740,"o":"m 333 -17 l 333 385 l 210 385 l 210 533 l 333 533 l 333 729 l 236 729 l 236 604 l 83 604 l 83 753 l 210 753 l 210 878 l 613 878 l 613 753 l 740 753 l 740 604 l 585 604 l 585 729 l 489 729 l 489 533 l 613 533 l 613 385 l 489 385 l 489 -17 l 333 -17 z "},"Ť":{"ha":822,"x_min":83,"x_max":738,"o":"m 333 -17 l 333 722 l 236 722 l 236 600 l 83 600 l 83 756 l 208 756 l 208 879 l 611 879 l 611 756 l 738 756 l 738 600 l 583 600 l 583 722 l 486 722 l 486 -17 l 333 -17 m 365 968 l 365 1032 l 304 1032 l 304 1125 l 393 1125 l 393 1063 l 429 1063 l 429 1125 l 518 1125 l 518 1032 l 456 1032 l 456 968 l 365 968 z "},"Ţ":{"ha":822,"x_min":83,"x_max":738,"o":"m 333 -17 l 333 722 l 236 722 l 236 600 l 83 600 l 83 756 l 208 756 l 208 879 l 611 879 l 611 756 l 738 756 l 738 600 l 583 600 l 583 722 l 486 722 l 486 -17 l 333 -17 m 296 -272 l 296 -211 l 232 -211 l 232 -117 l 322 -117 l 322 -178 l 463 -178 l 463 -140 l 419 -137 l 419 -89 l 357 -89 l 357 44 l 467 44 l 467 -75 l 531 -75 l 531 -135 l 572 -143 l 572 -211 l 510 -211 l 510 -272 l 296 -272 z "},"Ț":{"ha":822,"x_min":83,"x_max":738,"o":"m 333 -17 l 333 722 l 236 722 l 236 600 l 83 600 l 83 756 l 208 756 l 208 879 l 611 879 l 611 756 l 738 756 l 738 600 l 583 600 l 583 722 l 486 722 l 486 -17 l 333 -17 m 389 -349 l 389 -267 l 431 -267 l 431 -226 l 326 -226 l 326 -69 l 479 -69 l 479 -193 l 540 -193 l 540 -286 l 479 -286 l 479 -349 l 389 -349 z "},"U":{"ha":822,"x_min":83,"x_max":738,"o":"m 208 -17 l 208 107 l 83 107 l 83 879 l 236 879 l 236 139 l 583 139 l 583 879 l 738 879 l 738 107 l 611 107 l 611 -17 l 208 -17 z "},"Ú":{"ha":822,"x_min":83,"x_max":738,"o":"m 208 -17 l 208 107 l 83 107 l 83 879 l 236 879 l 236 139 l 583 139 l 583 879 l 738 879 l 738 107 l 611 107 l 611 -17 l 208 -17 m 289 968 l 289 1061 l 351 1061 l 351 1122 l 414 1122 l 414 1186 l 503 1186 l 503 1092 l 442 1092 l 442 1029 l 378 1029 l 378 968 l 289 968 z "},"Ŭ":{"ha":822,"x_min":83,"x_max":738,"o":"m 208 -17 l 208 107 l 83 107 l 83 879 l 236 879 l 236 139 l 583 139 l 583 879 l 738 879 l 738 107 l 611 107 l 611 -17 l 208 -17 m 235 968 l 235 1125 l 324 1125 l 324 1063 l 496 1063 l 496 1125 l 583 1125 l 583 968 l 235 968 z "},"Û":{"ha":822,"x_min":83,"x_max":738,"o":"m 208 -17 l 208 107 l 83 107 l 83 879 l 236 879 l 236 139 l 583 139 l 583 879 l 738 879 l 738 107 l 611 107 l 611 -17 l 208 -17 m 304 968 l 304 1063 l 365 1063 l 365 1125 l 456 1125 l 456 1063 l 518 1063 l 518 968 l 429 968 l 429 1031 l 393 1031 l 393 968 l 304 968 z "},"Ü":{"ha":822,"x_min":83,"x_max":738,"o":"m 208 -17 l 208 107 l 83 107 l 83 879 l 236 879 l 236 139 l 583 139 l 583 879 l 738 879 l 738 107 l 611 107 l 611 -17 l 208 -17 m 194 965 l 194 1122 l 347 1122 l 347 965 l 194 965 m 488 965 l 488 1122 l 639 1122 l 639 965 l 488 965 z "},"Ù":{"ha":822,"x_min":83,"x_max":738,"o":"m 208 -17 l 208 107 l 83 107 l 83 879 l 236 879 l 236 139 l 583 139 l 583 879 l 738 879 l 738 107 l 611 107 l 611 -17 l 208 -17 m 367 968 l 367 1029 l 304 1029 l 304 1092 l 242 1092 l 242 1186 l 331 1186 l 331 1122 l 394 1122 l 394 1061 l 456 1061 l 456 968 l 367 968 z "},"Ű":{"ha":822,"x_min":83,"x_max":738,"o":"m 208 -17 l 208 107 l 83 107 l 83 879 l 236 879 l 236 139 l 583 139 l 583 879 l 738 879 l 738 107 l 611 107 l 611 -17 l 208 -17 m 510 968 l 510 1029 l 446 1029 l 446 1092 l 385 1092 l 385 1186 l 474 1186 l 474 1122 l 536 1122 l 536 1061 l 599 1061 l 599 968 l 510 968 m 313 968 l 313 1029 l 250 1029 l 250 1092 l 188 1092 l 188 1186 l 276 1186 l 276 1122 l 340 1122 l 340 1061 l 403 1061 l 403 968 l 313 968 z "},"Ū":{"ha":822,"x_min":83,"x_max":738,"o":"m 208 -17 l 208 107 l 83 107 l 83 879 l 236 879 l 236 139 l 583 139 l 583 879 l 738 879 l 738 107 l 611 107 l 611 -17 l 208 -17 m 211 968 l 211 1106 l 614 1106 l 614 968 l 211 968 z "},"Ų":{"ha":822,"x_min":83,"x_max":738,"o":"m 208 -17 l 208 107 l 83 107 l 83 879 l 236 879 l 236 139 l 583 139 l 583 879 l 738 879 l 738 107 l 611 107 l 611 -17 l 208 -17 m 310 -289 l 310 -228 l 246 -228 l 246 -133 l 310 -133 l 310 -82 l 351 -82 l 351 36 l 461 36 l 461 -106 l 399 -106 l 399 -151 l 357 -154 l 357 -194 l 497 -194 l 497 -133 l 586 -133 l 586 -228 l 524 -228 l 524 -289 l 310 -289 z "},"Ů":{"ha":822,"x_min":83,"x_max":738,"o":"m 208 -17 l 208 107 l 83 107 l 83 879 l 236 879 l 236 139 l 583 139 l 583 879 l 738 879 l 738 107 l 611 107 l 611 -17 l 208 -17 m 333 969 l 333 1126 l 485 1126 l 485 969 l 333 969 m 379 1015 l 439 1015 l 439 1081 l 379 1081 l 379 1015 z "},"Ũ":{"ha":822,"x_min":83,"x_max":738,"o":"m 208 -17 l 208 107 l 83 107 l 83 879 l 236 879 l 236 139 l 583 139 l 583 879 l 738 879 l 738 107 l 611 107 l 611 -17 l 208 -17 m 226 968 l 226 1128 l 449 1128 l 449 1065 l 486 1065 l 486 1128 l 579 1128 l 579 968 l 356 968 l 356 1033 l 318 1033 l 318 968 l 226 968 z "},"V":{"ha":822,"x_min":83,"x_max":738,"o":"m 333 -17 l 333 107 l 208 107 l 208 354 l 83 354 l 83 879 l 236 879 l 236 388 l 360 388 l 360 139 l 460 139 l 460 388 l 583 388 l 583 879 l 738 879 l 738 354 l 611 354 l 611 107 l 486 107 l 486 -17 l 333 -17 z "},"W":{"ha":1071,"x_min":83,"x_max":986,"o":"m 208 -17 l 208 107 l 83 107 l 83 879 l 236 879 l 236 139 l 333 139 l 333 388 l 460 388 l 460 756 l 611 756 l 611 388 l 738 388 l 738 139 l 835 139 l 835 879 l 986 879 l 986 107 l 863 107 l 863 -17 l 710 -17 l 710 107 l 583 107 l 583 354 l 486 354 l 486 107 l 360 107 l 360 -17 l 208 -17 z "},"Ẃ":{"ha":1071,"x_min":83,"x_max":986,"o":"m 208 -17 l 208 107 l 83 107 l 83 879 l 236 879 l 236 139 l 333 139 l 333 388 l 460 388 l 460 756 l 611 756 l 611 388 l 738 388 l 738 139 l 835 139 l 835 879 l 986 879 l 986 107 l 863 107 l 863 -17 l 710 -17 l 710 107 l 583 107 l 583 354 l 486 354 l 486 107 l 360 107 l 360 -17 l 208 -17 m 414 968 l 414 1061 l 476 1061 l 476 1122 l 539 1122 l 539 1186 l 628 1186 l 628 1092 l 567 1092 l 567 1029 l 503 1029 l 503 968 l 414 968 z "},"Ŵ":{"ha":1071,"x_min":83,"x_max":986,"o":"m 208 -17 l 208 107 l 83 107 l 83 879 l 236 879 l 236 139 l 333 139 l 333 388 l 460 388 l 460 756 l 611 756 l 611 388 l 738 388 l 738 139 l 835 139 l 835 879 l 986 879 l 986 107 l 863 107 l 863 -17 l 710 -17 l 710 107 l 583 107 l 583 354 l 486 354 l 486 107 l 360 107 l 360 -17 l 208 -17 m 429 968 l 429 1063 l 490 1063 l 490 1125 l 581 1125 l 581 1063 l 643 1063 l 643 968 l 554 968 l 554 1031 l 518 1031 l 518 968 l 429 968 z "},"Ẅ":{"ha":1071,"x_min":83,"x_max":986,"o":"m 208 -17 l 208 107 l 83 107 l 83 879 l 236 879 l 236 139 l 333 139 l 333 388 l 460 388 l 460 756 l 611 756 l 611 388 l 738 388 l 738 139 l 835 139 l 835 879 l 986 879 l 986 107 l 863 107 l 863 -17 l 710 -17 l 710 107 l 583 107 l 583 354 l 486 354 l 486 107 l 360 107 l 360 -17 l 208 -17 m 319 965 l 319 1122 l 472 1122 l 472 965 l 319 965 m 613 965 l 613 1122 l 764 1122 l 764 965 l 613 965 z "},"Ẁ":{"ha":1071,"x_min":83,"x_max":986,"o":"m 208 -17 l 208 107 l 83 107 l 83 879 l 236 879 l 236 139 l 333 139 l 333 388 l 460 388 l 460 756 l 611 756 l 611 388 l 738 388 l 738 139 l 835 139 l 835 879 l 986 879 l 986 107 l 863 107 l 863 -17 l 710 -17 l 710 107 l 583 107 l 583 354 l 486 354 l 486 107 l 360 107 l 360 -17 l 208 -17 m 492 968 l 492 1029 l 429 1029 l 429 1092 l 367 1092 l 367 1186 l 456 1186 l 456 1122 l 519 1122 l 519 1061 l 581 1061 l 581 968 l 492 968 z "},"X":{"ha":822,"x_min":83,"x_max":738,"o":"m 83 -17 l 83 139 l 208 139 l 208 388 l 333 388 l 333 478 l 208 478 l 208 722 l 83 722 l 83 879 l 236 879 l 236 756 l 360 756 l 360 508 l 460 508 l 460 756 l 583 756 l 583 879 l 738 879 l 738 722 l 611 722 l 611 478 l 486 478 l 486 388 l 611 388 l 611 139 l 738 139 l 738 -17 l 583 -17 l 583 107 l 460 107 l 460 354 l 360 354 l 360 107 l 236 107 l 236 -17 l 83 -17 z "},"Y":{"ha":822,"x_min":83,"x_max":738,"o":"m 333 -17 l 333 478 l 208 478 l 208 600 l 83 600 l 83 879 l 236 879 l 236 633 l 360 633 l 360 508 l 460 508 l 460 633 l 583 633 l 583 879 l 738 879 l 738 600 l 611 600 l 611 478 l 486 478 l 486 -17 l 333 -17 z "},"Ý":{"ha":822,"x_min":83,"x_max":738,"o":"m 333 -17 l 333 478 l 208 478 l 208 600 l 83 600 l 83 879 l 236 879 l 236 633 l 360 633 l 360 508 l 460 508 l 460 633 l 583 633 l 583 879 l 738 879 l 738 600 l 611 600 l 611 478 l 486 478 l 486 -17 l 333 -17 m 289 968 l 289 1061 l 351 1061 l 351 1122 l 414 1122 l 414 1186 l 503 1186 l 503 1092 l 442 1092 l 442 1029 l 378 1029 l 378 968 l 289 968 z "},"Ŷ":{"ha":822,"x_min":83,"x_max":738,"o":"m 333 -17 l 333 478 l 208 478 l 208 600 l 83 600 l 83 879 l 236 879 l 236 633 l 360 633 l 360 508 l 460 508 l 460 633 l 583 633 l 583 879 l 738 879 l 738 600 l 611 600 l 611 478 l 486 478 l 486 -17 l 333 -17 m 304 968 l 304 1063 l 365 1063 l 365 1125 l 456 1125 l 456 1063 l 518 1063 l 518 968 l 429 968 l 429 1031 l 393 1031 l 393 968 l 304 968 z "},"Ÿ":{"ha":822,"x_min":83,"x_max":738,"o":"m 333 -17 l 333 478 l 208 478 l 208 600 l 83 600 l 83 879 l 236 879 l 236 633 l 360 633 l 360 508 l 460 508 l 460 633 l 583 633 l 583 879 l 738 879 l 738 600 l 611 600 l 611 478 l 486 478 l 486 -17 l 333 -17 m 194 965 l 194 1122 l 347 1122 l 347 965 l 194 965 m 488 965 l 488 1122 l 639 1122 l 639 965 l 488 965 z "},"Ỳ":{"ha":822,"x_min":83,"x_max":738,"o":"m 333 -17 l 333 478 l 208 478 l 208 600 l 83 600 l 83 879 l 236 879 l 236 633 l 360 633 l 360 508 l 460 508 l 460 633 l 583 633 l 583 879 l 738 879 l 738 600 l 611 600 l 611 478 l 486 478 l 486 -17 l 333 -17 m 367 968 l 367 1029 l 304 1029 l 304 1092 l 242 1092 l 242 1186 l 331 1186 l 331 1122 l 394 1122 l 394 1061 l 456 1061 l 456 968 l 367 968 z "},"Z":{"ha":822,"x_min":83,"x_max":738,"o":"m 208 -17 l 208 107 l 83 107 l 83 388 l 208 388 l 208 508 l 583 508 l 583 722 l 236 722 l 236 600 l 83 600 l 83 879 l 611 879 l 611 756 l 738 756 l 738 478 l 611 478 l 611 354 l 236 354 l 236 139 l 583 139 l 583 264 l 738 264 l 738 -17 l 208 -17 z "},"Ź":{"ha":822,"x_min":83,"x_max":738,"o":"m 208 -17 l 208 107 l 83 107 l 83 388 l 208 388 l 208 508 l 583 508 l 583 722 l 236 722 l 236 600 l 83 600 l 83 879 l 611 879 l 611 756 l 738 756 l 738 478 l 611 478 l 611 354 l 236 354 l 236 139 l 583 139 l 583 264 l 738 264 l 738 -17 l 208 -17 m 289 968 l 289 1061 l 351 1061 l 351 1122 l 414 1122 l 414 1186 l 503 1186 l 503 1092 l 442 1092 l 442 1029 l 378 1029 l 378 968 l 289 968 z "},"Ž":{"ha":822,"x_min":83,"x_max":738,"o":"m 208 -17 l 208 107 l 83 107 l 83 388 l 208 388 l 208 508 l 583 508 l 583 722 l 236 722 l 236 600 l 83 600 l 83 879 l 611 879 l 611 756 l 738 756 l 738 478 l 611 478 l 611 354 l 236 354 l 236 139 l 583 139 l 583 264 l 738 264 l 738 -17 l 208 -17 m 365 968 l 365 1032 l 304 1032 l 304 1125 l 393 1125 l 393 1063 l 429 1063 l 429 1125 l 518 1125 l 518 1032 l 456 1032 l 456 968 l 365 968 z "},"Ż":{"ha":822,"x_min":83,"x_max":738,"o":"m 208 -17 l 208 107 l 83 107 l 83 388 l 208 388 l 208 508 l 583 508 l 583 722 l 236 722 l 236 600 l 83 600 l 83 879 l 611 879 l 611 756 l 738 756 l 738 478 l 611 478 l 611 354 l 236 354 l 236 139 l 583 139 l 583 264 l 738 264 l 738 -17 l 208 -17 m 335 969 l 335 1126 l 488 1126 l 488 969 l 335 969 z "},"a":{"ha":947,"x_min":83,"x_max":863,"o":"m 208 -17 l 208 107 l 83 107 l 83 508 l 208 508 l 208 633 l 611 633 l 611 508 l 738 508 l 738 139 l 863 139 l 863 -17 l 710 -17 l 710 107 l 611 107 l 611 -17 l 208 -17 m 236 139 l 583 139 l 583 478 l 236 478 l 236 139 z "},"á":{"ha":947,"x_min":83,"x_max":863,"o":"m 208 -17 l 208 107 l 83 107 l 83 508 l 208 508 l 208 633 l 611 633 l 611 508 l 738 508 l 738 139 l 863 139 l 863 -17 l 710 -17 l 710 107 l 611 107 l 611 -17 l 208 -17 m 236 139 l 583 139 l 583 478 l 236 478 l 236 139 m 297 721 l 297 814 l 360 814 l 360 875 l 422 875 l 422 939 l 511 939 l 511 844 l 450 844 l 450 782 l 386 782 l 386 721 l 297 721 z "},"ă":{"ha":947,"x_min":83,"x_max":863,"o":"m 208 -17 l 208 107 l 83 107 l 83 508 l 208 508 l 208 633 l 611 633 l 611 508 l 738 508 l 738 139 l 863 139 l 863 -17 l 710 -17 l 710 107 l 611 107 l 611 -17 l 208 -17 m 236 139 l 583 139 l 583 478 l 236 478 l 236 139 m 243 721 l 243 878 l 332 878 l 332 815 l 504 815 l 504 878 l 592 878 l 592 721 l 243 721 z "},"â":{"ha":947,"x_min":83,"x_max":863,"o":"m 208 -17 l 208 107 l 83 107 l 83 508 l 208 508 l 208 633 l 611 633 l 611 508 l 738 508 l 738 139 l 863 139 l 863 -17 l 710 -17 l 710 107 l 611 107 l 611 -17 l 208 -17 m 236 139 l 583 139 l 583 478 l 236 478 l 236 139 m 313 721 l 313 815 l 374 815 l 374 878 l 464 878 l 464 815 l 526 815 l 526 721 l 438 721 l 438 783 l 401 783 l 401 721 l 313 721 z "},"ä":{"ha":947,"x_min":83,"x_max":863,"o":"m 208 -17 l 208 107 l 83 107 l 83 508 l 208 508 l 208 633 l 611 633 l 611 508 l 738 508 l 738 139 l 863 139 l 863 -17 l 710 -17 l 710 107 l 611 107 l 611 -17 l 208 -17 m 236 139 l 583 139 l 583 478 l 236 478 l 236 139 m 203 718 l 203 875 l 356 875 l 356 718 l 203 718 m 496 718 l 496 875 l 647 875 l 647 718 l 496 718 z "},"à":{"ha":947,"x_min":83,"x_max":863,"o":"m 208 -17 l 208 107 l 83 107 l 83 508 l 208 508 l 208 633 l 611 633 l 611 508 l 738 508 l 738 139 l 863 139 l 863 -17 l 710 -17 l 710 107 l 611 107 l 611 -17 l 208 -17 m 236 139 l 583 139 l 583 478 l 236 478 l 236 139 m 375 721 l 375 782 l 313 782 l 313 844 l 250 844 l 250 939 l 339 939 l 339 875 l 403 875 l 403 814 l 464 814 l 464 721 l 375 721 z "},"ā":{"ha":947,"x_min":83,"x_max":863,"o":"m 208 -17 l 208 107 l 83 107 l 83 508 l 208 508 l 208 633 l 611 633 l 611 508 l 738 508 l 738 139 l 863 139 l 863 -17 l 710 -17 l 710 107 l 611 107 l 611 -17 l 208 -17 m 236 139 l 583 139 l 583 478 l 236 478 l 236 139 m 219 721 l 219 858 l 622 858 l 622 721 l 219 721 z "},"ą":{"ha":947,"x_min":83,"x_max":967,"o":"m 208 -17 l 208 107 l 83 107 l 83 508 l 208 508 l 208 633 l 611 633 l 611 508 l 738 508 l 738 139 l 863 139 l 863 -17 l 710 -17 l 710 107 l 611 107 l 611 -17 l 208 -17 m 236 139 l 583 139 l 583 478 l 236 478 l 236 139 m 690 -272 l 690 -211 l 626 -211 l 626 -117 l 690 -117 l 690 -65 l 732 -65 l 732 53 l 842 53 l 842 -89 l 779 -89 l 779 -135 l 738 -137 l 738 -178 l 878 -178 l 878 -117 l 967 -117 l 967 -211 l 904 -211 l 904 -272 l 690 -272 z "},"å":{"ha":947,"x_min":83,"x_max":863,"o":"m 208 -17 l 208 107 l 83 107 l 83 508 l 208 508 l 208 633 l 611 633 l 611 508 l 738 508 l 738 139 l 863 139 l 863 -17 l 710 -17 l 710 107 l 611 107 l 611 -17 l 208 -17 m 236 139 l 583 139 l 583 478 l 236 478 l 236 139 m 342 722 l 342 879 l 493 879 l 493 722 l 342 722 m 388 768 l 447 768 l 447 833 l 388 833 l 388 768 z "},"ã":{"ha":947,"x_min":83,"x_max":863,"o":"m 208 -17 l 208 107 l 83 107 l 83 508 l 208 508 l 208 633 l 611 633 l 611 508 l 738 508 l 738 139 l 863 139 l 863 -17 l 710 -17 l 710 107 l 611 107 l 611 -17 l 208 -17 m 236 139 l 583 139 l 583 478 l 236 478 l 236 139 m 235 721 l 235 881 l 457 881 l 457 818 l 494 818 l 494 881 l 588 881 l 588 721 l 364 721 l 364 786 l 326 786 l 326 721 l 235 721 z "},"æ":{"ha":1574,"x_min":83,"x_max":1489,"o":"m 208 -17 l 208 107 l 83 107 l 83 508 l 208 508 l 208 633 l 611 633 l 611 508 l 738 508 l 738 139 l 835 139 l 835 508 l 961 508 l 961 633 l 1363 633 l 1363 508 l 1489 508 l 1489 354 l 1336 354 l 1336 478 l 988 478 l 988 388 l 1238 388 l 1238 231 l 988 231 l 988 139 l 1336 139 l 1336 265 l 1489 265 l 1489 108 l 1363 108 l 1363 -17 l 961 -17 l 961 107 l 863 107 l 863 -17 l 710 -17 l 710 107 l 611 107 l 611 -17 l 208 -17 m 236 139 l 583 139 l 583 478 l 236 478 l 236 139 z "},"ǽ":{"ha":1574,"x_min":83,"x_max":1489,"o":"m 208 -17 l 208 107 l 83 107 l 83 508 l 208 508 l 208 633 l 611 633 l 611 508 l 738 508 l 738 139 l 835 139 l 835 508 l 961 508 l 961 633 l 1363 633 l 1363 508 l 1489 508 l 1489 354 l 1336 354 l 1336 478 l 988 478 l 988 388 l 1238 388 l 1238 231 l 988 231 l 988 139 l 1336 139 l 1336 265 l 1489 265 l 1489 108 l 1363 108 l 1363 -17 l 961 -17 l 961 107 l 863 107 l 863 -17 l 710 -17 l 710 107 l 611 107 l 611 -17 l 208 -17 m 236 139 l 583 139 l 583 478 l 236 478 l 236 139 m 742 721 l 742 814 l 804 814 l 804 875 l 867 875 l 867 939 l 956 939 l 956 844 l 894 844 l 894 782 l 831 782 l 831 721 l 742 721 z "},"b":{"ha":822,"x_min":83,"x_max":738,"o":"m 208 -17 l 208 107 l 83 107 l 83 879 l 236 879 l 236 633 l 611 633 l 611 508 l 738 508 l 738 107 l 611 107 l 611 -17 l 208 -17 m 236 139 l 583 139 l 583 478 l 236 478 l 236 139 z "},"c":{"ha":822,"x_min":83,"x_max":738,"o":"m 208 -17 l 208 107 l 83 107 l 83 508 l 208 508 l 208 633 l 611 633 l 611 508 l 738 508 l 738 354 l 583 354 l 583 478 l 236 478 l 236 139 l 583 139 l 583 264 l 738 264 l 738 107 l 611 107 l 611 -17 l 208 -17 z "},"ć":{"ha":822,"x_min":83,"x_max":738,"o":"m 208 -17 l 208 107 l 83 107 l 83 508 l 208 508 l 208 633 l 611 633 l 611 508 l 738 508 l 738 354 l 583 354 l 583 478 l 236 478 l 236 139 l 583 139 l 583 264 l 738 264 l 738 107 l 611 107 l 611 -17 l 208 -17 m 289 721 l 289 814 l 351 814 l 351 875 l 414 875 l 414 939 l 503 939 l 503 844 l 442 844 l 442 782 l 378 782 l 378 721 l 289 721 z "},"č":{"ha":822,"x_min":83,"x_max":738,"o":"m 208 -17 l 208 107 l 83 107 l 83 508 l 208 508 l 208 633 l 611 633 l 611 508 l 738 508 l 738 354 l 583 354 l 583 478 l 236 478 l 236 139 l 583 139 l 583 264 l 738 264 l 738 107 l 611 107 l 611 -17 l 208 -17 m 365 721 l 365 785 l 304 785 l 304 878 l 393 878 l 393 815 l 429 815 l 429 878 l 518 878 l 518 785 l 456 785 l 456 721 l 365 721 z "},"ç":{"ha":822,"x_min":83,"x_max":738,"o":"m 208 -17 l 208 107 l 83 107 l 83 508 l 208 508 l 208 633 l 611 633 l 611 508 l 738 508 l 738 354 l 583 354 l 583 478 l 236 478 l 236 139 l 583 139 l 583 264 l 738 264 l 738 107 l 611 107 l 611 -17 l 208 -17 m 296 -272 l 296 -211 l 232 -211 l 232 -117 l 322 -117 l 322 -178 l 463 -178 l 463 -140 l 419 -137 l 419 -89 l 357 -89 l 357 44 l 467 44 l 467 -75 l 531 -75 l 531 -135 l 572 -143 l 572 -211 l 510 -211 l 510 -272 l 296 -272 z "},"ĉ":{"ha":822,"x_min":83,"x_max":738,"o":"m 208 -17 l 208 107 l 83 107 l 83 508 l 208 508 l 208 633 l 611 633 l 611 508 l 738 508 l 738 354 l 583 354 l 583 478 l 236 478 l 236 139 l 583 139 l 583 264 l 738 264 l 738 107 l 611 107 l 611 -17 l 208 -17 m 304 721 l 304 815 l 365 815 l 365 878 l 456 878 l 456 815 l 518 815 l 518 721 l 429 721 l 429 783 l 393 783 l 393 721 l 304 721 z "},"ċ":{"ha":822,"x_min":83,"x_max":738,"o":"m 208 -17 l 208 107 l 83 107 l 83 508 l 208 508 l 208 633 l 611 633 l 611 508 l 738 508 l 738 354 l 583 354 l 583 478 l 236 478 l 236 139 l 583 139 l 583 264 l 738 264 l 738 107 l 611 107 l 611 -17 l 208 -17 m 335 722 l 335 879 l 488 879 l 488 722 l 335 722 z "},"d":{"ha":822,"x_min":83,"x_max":738,"o":"m 208 -17 l 208 107 l 83 107 l 83 508 l 208 508 l 208 633 l 585 633 l 585 879 l 738 879 l 738 107 l 611 107 l 611 -17 l 208 -17 m 236 139 l 583 139 l 583 478 l 236 478 l 236 139 z "},"ď":{"ha":822,"x_min":83,"x_max":982,"o":"m 208 -17 l 208 107 l 83 107 l 83 508 l 208 508 l 208 633 l 585 633 l 585 879 l 738 879 l 738 107 l 611 107 l 611 -17 l 208 -17 m 236 139 l 583 139 l 583 478 l 236 478 l 236 139 m 829 601 l 829 683 l 871 679 l 871 724 l 767 724 l 767 881 l 919 881 l 919 757 l 981 757 l 981 664 l 919 664 l 919 601 l 829 601 z "},"đ":{"ha":819,"x_min":83,"x_max":774,"o":"m 208 -17 l 208 107 l 83 107 l 83 508 l 208 508 l 208 631 l 585 631 l 585 681 l 306 681 l 306 831 l 585 831 l 585 879 l 739 879 l 739 831 l 774 831 l 774 678 l 739 678 l 739 107 l 611 107 l 611 -17 l 208 -17 m 236 139 l 583 139 l 583 478 l 236 478 l 236 139 z "},"ð":{"ha":840,"x_min":83,"x_max":783,"o":"m 210 -17 l 210 107 l 83 107 l 83 388 l 210 388 l 210 508 l 585 508 l 585 722 l 238 722 l 238 600 l 83 600 l 83 756 l 210 756 l 210 879 l 613 879 l 613 756 l 738 756 l 738 107 l 613 107 l 613 -17 l 210 -17 m 238 139 l 585 139 l 585 354 l 238 354 l 238 139 m 354 583 l 632 972 l 783 972 l 506 583 l 354 583 z "},"e":{"ha":822,"x_min":83,"x_max":738,"o":"m 208 -17 l 208 107 l 83 107 l 83 508 l 208 508 l 208 633 l 611 633 l 611 508 l 738 508 l 738 354 l 583 354 l 583 478 l 236 478 l 236 388 l 486 388 l 486 231 l 236 231 l 236 139 l 583 139 l 583 265 l 738 265 l 738 108 l 611 108 l 611 -17 l 208 -17 z "},"é":{"ha":822,"x_min":83,"x_max":738,"o":"m 208 -17 l 208 107 l 83 107 l 83 508 l 208 508 l 208 633 l 611 633 l 611 508 l 738 508 l 738 354 l 583 354 l 583 478 l 236 478 l 236 388 l 486 388 l 486 231 l 236 231 l 236 139 l 583 139 l 583 265 l 738 265 l 738 108 l 611 108 l 611 -17 l 208 -17 m 289 721 l 289 814 l 351 814 l 351 875 l 414 875 l 414 939 l 503 939 l 503 844 l 442 844 l 442 782 l 378 782 l 378 721 l 289 721 z "},"ĕ":{"ha":822,"x_min":83,"x_max":738,"o":"m 208 -17 l 208 107 l 83 107 l 83 508 l 208 508 l 208 633 l 611 633 l 611 508 l 738 508 l 738 354 l 583 354 l 583 478 l 236 478 l 236 388 l 486 388 l 486 231 l 236 231 l 236 139 l 583 139 l 583 265 l 738 265 l 738 108 l 611 108 l 611 -17 l 208 -17 m 235 721 l 235 878 l 324 878 l 324 815 l 496 815 l 496 878 l 583 878 l 583 721 l 235 721 z "},"ě":{"ha":822,"x_min":83,"x_max":738,"o":"m 208 -17 l 208 107 l 83 107 l 83 508 l 208 508 l 208 633 l 611 633 l 611 508 l 738 508 l 738 354 l 583 354 l 583 478 l 236 478 l 236 388 l 486 388 l 486 231 l 236 231 l 236 139 l 583 139 l 583 265 l 738 265 l 738 108 l 611 108 l 611 -17 l 208 -17 m 365 721 l 365 785 l 304 785 l 304 878 l 393 878 l 393 815 l 429 815 l 429 878 l 518 878 l 518 785 l 456 785 l 456 721 l 365 721 z "},"ê":{"ha":822,"x_min":83,"x_max":738,"o":"m 208 -17 l 208 107 l 83 107 l 83 508 l 208 508 l 208 633 l 611 633 l 611 508 l 738 508 l 738 354 l 583 354 l 583 478 l 236 478 l 236 388 l 486 388 l 486 231 l 236 231 l 236 139 l 583 139 l 583 265 l 738 265 l 738 108 l 611 108 l 611 -17 l 208 -17 m 304 721 l 304 815 l 365 815 l 365 878 l 456 878 l 456 815 l 518 815 l 518 721 l 429 721 l 429 783 l 393 783 l 393 721 l 304 721 z "},"ë":{"ha":822,"x_min":83,"x_max":738,"o":"m 208 -17 l 208 107 l 83 107 l 83 508 l 208 508 l 208 633 l 611 633 l 611 508 l 738 508 l 738 354 l 583 354 l 583 478 l 236 478 l 236 388 l 486 388 l 486 231 l 236 231 l 236 139 l 583 139 l 583 265 l 738 265 l 738 108 l 611 108 l 611 -17 l 208 -17 m 194 718 l 194 875 l 347 875 l 347 718 l 194 718 m 488 718 l 488 875 l 639 875 l 639 718 l 488 718 z "},"ė":{"ha":822,"x_min":83,"x_max":738,"o":"m 208 -17 l 208 107 l 83 107 l 83 508 l 208 508 l 208 633 l 611 633 l 611 508 l 738 508 l 738 354 l 583 354 l 583 478 l 236 478 l 236 388 l 486 388 l 486 231 l 236 231 l 236 139 l 583 139 l 583 265 l 738 265 l 738 108 l 611 108 l 611 -17 l 208 -17 m 335 722 l 335 879 l 488 879 l 488 722 l 335 722 z "},"è":{"ha":822,"x_min":83,"x_max":738,"o":"m 208 -17 l 208 107 l 83 107 l 83 508 l 208 508 l 208 633 l 611 633 l 611 508 l 738 508 l 738 354 l 583 354 l 583 478 l 236 478 l 236 388 l 486 388 l 486 231 l 236 231 l 236 139 l 583 139 l 583 265 l 738 265 l 738 108 l 611 108 l 611 -17 l 208 -17 m 367 721 l 367 782 l 304 782 l 304 844 l 242 844 l 242 939 l 331 939 l 331 875 l 394 875 l 394 814 l 456 814 l 456 721 l 367 721 z "},"ē":{"ha":822,"x_min":83,"x_max":738,"o":"m 208 -17 l 208 107 l 83 107 l 83 508 l 208 508 l 208 633 l 611 633 l 611 508 l 738 508 l 738 354 l 583 354 l 583 478 l 236 478 l 236 388 l 486 388 l 486 231 l 236 231 l 236 139 l 583 139 l 583 265 l 738 265 l 738 108 l 611 108 l 611 -17 l 208 -17 m 211 721 l 211 858 l 614 858 l 614 721 l 211 721 z "},"ę":{"ha":822,"x_min":83,"x_max":738,"o":"m 208 -17 l 208 107 l 83 107 l 83 508 l 208 508 l 208 633 l 611 633 l 611 508 l 738 508 l 738 354 l 583 354 l 583 478 l 236 478 l 236 388 l 486 388 l 486 231 l 236 231 l 236 139 l 583 139 l 583 265 l 738 265 l 738 108 l 611 108 l 611 -17 l 208 -17 m 314 -272 l 314 -211 l 250 -211 l 250 -117 l 314 -117 l 314 -65 l 356 -65 l 356 53 l 465 53 l 465 -89 l 403 -89 l 403 -135 l 361 -137 l 361 -178 l 501 -178 l 501 -117 l 590 -117 l 590 -211 l 528 -211 l 528 -272 l 314 -272 z "},"f":{"ha":822,"x_min":83,"x_max":738,"o":"m 83 -17 l 83 756 l 208 756 l 208 879 l 611 879 l 611 756 l 738 756 l 738 600 l 583 600 l 583 722 l 236 722 l 236 508 l 486 508 l 486 354 l 236 354 l 236 -17 l 83 -17 z "},"g":{"ha":822,"x_min":83,"x_max":738,"o":"m 208 -262 l 208 -140 l 83 -140 l 83 15 l 236 15 l 236 -107 l 585 -107 l 585 107 l 208 107 l 208 231 l 83 231 l 83 508 l 208 508 l 208 633 l 613 633 l 613 508 l 738 508 l 738 -140 l 613 -140 l 613 -262 l 208 -262 m 236 264 l 585 264 l 585 478 l 236 478 l 236 264 z "},"ğ":{"ha":822,"x_min":83,"x_max":738,"o":"m 208 -262 l 208 -140 l 83 -140 l 83 15 l 236 15 l 236 -107 l 585 -107 l 585 107 l 208 107 l 208 231 l 83 231 l 83 508 l 208 508 l 208 633 l 613 633 l 613 508 l 738 508 l 738 -140 l 613 -140 l 613 -262 l 208 -262 m 236 264 l 585 264 l 585 478 l 236 478 l 236 264 m 235 721 l 235 878 l 324 878 l 324 815 l 496 815 l 496 878 l 583 878 l 583 721 l 235 721 z "},"ĝ":{"ha":822,"x_min":83,"x_max":738,"o":"m 208 -262 l 208 -140 l 83 -140 l 83 15 l 236 15 l 236 -107 l 585 -107 l 585 107 l 208 107 l 208 231 l 83 231 l 83 508 l 208 508 l 208 633 l 613 633 l 613 508 l 738 508 l 738 -140 l 613 -140 l 613 -262 l 208 -262 m 236 264 l 585 264 l 585 478 l 236 478 l 236 264 m 304 721 l 304 815 l 365 815 l 365 878 l 456 878 l 456 815 l 518 815 l 518 721 l 429 721 l 429 783 l 393 783 l 393 721 l 304 721 z "},"ģ":{"ha":822,"x_min":83,"x_max":738,"o":"m 208 -262 l 208 -140 l 83 -140 l 83 15 l 236 15 l 236 -107 l 585 -107 l 585 107 l 208 107 l 208 231 l 83 231 l 83 508 l 208 508 l 208 633 l 613 633 l 613 508 l 738 508 l 738 -140 l 613 -140 l 613 -262 l 208 -262 m 236 264 l 585 264 l 585 478 l 236 478 l 236 264 m 365 721 l 365 846 l 304 846 l 304 938 l 365 938 l 365 1001 l 456 1001 l 456 919 l 414 919 l 414 878 l 518 878 l 518 721 l 365 721 z "},"ġ":{"ha":822,"x_min":83,"x_max":738,"o":"m 208 -262 l 208 -140 l 83 -140 l 83 15 l 236 15 l 236 -107 l 585 -107 l 585 107 l 208 107 l 208 231 l 83 231 l 83 508 l 208 508 l 208 633 l 613 633 l 613 508 l 738 508 l 738 -140 l 613 -140 l 613 -262 l 208 -262 m 236 264 l 585 264 l 585 478 l 236 478 l 236 264 m 335 722 l 335 879 l 488 879 l 488 722 l 335 722 z "},"h":{"ha":822,"x_min":83,"x_max":738,"o":"m 83 -17 l 83 879 l 236 879 l 236 508 l 333 508 l 333 633 l 611 633 l 611 508 l 738 508 l 738 -17 l 583 -17 l 583 478 l 360 478 l 360 354 l 236 354 l 236 -17 l 83 -17 z "},"ħ":{"ha":822,"x_min":42,"x_max":736,"o":"m 83 -17 l 83 679 l 42 679 l 42 835 l 83 835 l 83 879 l 236 879 l 236 835 l 375 835 l 375 679 l 236 679 l 236 508 l 332 508 l 332 633 l 610 633 l 610 508 l 736 508 l 736 -17 l 583 -17 l 583 478 l 360 478 l 360 354 l 236 354 l 236 -17 l 83 -17 z "},"ĥ":{"ha":822,"x_min":83,"x_max":738,"o":"m 83 -17 l 83 879 l 236 879 l 236 508 l 333 508 l 333 633 l 611 633 l 611 508 l 738 508 l 738 -17 l 583 -17 l 583 478 l 360 478 l 360 354 l 236 354 l 236 -17 l 83 -17 m 304 968 l 304 1063 l 365 1063 l 365 1125 l 456 1125 l 456 1063 l 518 1063 l 518 968 l 429 968 l 429 1031 l 393 1031 l 393 968 l 304 968 z "},"i":{"ha":321,"x_min":83,"x_max":236,"o":"m 83 -17 l 83 633 l 236 633 l 236 -17 l 83 -17 m 83 722 l 83 879 l 236 879 l 236 722 l 83 722 z "},"ı":{"ha":321,"x_min":83,"x_max":236,"o":"m 83 -17 l 83 633 l 236 633 l 236 -17 l 83 -17 z "},"í":{"ha":321,"x_min":39,"x_max":253,"o":"m 83 -17 l 83 633 l 236 633 l 236 -17 l 83 -17 m 39 721 l 39 814 l 101 814 l 101 875 l 164 875 l 164 939 l 253 939 l 253 844 l 192 844 l 192 782 l 128 782 l 128 721 l 39 721 z "},"ĭ":{"ha":321,"x_min":-18,"x_max":332,"o":"m 83 -17 l 83 633 l 235 633 l 235 -17 l 83 -17 m -18 736 l -18 893 l 71 893 l 71 831 l 243 831 l 243 893 l 332 893 l 332 736 l -18 736 z "},"î":{"ha":321,"x_min":54,"x_max":268,"o":"m 83 -17 l 83 633 l 236 633 l 236 -17 l 83 -17 m 54 721 l 54 815 l 115 815 l 115 878 l 206 878 l 206 815 l 268 815 l 268 721 l 179 721 l 179 783 l 143 783 l 143 721 l 54 721 z "},"ï":{"ha":321,"x_min":-25,"x_max":346,"o":"m 83 -17 l 83 633 l 236 633 l 236 -17 l 83 -17 m -25 718 l -25 875 l 129 875 l 129 718 l -25 718 m 194 718 l 194 875 l 347 875 l 347 718 l 194 718 z "},"ì":{"ha":321,"x_min":-8,"x_max":236,"o":"m 83 -17 l 83 633 l 236 633 l 236 -17 l 83 -17 m 117 721 l 117 782 l 54 782 l 54 844 l -8 844 l -8 939 l 81 939 l 81 875 l 144 875 l 144 814 l 206 814 l 206 721 l 117 721 z "},"ī":{"ha":321,"x_min":-39,"x_max":364,"o":"m 83 -17 l 83 633 l 236 633 l 236 -17 l 83 -17 m -39 721 l -39 858 l 364 858 l 364 721 l -39 721 z "},"į":{"ha":321,"x_min":0,"x_max":340,"o":"m 83 -17 l 83 633 l 236 633 l 236 -17 l 83 -17 m 85 722 l 85 879 l 238 879 l 238 722 l 85 722 m 64 -285 l 64 -224 l 0 -224 l 0 -129 l 64 -129 l 64 -78 l 106 -78 l 106 40 l 215 40 l 215 -101 l 153 -101 l 153 -147 l 111 -150 l 111 -190 l 251 -190 l 251 -129 l 340 -129 l 340 -224 l 278 -224 l 278 -285 l 64 -285 z "},"ĩ":{"ha":321,"x_min":-24,"x_max":329,"o":"m 83 -17 l 83 633 l 236 633 l 236 -17 l 83 -17 m -24 721 l -24 881 l 199 881 l 199 818 l 236 818 l 236 881 l 329 881 l 329 721 l 106 721 l 106 786 l 68 786 l 68 721 l -24 721 z "},"ĳ":{"ha":990,"x_min":83,"x_max":906,"o":"m 501 -18 l 501 107 l 376 107 l 376 264 l 529 264 l 529 139 l 753 139 l 753 633 l 906 633 l 906 107 l 779 107 l 779 -18 l 501 -18 m 83 -17 l 83 633 l 236 633 l 236 -17 l 83 -17 z "},"j":{"ha":697,"x_min":83,"x_max":613,"o":"m 208 -18 l 208 107 l 83 107 l 83 264 l 236 264 l 236 139 l 460 139 l 460 633 l 613 633 l 613 107 l 486 107 l 486 -18 l 208 -18 z "},"ȷ":{"ha":697,"x_min":83,"x_max":613,"o":"m 208 -18 l 208 107 l 83 107 l 83 264 l 236 264 l 236 139 l 460 139 l 460 633 l 613 633 l 613 107 l 486 107 l 486 -18 l 208 -18 z "},"ĵ":{"ha":697,"x_min":83,"x_max":639,"o":"m 208 -18 l 208 107 l 83 107 l 83 264 l 236 264 l 236 139 l 460 139 l 460 633 l 613 633 l 613 107 l 486 107 l 486 -18 l 208 -18 m 425 721 l 425 815 l 486 815 l 486 878 l 576 878 l 576 815 l 639 815 l 639 721 l 550 721 l 550 783 l 514 783 l 514 721 l 425 721 z "},"k":{"ha":822,"x_min":83,"x_max":738,"o":"m 83 -17 l 83 879 l 236 879 l 236 388 l 333 388 l 333 508 l 583 508 l 583 633 l 738 633 l 738 478 l 611 478 l 611 354 l 360 354 l 360 264 l 611 264 l 611 139 l 738 139 l 738 -17 l 583 -17 l 583 107 l 333 107 l 333 231 l 236 231 l 236 -17 l 83 -17 z "},"ķ":{"ha":822,"x_min":83,"x_max":738,"o":"m 83 -17 l 83 879 l 236 879 l 236 388 l 333 388 l 333 508 l 583 508 l 583 633 l 738 633 l 738 478 l 611 478 l 611 354 l 360 354 l 360 264 l 611 264 l 611 139 l 738 139 l 738 -17 l 583 -17 l 583 107 l 333 107 l 333 231 l 236 231 l 236 -17 l 83 -17 m 389 -349 l 389 -267 l 431 -267 l 431 -226 l 326 -226 l 326 -69 l 479 -69 l 479 -193 l 540 -193 l 540 -286 l 479 -286 l 479 -349 l 389 -349 z "},"l":{"ha":321,"x_min":83,"x_max":236,"o":"m 83 -17 l 83 879 l 236 879 l 236 -17 l 83 -17 z "},"ĺ":{"ha":321,"x_min":39,"x_max":253,"o":"m 83 -17 l 83 879 l 236 879 l 236 -17 l 83 -17 m 39 968 l 39 1061 l 101 1061 l 101 1122 l 164 1122 l 164 1186 l 253 1186 l 253 1092 l 192 1092 l 192 1029 l 128 1029 l 128 968 l 39 968 z "},"ľ":{"ha":321,"x_min":83,"x_max":481,"o":"m 83 -17 l 83 879 l 236 879 l 236 -17 l 83 -17 m 328 600 l 328 682 l 369 678 l 369 722 l 265 722 l 265 879 l 418 879 l 418 756 l 479 756 l 479 663 l 418 663 l 418 600 l 328 600 z "},"ļ":{"ha":321,"x_min":76,"x_max":290,"o":"m 83 -17 l 83 879 l 236 879 l 236 -17 l 83 -17 m 139 -349 l 139 -267 l 181 -267 l 181 -226 l 76 -226 l 76 -69 l 229 -69 l 229 -193 l 290 -193 l 290 -286 l 229 -286 l 229 -349 l 139 -349 z "},"ŀ":{"ha":321,"x_min":83,"x_max":236,"o":"m 83 -17 l 83 879 l 236 879 l 236 -17 l 83 -17 m 83 0 l 83 157 l 236 157 l 236 0 l 83 0 z "},"ł":{"ha":335,"x_min":-36,"x_max":375,"o":"m 92 -17 l 92 203 l 60 153 l -36 207 l 92 411 l 92 879 l 244 879 l 244 664 l 281 728 l 375 672 l 244 454 l 244 -17 l 92 -17 z "},"m":{"ha":1071,"x_min":83,"x_max":986,"o":"m 83 -17 l 83 633 l 486 633 l 486 508 l 583 508 l 583 633 l 863 633 l 863 508 l 986 508 l 986 -17 l 835 -17 l 835 478 l 611 478 l 611 -17 l 460 -17 l 460 478 l 236 478 l 236 -17 l 83 -17 z "},"n":{"ha":822,"x_min":83,"x_max":738,"o":"m 83 -17 l 83 633 l 611 633 l 611 508 l 738 508 l 738 -17 l 583 -17 l 583 478 l 236 478 l 236 -17 l 83 -17 z "},"ń":{"ha":822,"x_min":83,"x_max":738,"o":"m 83 -17 l 83 633 l 611 633 l 611 508 l 738 508 l 738 -17 l 583 -17 l 583 478 l 236 478 l 236 -17 l 83 -17 m 289 721 l 289 814 l 351 814 l 351 875 l 414 875 l 414 939 l 503 939 l 503 844 l 442 844 l 442 782 l 378 782 l 378 721 l 289 721 z "},"ŉ":{"ha":972,"x_min":18,"x_max":888,"o":"m 233 -17 l 233 633 l 761 633 l 761 508 l 888 508 l 888 -17 l 733 -17 l 733 478 l 386 478 l 386 -17 l 233 -17 m 81 600 l 81 672 l 124 682 l 124 722 l 18 722 l 18 879 l 171 879 l 171 756 l 233 756 l 233 663 l 171 663 l 171 600 l 81 600 z "},"ň":{"ha":822,"x_min":83,"x_max":738,"o":"m 83 -17 l 83 633 l 611 633 l 611 508 l 738 508 l 738 -17 l 583 -17 l 583 478 l 236 478 l 236 -17 l 83 -17 m 365 721 l 365 785 l 304 785 l 304 878 l 393 878 l 393 815 l 429 815 l 429 878 l 518 878 l 518 785 l 456 785 l 456 721 l 365 721 z "},"ņ":{"ha":822,"x_min":83,"x_max":738,"o":"m 83 -17 l 83 633 l 611 633 l 611 508 l 738 508 l 738 -17 l 583 -17 l 583 478 l 236 478 l 236 -17 l 83 -17 m 389 -349 l 389 -267 l 431 -267 l 431 -226 l 326 -226 l 326 -69 l 479 -69 l 479 -193 l 540 -193 l 540 -286 l 479 -286 l 479 -349 l 389 -349 z "},"ñ":{"ha":822,"x_min":83,"x_max":738,"o":"m 83 -17 l 83 633 l 611 633 l 611 508 l 738 508 l 738 -17 l 583 -17 l 583 478 l 236 478 l 236 -17 l 83 -17 m 226 721 l 226 881 l 449 881 l 449 818 l 486 818 l 486 881 l 579 881 l 579 721 l 356 721 l 356 786 l 318 786 l 318 721 l 226 721 z "},"ŋ":{"ha":889,"x_min":83,"x_max":740,"o":"m 335 -340 l 335 -215 l 208 -215 l 208 -65 l 361 -65 l 361 -190 l 586 -190 l 586 481 l 238 481 l 238 -8 l 83 -8 l 83 629 l 613 629 l 613 504 l 740 504 l 740 -215 l 613 -215 l 613 -340 l 335 -340 z "},"o":{"ha":822,"x_min":83,"x_max":738,"o":"m 208 -17 l 208 107 l 83 107 l 83 508 l 208 508 l 208 633 l 611 633 l 611 508 l 738 508 l 738 107 l 611 107 l 611 -17 l 208 -17 m 236 139 l 583 139 l 583 478 l 236 478 l 236 139 z "},"ó":{"ha":822,"x_min":83,"x_max":738,"o":"m 208 -17 l 208 107 l 83 107 l 83 508 l 208 508 l 208 633 l 611 633 l 611 508 l 738 508 l 738 107 l 611 107 l 611 -17 l 208 -17 m 236 139 l 583 139 l 583 478 l 236 478 l 236 139 m 289 721 l 289 814 l 351 814 l 351 875 l 414 875 l 414 939 l 503 939 l 503 844 l 442 844 l 442 782 l 378 782 l 378 721 l 289 721 z "},"ŏ":{"ha":822,"x_min":83,"x_max":738,"o":"m 208 -17 l 208 107 l 83 107 l 83 508 l 208 508 l 208 633 l 611 633 l 611 508 l 738 508 l 738 107 l 611 107 l 611 -17 l 208 -17 m 236 139 l 583 139 l 583 478 l 236 478 l 236 139 m 235 721 l 235 878 l 324 878 l 324 815 l 496 815 l 496 878 l 583 878 l 583 721 l 235 721 z "},"ô":{"ha":822,"x_min":83,"x_max":738,"o":"m 208 -17 l 208 107 l 83 107 l 83 508 l 208 508 l 208 633 l 611 633 l 611 508 l 738 508 l 738 107 l 611 107 l 611 -17 l 208 -17 m 236 139 l 583 139 l 583 478 l 236 478 l 236 139 m 304 721 l 304 815 l 365 815 l 365 878 l 456 878 l 456 815 l 518 815 l 518 721 l 429 721 l 429 783 l 393 783 l 393 721 l 304 721 z "},"ö":{"ha":822,"x_min":83,"x_max":738,"o":"m 208 -17 l 208 107 l 83 107 l 83 508 l 208 508 l 208 633 l 611 633 l 611 508 l 738 508 l 738 107 l 611 107 l 611 -17 l 208 -17 m 236 139 l 583 139 l 583 478 l 236 478 l 236 139 m 194 718 l 194 875 l 347 875 l 347 718 l 194 718 m 488 718 l 488 875 l 639 875 l 639 718 l 488 718 z "},"ò":{"ha":822,"x_min":83,"x_max":738,"o":"m 208 -17 l 208 107 l 83 107 l 83 508 l 208 508 l 208 633 l 611 633 l 611 508 l 738 508 l 738 107 l 611 107 l 611 -17 l 208 -17 m 236 139 l 583 139 l 583 478 l 236 478 l 236 139 m 367 721 l 367 782 l 304 782 l 304 844 l 242 844 l 242 939 l 331 939 l 331 875 l 394 875 l 394 814 l 456 814 l 456 721 l 367 721 z "},"ő":{"ha":822,"x_min":83,"x_max":738,"o":"m 208 -17 l 208 107 l 83 107 l 83 508 l 208 508 l 208 633 l 611 633 l 611 508 l 738 508 l 738 107 l 611 107 l 611 -17 l 208 -17 m 236 139 l 583 139 l 583 478 l 236 478 l 236 139 m 510 721 l 510 782 l 446 782 l 446 844 l 385 844 l 385 939 l 474 939 l 474 875 l 536 875 l 536 814 l 599 814 l 599 721 l 510 721 m 313 721 l 313 782 l 250 782 l 250 844 l 188 844 l 188 939 l 276 939 l 276 875 l 340 875 l 340 814 l 403 814 l 403 721 l 313 721 z "},"ō":{"ha":822,"x_min":83,"x_max":738,"o":"m 208 -17 l 208 107 l 83 107 l 83 508 l 208 508 l 208 633 l 611 633 l 611 508 l 738 508 l 738 107 l 611 107 l 611 -17 l 208 -17 m 236 139 l 583 139 l 583 478 l 236 478 l 236 139 m 211 721 l 211 858 l 614 858 l 614 721 l 211 721 z "},"ø":{"ha":822,"x_min":38,"x_max":774,"o":"m 38 -110 l 621 724 l 774 724 l 190 -110 l 38 -110 m 208 -17 l 208 107 l 83 107 l 83 508 l 208 508 l 208 633 l 611 633 l 611 508 l 738 508 l 738 107 l 611 107 l 611 -17 l 208 -17 m 236 139 l 583 139 l 583 478 l 236 478 l 236 139 z "},"ǿ":{"ha":822,"x_min":38,"x_max":774,"o":"m 38 -110 l 621 724 l 774 724 l 190 -110 l 38 -110 m 208 -17 l 208 107 l 83 107 l 83 508 l 208 508 l 208 633 l 611 633 l 611 508 l 738 508 l 738 107 l 611 107 l 611 -17 l 208 -17 m 236 139 l 583 139 l 583 478 l 236 478 l 236 139 m 289 721 l 289 814 l 351 814 l 351 875 l 414 875 l 414 939 l 503 939 l 503 844 l 442 844 l 442 782 l 378 782 l 378 721 l 289 721 z "},"õ":{"ha":822,"x_min":83,"x_max":738,"o":"m 208 -17 l 208 107 l 83 107 l 83 508 l 208 508 l 208 633 l 611 633 l 611 508 l 738 508 l 738 107 l 611 107 l 611 -17 l 208 -17 m 236 139 l 583 139 l 583 478 l 236 478 l 236 139 m 226 721 l 226 881 l 449 881 l 449 818 l 486 818 l 486 881 l 579 881 l 579 721 l 356 721 l 356 786 l 318 786 l 318 721 l 226 721 z "},"œ":{"ha":1321,"x_min":83,"x_max":1236,"o":"m 208 -17 l 208 107 l 83 107 l 83 508 l 208 508 l 208 633 l 611 633 l 611 508 l 710 508 l 710 633 l 1111 633 l 1111 508 l 1236 508 l 1236 354 l 1085 354 l 1085 478 l 738 478 l 738 388 l 986 388 l 986 231 l 738 231 l 738 139 l 1085 139 l 1085 265 l 1236 265 l 1236 108 l 1111 108 l 1111 -17 l 710 -17 l 710 107 l 611 107 l 611 -17 l 208 -17 m 236 139 l 583 139 l 583 478 l 236 478 l 236 139 z "},"p":{"ha":822,"x_min":83,"x_max":738,"o":"m 83 -256 l 83 508 l 208 508 l 208 633 l 611 633 l 611 508 l 738 508 l 738 107 l 611 107 l 611 -17 l 236 -17 l 236 -256 l 83 -256 m 236 139 l 583 139 l 583 478 l 236 478 l 236 139 z "},"þ":{"ha":822,"x_min":83,"x_max":738,"o":"m 83 -17 l 83 879 l 236 879 l 236 707 l 611 707 l 611 582 l 738 582 l 738 179 l 611 179 l 611 57 l 236 57 l 236 -17 l 83 -17 m 236 211 l 583 211 l 583 550 l 236 550 l 236 211 z "},"q":{"ha":822,"x_min":83,"x_max":738,"o":"m 583 -256 l 583 -17 l 208 -17 l 208 107 l 83 107 l 83 508 l 208 508 l 208 633 l 611 633 l 611 508 l 738 508 l 738 -256 l 583 -256 m 236 139 l 583 139 l 583 478 l 236 478 l 236 139 z "},"r":{"ha":822,"x_min":83,"x_max":738,"o":"m 83 -17 l 83 508 l 208 508 l 208 633 l 611 633 l 611 508 l 738 508 l 738 354 l 583 354 l 583 478 l 236 478 l 236 -17 l 83 -17 z "},"ŕ":{"ha":822,"x_min":83,"x_max":738,"o":"m 83 -17 l 83 508 l 208 508 l 208 633 l 611 633 l 611 508 l 738 508 l 738 354 l 583 354 l 583 478 l 236 478 l 236 -17 l 83 -17 m 289 721 l 289 814 l 351 814 l 351 875 l 414 875 l 414 939 l 503 939 l 503 844 l 442 844 l 442 782 l 378 782 l 378 721 l 289 721 z "},"ř":{"ha":822,"x_min":83,"x_max":738,"o":"m 83 -17 l 83 508 l 208 508 l 208 633 l 611 633 l 611 508 l 738 508 l 738 354 l 583 354 l 583 478 l 236 478 l 236 -17 l 83 -17 m 365 721 l 365 785 l 304 785 l 304 878 l 393 878 l 393 815 l 429 815 l 429 878 l 518 878 l 518 785 l 456 785 l 456 721 l 365 721 z "},"ŗ":{"ha":822,"x_min":83,"x_max":738,"o":"m 83 -17 l 83 508 l 208 508 l 208 633 l 611 633 l 611 508 l 738 508 l 738 354 l 583 354 l 583 478 l 236 478 l 236 -17 l 83 -17 m 389 -349 l 389 -267 l 431 -267 l 431 -226 l 326 -226 l 326 -69 l 479 -69 l 479 -193 l 540 -193 l 540 -286 l 479 -286 l 479 -349 l 389 -349 z "},"s":{"ha":822,"x_min":83,"x_max":738,"o":"m 83 -17 l 83 139 l 583 139 l 583 231 l 208 231 l 208 354 l 83 354 l 83 508 l 208 508 l 208 633 l 738 633 l 738 478 l 236 478 l 236 388 l 611 388 l 611 264 l 738 264 l 738 107 l 611 107 l 611 -17 l 83 -17 z "},"ś":{"ha":822,"x_min":83,"x_max":738,"o":"m 83 -17 l 83 139 l 583 139 l 583 231 l 208 231 l 208 354 l 83 354 l 83 508 l 208 508 l 208 633 l 738 633 l 738 478 l 236 478 l 236 388 l 611 388 l 611 264 l 738 264 l 738 107 l 611 107 l 611 -17 l 83 -17 m 353 721 l 353 814 l 415 814 l 415 875 l 478 875 l 478 939 l 567 939 l 567 844 l 506 844 l 506 782 l 442 782 l 442 721 l 353 721 z "},"š":{"ha":822,"x_min":83,"x_max":738,"o":"m 83 -17 l 83 139 l 583 139 l 583 231 l 208 231 l 208 354 l 83 354 l 83 508 l 208 508 l 208 633 l 738 633 l 738 478 l 236 478 l 236 388 l 611 388 l 611 264 l 738 264 l 738 107 l 611 107 l 611 -17 l 83 -17 m 429 721 l 429 785 l 368 785 l 368 878 l 457 878 l 457 815 l 493 815 l 493 878 l 582 878 l 582 785 l 519 785 l 519 721 l 429 721 z "},"ş":{"ha":822,"x_min":83,"x_max":738,"o":"m 83 -17 l 83 139 l 583 139 l 583 231 l 208 231 l 208 354 l 83 354 l 83 508 l 208 508 l 208 633 l 738 633 l 738 478 l 236 478 l 236 388 l 611 388 l 611 264 l 738 264 l 738 107 l 611 107 l 611 -17 l 83 -17 m 296 -272 l 296 -211 l 232 -211 l 232 -117 l 322 -117 l 322 -178 l 463 -178 l 463 -140 l 419 -137 l 419 -89 l 357 -89 l 357 44 l 467 44 l 467 -75 l 531 -75 l 531 -135 l 572 -143 l 572 -211 l 510 -211 l 510 -272 l 296 -272 z "},"ŝ":{"ha":822,"x_min":83,"x_max":738,"o":"m 83 -17 l 83 139 l 583 139 l 583 231 l 208 231 l 208 354 l 83 354 l 83 508 l 208 508 l 208 633 l 738 633 l 738 478 l 236 478 l 236 388 l 611 388 l 611 264 l 738 264 l 738 107 l 611 107 l 611 -17 l 83 -17 m 368 721 l 368 815 l 429 815 l 429 878 l 519 878 l 519 815 l 582 815 l 582 721 l 493 721 l 493 783 l 457 783 l 457 721 l 368 721 z "},"ș":{"ha":822,"x_min":83,"x_max":738,"o":"m 83 -17 l 83 139 l 583 139 l 583 231 l 208 231 l 208 354 l 83 354 l 83 508 l 208 508 l 208 633 l 738 633 l 738 478 l 236 478 l 236 388 l 611 388 l 611 264 l 738 264 l 738 107 l 611 107 l 611 -17 l 83 -17 m 389 -349 l 389 -267 l 431 -267 l 431 -226 l 326 -226 l 326 -69 l 479 -69 l 479 -193 l 540 -193 l 540 -286 l 479 -286 l 479 -349 l 389 -349 z "},"ß":{"ha":822,"x_min":83,"x_max":738,"o":"m 83 -17 l 83 879 l 611 879 l 611 756 l 738 756 l 738 478 l 611 478 l 611 388 l 738 388 l 738 107 l 611 107 l 611 -17 l 333 -17 l 333 139 l 583 139 l 583 354 l 333 354 l 333 508 l 583 508 l 583 722 l 236 722 l 236 -17 l 83 -17 z "},"t":{"ha":947,"x_min":83,"x_max":863,"o":"m 333 -17 l 333 107 l 208 107 l 208 478 l 83 478 l 83 633 l 208 633 l 208 879 l 360 879 l 360 633 l 738 633 l 738 478 l 360 478 l 360 139 l 710 139 l 710 264 l 863 264 l 863 107 l 738 107 l 738 -17 l 333 -17 z "},"ŧ":{"ha":947,"x_min":83,"x_max":863,"o":"m 333 -17 l 333 107 l 208 107 l 208 211 l 83 211 l 83 368 l 208 368 l 208 478 l 83 478 l 83 633 l 208 633 l 208 879 l 360 879 l 360 633 l 738 633 l 738 478 l 360 478 l 360 368 l 485 368 l 485 211 l 360 211 l 360 139 l 710 139 l 710 264 l 863 264 l 863 107 l 738 107 l 738 -17 l 333 -17 z "},"ť":{"ha":947,"x_min":83,"x_max":958,"o":"m 333 -17 l 333 107 l 208 107 l 208 478 l 83 478 l 83 633 l 208 633 l 208 879 l 360 879 l 360 633 l 738 633 l 738 478 l 360 478 l 360 139 l 710 139 l 710 264 l 863 264 l 863 107 l 738 107 l 738 -17 l 333 -17 m 807 600 l 807 682 l 849 678 l 849 722 l 744 722 l 744 879 l 897 879 l 897 756 l 958 756 l 958 663 l 897 663 l 897 600 l 807 600 z "},"ţ":{"ha":947,"x_min":83,"x_max":863,"o":"m 333 -17 l 333 107 l 208 107 l 208 478 l 83 478 l 83 633 l 208 633 l 208 879 l 360 879 l 360 633 l 738 633 l 738 478 l 360 478 l 360 139 l 710 139 l 710 264 l 863 264 l 863 107 l 738 107 l 738 -17 l 333 -17 m 388 -272 l 388 -211 l 324 -211 l 324 -117 l 414 -117 l 414 -178 l 554 -178 l 554 -140 l 511 -137 l 511 -89 l 449 -89 l 449 44 l 558 44 l 558 -75 l 622 -75 l 622 -135 l 664 -143 l 664 -211 l 601 -211 l 601 -272 l 388 -272 z "},"ț":{"ha":947,"x_min":83,"x_max":863,"o":"m 333 -17 l 333 107 l 208 107 l 208 478 l 83 478 l 83 633 l 208 633 l 208 879 l 360 879 l 360 633 l 738 633 l 738 478 l 360 478 l 360 139 l 710 139 l 710 264 l 863 264 l 863 107 l 738 107 l 738 -17 l 333 -17 m 481 -349 l 481 -267 l 522 -267 l 522 -226 l 418 -226 l 418 -69 l 571 -69 l 571 -193 l 632 -193 l 632 -286 l 571 -286 l 571 -349 l 481 -349 z "},"u":{"ha":822,"x_min":83,"x_max":738,"o":"m 208 -17 l 208 107 l 83 107 l 83 633 l 236 633 l 236 139 l 583 139 l 583 633 l 738 633 l 738 107 l 611 107 l 611 -17 l 208 -17 z "},"ú":{"ha":822,"x_min":83,"x_max":738,"o":"m 208 -17 l 208 107 l 83 107 l 83 633 l 236 633 l 236 139 l 583 139 l 583 633 l 738 633 l 738 107 l 611 107 l 611 -17 l 208 -17 m 289 721 l 289 814 l 351 814 l 351 875 l 414 875 l 414 939 l 503 939 l 503 844 l 442 844 l 442 782 l 378 782 l 378 721 l 289 721 z "},"ŭ":{"ha":822,"x_min":83,"x_max":738,"o":"m 208 -17 l 208 107 l 83 107 l 83 633 l 236 633 l 236 139 l 583 139 l 583 633 l 738 633 l 738 107 l 611 107 l 611 -17 l 208 -17 m 235 721 l 235 878 l 324 878 l 324 815 l 496 815 l 496 878 l 583 878 l 583 721 l 235 721 z "},"û":{"ha":822,"x_min":83,"x_max":738,"o":"m 208 -17 l 208 107 l 83 107 l 83 633 l 236 633 l 236 139 l 583 139 l 583 633 l 738 633 l 738 107 l 611 107 l 611 -17 l 208 -17 m 304 721 l 304 815 l 365 815 l 365 878 l 456 878 l 456 815 l 518 815 l 518 721 l 429 721 l 429 783 l 393 783 l 393 721 l 304 721 z "},"ü":{"ha":822,"x_min":83,"x_max":738,"o":"m 208 -17 l 208 107 l 83 107 l 83 633 l 236 633 l 236 139 l 583 139 l 583 633 l 738 633 l 738 107 l 611 107 l 611 -17 l 208 -17 m 194 718 l 194 875 l 347 875 l 347 718 l 194 718 m 488 718 l 488 875 l 639 875 l 639 718 l 488 718 z "},"ù":{"ha":822,"x_min":83,"x_max":738,"o":"m 208 -17 l 208 107 l 83 107 l 83 633 l 236 633 l 236 139 l 583 139 l 583 633 l 738 633 l 738 107 l 611 107 l 611 -17 l 208 -17 m 367 721 l 367 782 l 304 782 l 304 844 l 242 844 l 242 939 l 331 939 l 331 875 l 394 875 l 394 814 l 456 814 l 456 721 l 367 721 z "},"ű":{"ha":822,"x_min":83,"x_max":738,"o":"m 208 -17 l 208 107 l 83 107 l 83 633 l 236 633 l 236 139 l 583 139 l 583 633 l 738 633 l 738 107 l 611 107 l 611 -17 l 208 -17 m 510 721 l 510 782 l 446 782 l 446 844 l 385 844 l 385 939 l 474 939 l 474 875 l 536 875 l 536 814 l 599 814 l 599 721 l 510 721 m 313 721 l 313 782 l 250 782 l 250 844 l 188 844 l 188 939 l 276 939 l 276 875 l 340 875 l 340 814 l 403 814 l 403 721 l 313 721 z "},"ū":{"ha":822,"x_min":83,"x_max":738,"o":"m 208 -17 l 208 107 l 83 107 l 83 633 l 236 633 l 236 139 l 583 139 l 583 633 l 738 633 l 738 107 l 611 107 l 611 -17 l 208 -17 m 211 721 l 211 858 l 614 858 l 614 721 l 211 721 z "},"ų":{"ha":822,"x_min":83,"x_max":738,"o":"m 208 -17 l 208 107 l 83 107 l 83 633 l 236 633 l 236 139 l 583 139 l 583 633 l 738 633 l 738 107 l 611 107 l 611 -17 l 208 -17 m 317 -283 l 317 -222 l 253 -222 l 253 -128 l 317 -128 l 317 -76 l 358 -76 l 358 42 l 468 42 l 468 -100 l 406 -100 l 406 -146 l 364 -149 l 364 -189 l 504 -189 l 504 -128 l 593 -128 l 593 -222 l 531 -222 l 531 -283 l 317 -283 z "},"ů":{"ha":822,"x_min":83,"x_max":738,"o":"m 208 -17 l 208 107 l 83 107 l 83 633 l 236 633 l 236 139 l 583 139 l 583 633 l 738 633 l 738 107 l 611 107 l 611 -17 l 208 -17 m 333 722 l 333 879 l 485 879 l 485 722 l 333 722 m 379 768 l 439 768 l 439 833 l 379 833 l 379 768 z "},"ũ":{"ha":822,"x_min":83,"x_max":738,"o":"m 208 -17 l 208 107 l 83 107 l 83 633 l 236 633 l 236 139 l 583 139 l 583 633 l 738 633 l 738 107 l 611 107 l 611 -17 l 208 -17 m 226 721 l 226 881 l 449 881 l 449 818 l 486 818 l 486 881 l 579 881 l 579 721 l 356 721 l 356 786 l 318 786 l 318 721 l 226 721 z "},"v":{"ha":808,"x_min":69,"x_max":722,"o":"m 319 -17 l 319 107 l 194 107 l 194 354 l 69 354 l 69 633 l 222 633 l 222 388 l 346 388 l 346 139 l 444 139 l 444 388 l 569 388 l 569 633 l 722 633 l 722 354 l 596 354 l 596 107 l 472 107 l 472 -17 l 319 -17 z "},"w":{"ha":1071,"x_min":83,"x_max":986,"o":"m 83 -17 l 83 633 l 236 633 l 236 139 l 460 139 l 460 633 l 611 633 l 611 139 l 835 139 l 835 633 l 986 633 l 986 107 l 863 107 l 863 -17 l 583 -17 l 583 107 l 486 107 l 486 -17 l 83 -17 z "},"ẃ":{"ha":1071,"x_min":83,"x_max":986,"o":"m 83 -17 l 83 633 l 236 633 l 236 139 l 460 139 l 460 633 l 611 633 l 611 139 l 835 139 l 835 633 l 986 633 l 986 107 l 863 107 l 863 -17 l 583 -17 l 583 107 l 486 107 l 486 -17 l 83 -17 m 414 721 l 414 814 l 476 814 l 476 875 l 539 875 l 539 939 l 628 939 l 628 844 l 567 844 l 567 782 l 503 782 l 503 721 l 414 721 z "},"ŵ":{"ha":1071,"x_min":83,"x_max":986,"o":"m 83 -17 l 83 633 l 236 633 l 236 139 l 460 139 l 460 633 l 611 633 l 611 139 l 835 139 l 835 633 l 986 633 l 986 107 l 863 107 l 863 -17 l 583 -17 l 583 107 l 486 107 l 486 -17 l 83 -17 m 429 721 l 429 815 l 490 815 l 490 878 l 581 878 l 581 815 l 643 815 l 643 721 l 554 721 l 554 783 l 518 783 l 518 721 l 429 721 z "},"ẅ":{"ha":1071,"x_min":83,"x_max":986,"o":"m 83 -17 l 83 633 l 236 633 l 236 139 l 460 139 l 460 633 l 611 633 l 611 139 l 835 139 l 835 633 l 986 633 l 986 107 l 863 107 l 863 -17 l 583 -17 l 583 107 l 486 107 l 486 -17 l 83 -17 m 319 718 l 319 875 l 472 875 l 472 718 l 319 718 m 613 718 l 613 875 l 764 875 l 764 718 l 613 718 z "},"ẁ":{"ha":1071,"x_min":83,"x_max":986,"o":"m 83 -17 l 83 633 l 236 633 l 236 139 l 460 139 l 460 633 l 611 633 l 611 139 l 835 139 l 835 633 l 986 633 l 986 107 l 863 107 l 863 -17 l 583 -17 l 583 107 l 486 107 l 486 -17 l 83 -17 m 492 721 l 492 782 l 429 782 l 429 844 l 367 844 l 367 939 l 456 939 l 456 875 l 519 875 l 519 814 l 581 814 l 581 721 l 492 721 z "},"x":{"ha":822,"x_min":83,"x_max":738,"o":"m 83 -17 l 83 139 l 208 139 l 208 264 l 333 264 l 333 354 l 208 354 l 208 478 l 83 478 l 83 633 l 236 633 l 236 508 l 360 508 l 360 388 l 460 388 l 460 508 l 583 508 l 583 633 l 738 633 l 738 478 l 611 478 l 611 354 l 486 354 l 486 264 l 611 264 l 611 139 l 738 139 l 738 -17 l 583 -17 l 583 107 l 460 107 l 460 231 l 360 231 l 360 107 l 236 107 l 236 -17 l 83 -17 z "},"y":{"ha":822,"x_min":83,"x_max":738,"o":"m 208 -262 l 208 -140 l 83 -140 l 83 15 l 236 15 l 236 -107 l 585 -107 l 585 107 l 208 107 l 208 231 l 83 231 l 83 633 l 236 633 l 236 264 l 585 264 l 585 633 l 738 633 l 738 -140 l 613 -140 l 613 -262 l 208 -262 z "},"ý":{"ha":822,"x_min":83,"x_max":738,"o":"m 208 -262 l 208 -140 l 83 -140 l 83 15 l 236 15 l 236 -107 l 585 -107 l 585 107 l 208 107 l 208 231 l 83 231 l 83 633 l 236 633 l 236 264 l 585 264 l 585 633 l 738 633 l 738 -140 l 613 -140 l 613 -262 l 208 -262 m 289 721 l 289 814 l 351 814 l 351 875 l 414 875 l 414 939 l 503 939 l 503 844 l 442 844 l 442 782 l 378 782 l 378 721 l 289 721 z "},"ŷ":{"ha":822,"x_min":83,"x_max":738,"o":"m 208 -262 l 208 -140 l 83 -140 l 83 15 l 236 15 l 236 -107 l 585 -107 l 585 107 l 208 107 l 208 231 l 83 231 l 83 633 l 236 633 l 236 264 l 585 264 l 585 633 l 738 633 l 738 -140 l 613 -140 l 613 -262 l 208 -262 m 304 721 l 304 815 l 365 815 l 365 878 l 456 878 l 456 815 l 518 815 l 518 721 l 429 721 l 429 783 l 393 783 l 393 721 l 304 721 z "},"ÿ":{"ha":822,"x_min":83,"x_max":738,"o":"m 208 -262 l 208 -140 l 83 -140 l 83 15 l 236 15 l 236 -107 l 585 -107 l 585 107 l 208 107 l 208 231 l 83 231 l 83 633 l 236 633 l 236 264 l 585 264 l 585 633 l 738 633 l 738 -140 l 613 -140 l 613 -262 l 208 -262 m 194 718 l 194 875 l 347 875 l 347 718 l 194 718 m 488 718 l 488 875 l 639 875 l 639 718 l 488 718 z "},"ỳ":{"ha":822,"x_min":83,"x_max":738,"o":"m 208 -262 l 208 -140 l 83 -140 l 83 15 l 236 15 l 236 -107 l 585 -107 l 585 107 l 208 107 l 208 231 l 83 231 l 83 633 l 236 633 l 236 264 l 585 264 l 585 633 l 738 633 l 738 -140 l 613 -140 l 613 -262 l 208 -262 m 367 721 l 367 782 l 304 782 l 304 844 l 242 844 l 242 939 l 331 939 l 331 875 l 394 875 l 394 814 l 456 814 l 456 721 l 367 721 z "},"z":{"ha":822,"x_min":83,"x_max":738,"o":"m 83 -17 l 83 139 l 208 139 l 208 264 l 333 264 l 333 388 l 460 388 l 460 478 l 83 478 l 83 633 l 738 633 l 738 478 l 611 478 l 611 354 l 486 354 l 486 231 l 360 231 l 360 139 l 738 139 l 738 -17 l 83 -17 z "},"ź":{"ha":822,"x_min":83,"x_max":738,"o":"m 83 -17 l 83 139 l 208 139 l 208 264 l 333 264 l 333 388 l 460 388 l 460 478 l 83 478 l 83 633 l 738 633 l 738 478 l 611 478 l 611 354 l 486 354 l 486 231 l 360 231 l 360 139 l 738 139 l 738 -17 l 83 -17 m 289 721 l 289 814 l 351 814 l 351 875 l 414 875 l 414 939 l 503 939 l 503 844 l 442 844 l 442 782 l 378 782 l 378 721 l 289 721 z "},"ž":{"ha":822,"x_min":83,"x_max":738,"o":"m 83 -17 l 83 139 l 208 139 l 208 264 l 333 264 l 333 388 l 460 388 l 460 478 l 83 478 l 83 633 l 738 633 l 738 478 l 611 478 l 611 354 l 486 354 l 486 231 l 360 231 l 360 139 l 738 139 l 738 -17 l 83 -17 m 365 721 l 365 785 l 304 785 l 304 878 l 393 878 l 393 815 l 429 815 l 429 878 l 518 878 l 518 785 l 456 785 l 456 721 l 365 721 z "},"ż":{"ha":822,"x_min":83,"x_max":738,"o":"m 83 -17 l 83 139 l 208 139 l 208 264 l 333 264 l 333 388 l 460 388 l 460 478 l 83 478 l 83 633 l 738 633 l 738 478 l 611 478 l 611 354 l 486 354 l 486 231 l 360 231 l 360 139 l 738 139 l 738 -17 l 83 -17 m 335 722 l 335 879 l 488 879 l 488 722 l 335 722 z "},"ﬀ":{"ha":1321,"x_min":83,"x_max":1236,"o":"m 83 -17 l 83 756 l 208 756 l 208 879 l 611 879 l 611 756 l 710 756 l 710 879 l 1111 879 l 1111 756 l 1236 756 l 1236 600 l 1085 600 l 1085 722 l 738 722 l 738 508 l 986 508 l 986 354 l 738 354 l 738 -17 l 583 -17 l 583 722 l 236 722 l 236 508 l 486 508 l 486 354 l 236 354 l 236 -17 l 83 -17 z "},"ﬃ":{"ha":1321,"x_min":83,"x_max":1236,"o":"m 83 -17 l 83 756 l 208 756 l 208 879 l 611 879 l 611 756 l 710 756 l 710 879 l 1111 879 l 1111 756 l 1236 756 l 1236 600 l 1085 600 l 1085 722 l 738 722 l 738 508 l 1236 508 l 1236 -17 l 1083 -17 l 1083 354 l 738 354 l 738 -17 l 583 -17 l 583 722 l 236 722 l 236 508 l 486 508 l 486 354 l 236 354 l 236 -17 l 83 -17 z "},"ﬄ":{"ha":1321,"x_min":83,"x_max":1236,"o":"m 83 -17 l 83 756 l 208 756 l 208 879 l 611 879 l 611 756 l 710 756 l 710 879 l 1111 879 l 1111 756 l 1236 756 l 1236 -17 l 1085 -17 l 1085 722 l 738 722 l 738 508 l 986 508 l 986 354 l 738 354 l 738 -17 l 583 -17 l 583 722 l 236 722 l 236 508 l 486 508 l 486 354 l 236 354 l 236 -17 l 83 -17 z "},"ﬁ":{"ha":822,"x_min":83,"x_max":738,"o":"m 83 -17 l 83 756 l 208 756 l 208 879 l 611 879 l 611 756 l 738 756 l 738 600 l 583 600 l 583 722 l 236 722 l 236 508 l 738 508 l 738 -17 l 583 -17 l 583 354 l 236 354 l 236 -17 l 83 -17 z "},"ﬂ":{"ha":822,"x_min":83,"x_max":738,"o":"m 83 -17 l 83 756 l 208 756 l 208 879 l 611 879 l 611 756 l 738 756 l 738 -17 l 583 -17 l 583 722 l 236 722 l 236 508 l 486 508 l 486 354 l 236 354 l 236 -17 l 83 -17 z "},"ﬆ":{"ha":1563,"x_min":83,"x_max":1478,"o":"m 83 -17 l 83 139 l 583 139 l 583 231 l 208 231 l 208 354 l 83 354 l 83 508 l 208 508 l 208 633 l 824 633 l 824 879 l 976 879 l 976 633 l 1353 633 l 1353 478 l 976 478 l 976 139 l 1325 139 l 1325 264 l 1478 264 l 1478 107 l 1353 107 l 1353 -17 l 949 -17 l 949 107 l 824 107 l 824 478 l 236 478 l 236 388 l 611 388 l 611 264 l 738 264 l 738 107 l 611 107 l 611 -17 l 83 -17 z "},"ª":{"ha":558,"x_min":85,"x_max":474,"o":"m 147 553 l 147 614 l 85 614 l 85 815 l 147 815 l 147 876 l 349 876 l 349 815 l 411 815 l 411 631 l 474 631 l 474 553 l 397 553 l 397 614 l 349 614 l 349 553 l 147 553 m 161 631 l 335 631 l 335 799 l 161 799 l 161 631 m 349 435 l 349 514 l 147 514 l 147 435 l 349 435 z "},"º":{"ha":496,"x_min":85,"x_max":411,"o":"m 147 617 l 147 556 l 349 556 l 349 617 l 411 617 l 411 818 l 349 818 l 349 881 l 147 881 l 147 818 l 85 818 l 85 617 l 147 617 m 161 803 l 335 803 l 335 633 l 161 633 l 161 803 m 349 435 l 349 514 l 147 514 l 147 435 l 349 435 z "},"А":{"ha":822,"x_min":83,"x_max":738,"o":"m 83 -17 l 83 633 l 208 633 l 208 756 l 333 756 l 333 879 l 486 879 l 486 756 l 611 756 l 611 633 l 738 633 l 738 -17 l 583 -17 l 583 231 l 236 231 l 236 -17 l 83 -17 m 236 388 l 583 388 l 583 600 l 460 600 l 460 722 l 360 722 l 360 600 l 236 600 l 236 388 z "},"Б":{"ha":822,"x_min":83,"x_max":738,"o":"m 208 -17 l 208 107 l 83 107 l 83 879 l 611 879 l 611 756 l 738 756 l 738 600 l 583 600 l 583 722 l 236 722 l 236 508 l 611 508 l 611 388 l 738 388 l 738 107 l 611 107 l 611 -17 l 208 -17 m 236 139 l 583 139 l 583 354 l 236 354 l 236 139 z "},"В":{"ha":822,"x_min":83,"x_max":738,"o":"m 208 -17 l 208 107 l 83 107 l 83 756 l 208 756 l 208 879 l 611 879 l 611 756 l 738 756 l 738 478 l 611 478 l 611 388 l 738 388 l 738 107 l 611 107 l 611 -17 l 208 -17 m 236 139 l 583 139 l 583 354 l 333 354 l 333 508 l 583 508 l 583 722 l 236 722 l 236 139 z "},"Г":{"ha":696,"x_min":83,"x_max":611,"o":"m 83 -17 l 83 876 l 611 876 l 611 719 l 236 719 l 236 -17 l 83 -17 z "},"Ѓ":{"ha":696,"x_min":83,"x_max":611,"o":"m 83 -17 l 83 876 l 611 876 l 611 719 l 236 719 l 236 -17 l 83 -17 z "},"Ґ":{"ha":696,"x_min":83,"x_max":611,"o":"m 83 -17 l 83 876 l 460 876 l 460 975 l 611 975 l 611 719 l 236 719 l 236 -17 l 83 -17 z "},"Д":{"ha":946,"x_min":83,"x_max":861,"o":"m 83 -17 l 83 389 l 207 389 l 207 876 l 861 876 l 861 -17 l 708 -17 l 708 108 l 236 108 l 236 -17 l 83 -17 m 360 265 l 708 265 l 708 719 l 360 719 l 360 265 z "},"Е":{"ha":822,"x_min":83,"x_max":738,"o":"m 208 -17 l 208 107 l 83 107 l 83 756 l 208 756 l 208 879 l 611 879 l 611 756 l 738 756 l 738 600 l 583 600 l 583 722 l 236 722 l 236 508 l 486 508 l 486 354 l 236 354 l 236 139 l 583 139 l 583 264 l 738 264 l 738 107 l 611 107 l 611 -17 l 208 -17 z "},"Ё":{"ha":822,"x_min":83,"x_max":738,"o":"m 208 -17 l 208 107 l 83 107 l 83 756 l 208 756 l 208 879 l 611 879 l 611 756 l 738 756 l 738 600 l 583 600 l 583 722 l 236 722 l 236 508 l 486 508 l 486 354 l 236 354 l 236 139 l 583 139 l 583 264 l 738 264 l 738 107 l 611 107 l 611 -17 l 208 -17 m 229 922 l 229 1079 l 318 1079 l 318 922 l 229 922 m 503 922 l 503 1079 l 592 1079 l 592 922 l 503 922 z "},"Ж":{"ha":1321,"x_min":83,"x_max":1236,"o":"m 83 -17 l 83 140 l 208 140 l 208 264 l 333 264 l 333 388 l 460 388 l 460 478 l 333 478 l 333 600 l 208 600 l 208 722 l 83 722 l 83 879 l 236 879 l 236 756 l 360 756 l 360 633 l 486 633 l 486 508 l 583 508 l 583 879 l 738 879 l 738 508 l 833 508 l 833 633 l 960 633 l 960 756 l 1085 756 l 1085 879 l 1236 879 l 1236 722 l 1111 722 l 1111 600 l 986 600 l 986 478 l 861 478 l 861 388 l 986 388 l 986 264 l 1111 264 l 1111 140 l 1236 140 l 1236 -17 l 1085 -17 l 1085 108 l 960 108 l 960 231 l 833 231 l 833 354 l 738 354 l 738 -17 l 583 -17 l 583 354 l 486 354 l 486 231 l 360 231 l 360 108 l 236 108 l 236 -17 l 83 -17 z "},"З":{"ha":822,"x_min":83,"x_max":738,"o":"m 208 -17 l 208 107 l 83 107 l 83 264 l 236 264 l 236 139 l 583 139 l 583 354 l 208 354 l 208 508 l 583 508 l 583 722 l 236 722 l 236 600 l 83 600 l 83 756 l 208 756 l 208 879 l 611 879 l 611 756 l 738 756 l 738 478 l 611 478 l 611 388 l 738 388 l 738 107 l 611 107 l 611 -17 l 208 -17 z "},"И":{"ha":822,"x_min":83,"x_max":738,"o":"m 83 -17 l 83 879 l 236 879 l 236 264 l 333 264 l 333 633 l 460 633 l 460 756 l 583 756 l 583 879 l 738 879 l 738 -17 l 583 -17 l 583 600 l 486 600 l 486 231 l 360 231 l 360 107 l 236 107 l 236 -17 l 83 -17 z "},"Й":{"ha":822,"x_min":83,"x_max":738,"o":"m 83 -17 l 83 879 l 236 879 l 236 264 l 333 264 l 333 633 l 460 633 l 460 756 l 583 756 l 583 879 l 738 879 l 738 -17 l 583 -17 l 583 600 l 486 600 l 486 231 l 360 231 l 360 107 l 236 107 l 236 -17 l 83 -17 m 233 942 l 233 1099 l 322 1099 l 322 1036 l 494 1036 l 494 1099 l 582 1099 l 582 942 l 233 942 z "},"К":{"ha":822,"x_min":83,"x_max":738,"o":"m 83 -17 l 83 756 l 208 756 l 208 879 l 360 879 l 360 722 l 236 722 l 236 508 l 333 508 l 333 633 l 460 633 l 460 756 l 583 756 l 583 879 l 738 879 l 738 722 l 611 722 l 611 600 l 486 600 l 486 478 l 360 478 l 360 388 l 486 388 l 486 264 l 611 264 l 611 139 l 738 139 l 738 -17 l 583 -17 l 583 107 l 460 107 l 460 231 l 333 231 l 333 354 l 236 354 l 236 -17 l 83 -17 m 363 942 l 363 1036 l 425 1036 l 425 1099 l 488 1099 l 488 1161 l 575 1161 l 575 1067 l 514 1067 l 514 1004 l 453 1004 l 453 942 l 363 942 z "},"Ќ":{"ha":822,"x_min":83,"x_max":738,"o":"m 83 -17 l 83 756 l 208 756 l 208 879 l 360 879 l 360 722 l 236 722 l 236 508 l 333 508 l 333 633 l 460 633 l 460 756 l 583 756 l 583 879 l 738 879 l 738 722 l 611 722 l 611 600 l 486 600 l 486 478 l 360 478 l 360 388 l 486 388 l 486 264 l 611 264 l 611 139 l 738 139 l 738 -17 l 583 -17 l 583 107 l 460 107 l 460 231 l 333 231 l 333 354 l 236 354 l 236 -17 l 83 -17 z "},"Л":{"ha":946,"x_min":83,"x_max":861,"o":"m 83 -17 l 83 140 l 207 140 l 207 876 l 861 876 l 861 -17 l 708 -17 l 708 719 l 360 719 l 360 -17 l 83 -17 z "},"М":{"ha":1071,"x_min":83,"x_max":986,"o":"m 83 -17 l 83 756 l 208 756 l 208 879 l 360 879 l 360 756 l 486 756 l 486 508 l 583 508 l 583 756 l 710 756 l 710 879 l 863 879 l 863 756 l 986 756 l 986 -17 l 835 -17 l 835 722 l 738 722 l 738 478 l 611 478 l 611 107 l 460 107 l 460 478 l 333 478 l 333 722 l 236 722 l 236 -17 l 83 -17 z "},"Н":{"ha":822,"x_min":83,"x_max":738,"o":"m 83 -17 l 83 879 l 236 879 l 236 508 l 583 508 l 583 879 l 738 879 l 738 -17 l 583 -17 l 583 354 l 236 354 l 236 -17 l 83 -17 z "},"Р":{"ha":822,"x_min":83,"x_max":738,"o":"m 83 -17 l 83 756 l 208 756 l 208 879 l 611 879 l 611 756 l 738 756 l 738 354 l 611 354 l 611 231 l 236 231 l 236 -17 l 83 -17 m 236 388 l 583 388 l 583 722 l 236 722 l 236 388 z "},"С":{"ha":822,"x_min":83,"x_max":738,"o":"m 208 -17 l 208 107 l 83 107 l 83 756 l 208 756 l 208 879 l 611 879 l 611 756 l 738 756 l 738 478 l 583 478 l 583 722 l 236 722 l 236 139 l 583 139 l 583 388 l 738 388 l 738 107 l 611 107 l 611 -17 l 208 -17 z "},"Т":{"ha":822,"x_min":83,"x_max":738,"o":"m 333 -17 l 333 722 l 236 722 l 236 600 l 83 600 l 83 756 l 208 756 l 208 879 l 611 879 l 611 756 l 738 756 l 738 600 l 583 600 l 583 722 l 486 722 l 486 -17 l 333 -17 z "},"У":{"ha":822,"x_min":83,"x_max":738,"o":"m 333 -17 l 333 478 l 208 478 l 208 600 l 83 600 l 83 879 l 236 879 l 236 633 l 360 633 l 360 508 l 460 508 l 460 633 l 583 633 l 583 879 l 738 879 l 738 600 l 611 600 l 611 478 l 486 478 l 486 -17 l 333 -17 z "},"Ў":{"ha":822,"x_min":83,"x_max":738,"o":"m 333 -17 l 333 478 l 208 478 l 208 600 l 83 600 l 83 879 l 236 879 l 236 633 l 360 633 l 360 508 l 460 508 l 460 633 l 583 633 l 583 879 l 738 879 l 738 600 l 611 600 l 611 478 l 486 478 l 486 -17 l 333 -17 m 233 942 l 233 1099 l 322 1099 l 322 1036 l 507 1036 l 507 1099 l 596 1099 l 596 942 l 233 942 z "},"Ф":{"ha":822,"x_min":83,"x_max":738,"o":"m 329 -17 l 329 106 l 208 106 l 208 228 l 83 228 l 83 631 l 208 631 l 208 754 l 329 754 l 329 879 l 482 879 l 482 754 l 611 754 l 611 631 l 738 631 l 738 228 l 611 228 l 611 106 l 482 106 l 482 -17 l 329 -17 m 236 261 l 329 261 l 329 597 l 236 597 l 236 261 m 482 261 l 583 261 l 583 597 l 482 597 l 482 261 z "},"Х":{"ha":822,"x_min":83,"x_max":738,"o":"m 83 -17 l 83 139 l 208 139 l 208 388 l 333 388 l 333 478 l 208 478 l 208 722 l 83 722 l 83 879 l 236 879 l 236 756 l 360 756 l 360 508 l 460 508 l 460 756 l 583 756 l 583 879 l 738 879 l 738 722 l 611 722 l 611 478 l 486 478 l 486 388 l 611 388 l 611 139 l 738 139 l 738 -17 l 583 -17 l 583 107 l 460 107 l 460 354 l 360 354 l 360 107 l 236 107 l 236 -17 l 83 -17 z "},"Ч":{"ha":822,"x_min":83,"x_max":738,"o":"m 585 -18 l 585 351 l 208 351 l 208 476 l 83 476 l 83 878 l 236 878 l 236 507 l 585 507 l 585 878 l 738 878 l 738 -18 l 585 -18 z "},"Ц":{"ha":822,"x_min":83,"x_max":797,"o":"m 646 -139 l 646 -67 l 689 -68 l 689 -17 l 83 -17 l 83 876 l 236 876 l 236 140 l 583 140 l 583 876 l 738 876 l 738 17 l 797 17 l 797 -76 l 738 -76 l 738 -139 l 646 -139 z "},"Ш":{"ha":1071,"x_min":83,"x_max":986,"o":"m 208 -17 l 208 107 l 83 107 l 83 879 l 236 879 l 236 139 l 333 139 l 333 388 l 460 388 l 460 756 l 611 756 l 611 388 l 738 388 l 738 139 l 835 139 l 835 879 l 986 879 l 986 107 l 863 107 l 863 -17 l 710 -17 l 710 107 l 583 107 l 583 354 l 486 354 l 486 107 l 360 107 l 360 -17 l 208 -17 z "},"Щ":{"ha":1071,"x_min":83,"x_max":1049,"o":"m 897 -139 l 897 -67 l 939 -68 l 939 -17 l 710 -17 l 710 107 l 583 107 l 583 354 l 486 354 l 486 107 l 360 107 l 360 -17 l 208 -17 l 208 107 l 83 107 l 83 879 l 236 879 l 236 139 l 333 139 l 333 388 l 460 388 l 460 756 l 611 756 l 611 388 l 738 388 l 738 139 l 835 139 l 835 879 l 986 879 l 986 17 l 1049 17 l 1049 -76 l 986 -76 l 986 -139 l 897 -139 z "},"Џ":{"ha":822,"x_min":83,"x_max":738,"o":"m 332 -140 l 332 -17 l 83 -17 l 83 878 l 236 878 l 236 140 l 583 140 l 583 878 l 738 878 l 738 -17 l 483 -17 l 483 -140 l 332 -140 z "},"Ь":{"ha":822,"x_min":83,"x_max":738,"o":"m 208 -17 l 208 107 l 83 107 l 83 879 l 236 879 l 236 633 l 611 633 l 611 508 l 738 508 l 738 107 l 611 107 l 611 -17 l 208 -17 m 236 139 l 583 139 l 583 478 l 236 478 l 236 139 z "},"Ы":{"ha":1071,"x_min":83,"x_max":986,"o":"m 208 -17 l 208 107 l 83 107 l 83 879 l 236 879 l 236 507 l 611 507 l 611 385 l 738 385 l 738 107 l 611 107 l 611 -17 l 208 -17 m 236 139 l 583 139 l 583 351 l 236 351 l 236 139 m 833 -17 l 833 633 l 986 633 l 986 -17 l 833 -17 z "},"Ъ":{"ha":819,"x_min":-56,"x_max":736,"o":"m 207 -17 l 207 107 l 82 107 l 82 722 l -56 722 l -56 879 l 374 879 l 374 722 l 235 722 l 235 633 l 610 633 l 610 508 l 736 508 l 736 107 l 610 107 l 610 -17 l 207 -17 m 235 139 l 582 139 l 582 478 l 235 478 l 235 139 z "},"Љ":{"ha":946,"x_min":83,"x_max":861,"o":"m 83 -17 l 83 140 l 207 140 l 207 876 l 861 876 l 861 -17 l 708 -17 l 708 719 l 360 719 l 360 -17 l 83 -17 z "},"Њ":{"ha":1321,"x_min":83,"x_max":1236,"o":"m 83 -17 l 83 879 l 236 879 l 236 508 l 583 508 l 583 879 l 738 879 l 738 633 l 1111 633 l 1111 508 l 1236 508 l 1236 107 l 1111 107 l 1111 -17 l 583 -17 l 583 354 l 236 354 l 236 -17 l 83 -17 m 738 139 l 1085 139 l 1085 478 l 738 478 l 738 139 z "},"Ѕ":{"ha":822,"x_min":83,"x_max":738,"o":"m 83 -17 l 83 139 l 583 139 l 583 231 l 208 231 l 208 354 l 83 354 l 83 508 l 208 508 l 208 633 l 738 633 l 738 478 l 236 478 l 236 388 l 611 388 l 611 264 l 738 264 l 738 107 l 611 107 l 611 -17 l 83 -17 z "},"Є":{"ha":822,"x_min":83,"x_max":738,"o":"m 208 -17 l 208 107 l 83 107 l 83 388 l 208 388 l 208 478 l 83 478 l 83 756 l 208 756 l 208 879 l 611 879 l 611 756 l 738 756 l 738 600 l 583 600 l 583 722 l 236 722 l 236 508 l 611 508 l 611 354 l 236 354 l 236 139 l 583 139 l 583 264 l 738 264 l 738 107 l 611 107 l 611 -17 l 208 -17 z "},"Э":{"ha":822,"x_min":83,"x_max":738,"o":"m 208 -17 l 208 107 l 83 107 l 83 264 l 236 264 l 236 139 l 583 139 l 583 354 l 208 354 l 208 508 l 583 508 l 583 722 l 236 722 l 236 600 l 83 600 l 83 756 l 208 756 l 208 879 l 611 879 l 611 756 l 738 756 l 738 478 l 611 478 l 611 388 l 738 388 l 738 107 l 611 107 l 611 -17 l 208 -17 z "},"Ї":{"ha":399,"x_min":-28,"x_max":426,"o":"m 122 -17 l 122 632 l 276 632 l 276 -17 l 122 -17 m -28 721 l -28 878 l 126 878 l 126 721 l -28 721 m 274 721 l 274 878 l 426 878 l 426 721 l 274 721 z "},"Ј":{"ha":822,"x_min":83,"x_max":738,"o":"m 208 -17 l 208 107 l 83 107 l 83 388 l 236 388 l 236 139 l 583 139 l 583 722 l 208 722 l 208 879 l 611 879 l 611 756 l 738 756 l 738 107 l 611 107 l 611 -17 l 208 -17 z "},"Ћ":{"ha":819,"x_min":-56,"x_max":736,"o":"m 82 -17 l 82 719 l -56 719 l -56 876 l 374 876 l 374 719 l 235 719 l 235 508 l 332 508 l 332 633 l 610 633 l 610 508 l 736 508 l 736 -17 l 582 -17 l 582 478 l 358 478 l 358 354 l 235 354 l 235 -17 l 82 -17 z "},"Ю":{"ha":1185,"x_min":83,"x_max":1100,"o":"m 83 -17 l 83 879 l 236 879 l 236 508 l 447 508 l 447 756 l 572 756 l 572 879 l 975 879 l 975 756 l 1100 756 l 1100 107 l 975 107 l 975 -17 l 572 -17 l 572 107 l 447 107 l 447 354 l 236 354 l 236 -17 l 83 -17 m 600 139 l 947 139 l 947 722 l 600 722 l 600 139 z "},"Я":{"ha":822,"x_min":83,"x_max":738,"o":"m 146 -17 l 146 139 l 271 139 l 271 231 l 208 231 l 208 354 l 83 354 l 83 756 l 208 756 l 208 879 l 611 879 l 611 756 l 738 756 l 738 -17 l 583 -17 l 583 231 l 424 231 l 424 107 l 299 107 l 299 -17 l 146 -17 m 236 388 l 583 388 l 583 722 l 236 722 l 236 388 z "},"Ђ":{"ha":819,"x_min":-56,"x_max":736,"o":"m 207 -17 l 207 107 l 82 107 l 82 722 l -56 722 l -56 879 l 374 879 l 374 722 l 235 722 l 235 633 l 610 633 l 610 508 l 736 508 l 736 107 l 610 107 l 610 -17 l 207 -17 m 235 139 l 582 139 l 582 478 l 235 478 l 235 139 z "},"а":{"ha":957,"x_min":83,"x_max":865,"o":"m 210 -17 l 210 107 l 83 107 l 83 431 l 585 431 l 585 481 l 83 481 l 83 628 l 613 628 l 613 503 l 739 503 l 739 132 l 865 132 l 865 -17 l 711 -17 l 711 107 l 613 107 l 613 -17 l 210 -17 m 236 132 l 585 132 l 585 281 l 236 281 l 236 132 z "},"б":{"ha":822,"x_min":83,"x_max":738,"o":"m 208 -17 l 208 107 l 83 107 l 83 756 l 208 756 l 208 879 l 611 879 l 611 756 l 738 756 l 738 600 l 583 600 l 583 722 l 236 722 l 236 508 l 611 508 l 611 388 l 738 388 l 738 107 l 611 107 l 611 -17 l 208 -17 m 236 139 l 583 139 l 583 354 l 236 354 l 236 139 z "},"в":{"ha":822,"x_min":83,"x_max":738,"o":"m 208 -17 l 208 107 l 83 107 l 83 508 l 208 508 l 208 633 l 611 633 l 611 508 l 738 508 l 738 351 l 611 351 l 611 263 l 738 263 l 738 107 l 611 107 l 611 -17 l 208 -17 m 236 139 l 583 139 l 583 229 l 333 229 l 333 385 l 583 385 l 583 478 l 236 478 l 236 139 z "},"г":{"ha":696,"x_min":83,"x_max":611,"o":"m 83 -17 l 83 633 l 611 633 l 611 478 l 236 478 l 236 -17 l 83 -17 z "},"ѓ":{"ha":822,"x_min":83,"x_max":738,"o":"m 83 -17 l 83 508 l 208 508 l 208 633 l 611 633 l 611 508 l 738 508 l 738 354 l 583 354 l 583 478 l 236 478 l 236 -17 l 83 -17 m 306 736 l 306 831 l 365 831 l 365 893 l 428 893 l 428 954 l 517 954 l 517 860 l 454 860 l 454 797 l 393 797 l 393 736 l 306 736 z "},"ґ":{"ha":822,"x_min":83,"x_max":738,"o":"m 333 -17 l 333 478 l 208 478 l 208 600 l 83 600 l 83 879 l 236 879 l 236 633 l 360 633 l 360 508 l 460 508 l 460 633 l 583 633 l 583 879 l 738 879 l 738 600 l 611 600 l 611 478 l 486 478 l 486 -17 l 333 -17 z "},"д":{"ha":946,"x_min":83,"x_max":861,"o":"m 83 -17 l 83 389 l 207 389 l 207 633 l 861 633 l 861 -17 l 708 -17 l 708 108 l 236 108 l 236 -17 l 83 -17 m 360 265 l 708 265 l 708 478 l 360 478 l 360 265 z "},"е":{"ha":822,"x_min":83,"x_max":738,"o":"m 208 -17 l 208 107 l 83 107 l 83 508 l 208 508 l 208 633 l 611 633 l 611 508 l 738 508 l 738 354 l 583 354 l 583 478 l 236 478 l 236 388 l 486 388 l 486 231 l 236 231 l 236 139 l 583 139 l 583 265 l 738 265 l 738 108 l 611 108 l 611 -17 l 208 -17 z "},"ё":{"ha":822,"x_min":83,"x_max":738,"o":"m 208 -17 l 208 107 l 83 107 l 83 508 l 208 508 l 208 633 l 611 633 l 611 508 l 738 508 l 738 354 l 583 354 l 583 478 l 236 478 l 236 388 l 486 388 l 486 231 l 236 231 l 236 139 l 583 139 l 583 265 l 738 265 l 738 108 l 611 108 l 611 -17 l 208 -17 m 186 753 l 186 910 l 339 910 l 339 753 l 186 753 m 479 753 l 479 910 l 631 910 l 631 753 l 479 753 z "},"ж":{"ha":1061,"x_min":83,"x_max":978,"o":"m 83 -17 l 83 97 l 165 97 l 165 179 l 249 179 l 249 251 l 329 251 l 329 367 l 247 367 l 247 447 l 164 447 l 164 528 l 83 528 l 83 633 l 190 633 l 190 561 l 275 561 l 275 481 l 356 481 l 356 399 l 454 399 l 454 633 l 607 633 l 607 399 l 704 399 l 704 481 l 786 481 l 786 561 l 869 561 l 869 633 l 978 633 l 978 528 l 897 528 l 897 447 l 813 447 l 813 367 l 732 367 l 732 251 l 811 251 l 811 179 l 896 179 l 896 97 l 978 97 l 978 -17 l 868 -17 l 868 64 l 785 64 l 785 146 l 704 146 l 704 218 l 607 218 l 607 -17 l 454 -17 l 454 218 l 356 218 l 356 146 l 276 146 l 276 64 l 192 64 l 192 -17 l 83 -17 z "},"з":{"ha":822,"x_min":83,"x_max":738,"o":"m 208 -17 l 208 108 l 83 108 l 83 265 l 236 265 l 236 139 l 583 139 l 583 231 l 333 231 l 333 388 l 583 388 l 583 478 l 236 478 l 236 354 l 83 354 l 83 508 l 208 508 l 208 633 l 611 633 l 611 508 l 738 508 l 738 107 l 611 107 l 611 -17 l 208 -17 z "},"и":{"ha":781,"x_min":83,"x_max":738,"o":"m 83 -17 l 83 633 l 236 633 l 236 264 l 333 264 l 333 388 l 460 388 l 460 508 l 583 508 l 583 633 l 738 633 l 738 -17 l 583 -17 l 583 354 l 486 354 l 486 231 l 360 231 l 360 107 l 236 107 l 236 -17 l 83 -17 z "},"й":{"ha":822,"x_min":83,"x_max":738,"o":"m 83 -17 l 83 635 l 236 635 l 236 264 l 333 264 l 333 389 l 460 389 l 460 510 l 583 510 l 583 635 l 738 635 l 738 -17 l 583 -17 l 583 356 l 486 356 l 486 231 l 360 231 l 360 107 l 236 107 l 236 -17 l 83 -17 m 247 697 l 247 854 l 336 854 l 336 792 l 494 792 l 494 854 l 582 854 l 582 697 l 247 697 z "},"к":{"ha":822,"x_min":83,"x_max":738,"o":"m 83 -17 l 83 633 l 236 633 l 236 388 l 333 388 l 333 508 l 583 508 l 583 633 l 738 633 l 738 478 l 611 478 l 611 354 l 360 354 l 360 264 l 611 264 l 611 139 l 738 139 l 738 -17 l 583 -17 l 583 107 l 333 107 l 333 231 l 236 231 l 236 -17 l 83 -17 z "},"ќ":{"ha":822,"x_min":83,"x_max":738,"o":"m 83 -17 l 83 633 l 236 633 l 236 388 l 333 388 l 333 508 l 583 508 l 583 633 l 738 633 l 738 478 l 611 478 l 611 354 l 360 354 l 360 264 l 611 264 l 611 139 l 738 139 l 738 -17 l 583 -17 l 583 107 l 333 107 l 333 231 l 236 231 l 236 -17 l 83 -17 m 306 736 l 306 831 l 365 831 l 365 893 l 428 893 l 428 954 l 517 954 l 517 860 l 454 860 l 454 797 l 393 797 l 393 736 l 306 736 z "},"л":{"ha":946,"x_min":83,"x_max":861,"o":"m 83 -17 l 83 140 l 207 140 l 207 632 l 861 632 l 861 -17 l 708 -17 l 708 476 l 360 476 l 360 -17 l 83 -17 z "},"м":{"ha":1071,"x_min":83,"x_max":986,"o":"m 83 -17 l 83 508 l 208 508 l 208 633 l 360 633 l 360 508 l 486 508 l 486 264 l 583 264 l 583 508 l 710 508 l 710 633 l 863 633 l 863 508 l 986 508 l 986 -17 l 835 -17 l 835 478 l 738 478 l 738 231 l 611 231 l 611 107 l 460 107 l 460 231 l 333 231 l 333 478 l 236 478 l 236 -17 l 83 -17 z "},"н":{"ha":822,"x_min":83,"x_max":738,"o":"m 83 -17 l 83 635 l 236 635 l 236 372 l 583 372 l 583 635 l 738 635 l 738 -17 l 583 -17 l 583 217 l 236 217 l 236 -17 l 83 -17 z "},"о":{"ha":822,"x_min":83,"x_max":738,"o":"m 208 -17 l 208 107 l 83 107 l 83 508 l 208 508 l 208 633 l 611 633 l 611 508 l 738 508 l 738 107 l 611 107 l 611 -17 l 208 -17 m 236 139 l 583 139 l 583 478 l 236 478 l 236 139 z "},"п":{"ha":822,"x_min":83,"x_max":738,"o":"m 83 -17 l 83 633 l 738 633 l 738 -17 l 583 -17 l 583 478 l 236 478 l 236 -17 l 83 -17 z "},"р":{"ha":822,"x_min":83,"x_max":738,"o":"m 83 -256 l 83 508 l 208 508 l 208 633 l 611 633 l 611 508 l 738 508 l 738 107 l 611 107 l 611 -17 l 236 -17 l 236 -256 l 83 -256 m 236 139 l 583 139 l 583 478 l 236 478 l 236 139 z "},"с":{"ha":822,"x_min":83,"x_max":738,"o":"m 208 -17 l 208 107 l 83 107 l 83 508 l 208 508 l 208 633 l 611 633 l 611 508 l 738 508 l 738 354 l 583 354 l 583 478 l 236 478 l 236 139 l 583 139 l 583 264 l 738 264 l 738 107 l 611 107 l 611 -17 l 208 -17 z "},"т":{"ha":822,"x_min":83,"x_max":738,"o":"m 333 -17 l 333 479 l 236 479 l 236 356 l 83 356 l 83 510 l 208 510 l 208 635 l 611 635 l 611 510 l 738 510 l 738 356 l 583 356 l 583 479 l 486 479 l 486 -17 l 333 -17 z "},"у":{"ha":822,"x_min":83,"x_max":738,"o":"m 208 -262 l 208 -140 l 83 -140 l 83 15 l 236 15 l 236 -107 l 585 -107 l 585 107 l 208 107 l 208 231 l 83 231 l 83 633 l 236 633 l 236 264 l 585 264 l 585 633 l 738 633 l 738 -140 l 613 -140 l 613 -262 l 208 -262 z "},"ў":{"ha":822,"x_min":83,"x_max":738,"o":"m 208 -262 l 208 -140 l 83 -140 l 83 15 l 236 15 l 236 -107 l 585 -107 l 585 107 l 208 107 l 208 231 l 83 231 l 83 633 l 236 633 l 236 264 l 585 264 l 585 633 l 738 633 l 738 -140 l 613 -140 l 613 -262 l 208 -262 m 233 736 l 233 893 l 322 893 l 322 831 l 507 831 l 507 893 l 596 893 l 596 736 l 233 736 z "},"ф":{"ha":708,"x_min":42,"x_max":624,"o":"m 253 -17 l 253 140 l 153 140 l 153 250 l 42 250 l 42 608 l 153 608 l 153 718 l 253 718 l 253 879 l 406 879 l 406 718 l 513 718 l 513 608 l 624 608 l 624 250 l 513 250 l 513 140 l 406 140 l 406 -17 l 253 -17 m 181 282 l 253 282 l 253 576 l 181 576 l 181 282 m 406 282 l 485 282 l 485 576 l 406 576 l 406 282 z "},"х":{"ha":822,"x_min":83,"x_max":738,"o":"m 83 -17 l 83 139 l 208 139 l 208 264 l 333 264 l 333 354 l 208 354 l 208 478 l 83 478 l 83 633 l 236 633 l 236 508 l 360 508 l 360 388 l 460 388 l 460 508 l 583 508 l 583 633 l 738 633 l 738 478 l 611 478 l 611 354 l 486 354 l 486 264 l 611 264 l 611 139 l 738 139 l 738 -17 l 583 -17 l 583 107 l 460 107 l 460 231 l 360 231 l 360 107 l 236 107 l 236 -17 l 83 -17 z "},"ч":{"ha":822,"x_min":83,"x_max":738,"o":"m 585 -18 l 585 107 l 210 107 l 210 231 l 83 231 l 83 633 l 236 633 l 236 264 l 585 264 l 585 633 l 738 633 l 738 -18 l 585 -18 z "},"ц":{"ha":839,"x_min":83,"x_max":796,"o":"m 644 -139 l 644 -67 l 688 -68 l 688 -17 l 83 -17 l 83 633 l 236 633 l 236 140 l 583 140 l 583 633 l 738 633 l 738 17 l 796 17 l 796 -76 l 736 -76 l 736 -139 l 644 -139 z "},"ш":{"ha":1071,"x_min":83,"x_max":986,"o":"m 83 -17 l 83 633 l 236 633 l 236 139 l 460 139 l 460 633 l 611 633 l 611 139 l 835 139 l 835 633 l 986 633 l 986 -17 l 583 -17 l 583 107 l 486 107 l 486 -17 l 83 -17 z "},"щ":{"ha":1071,"x_min":83,"x_max":1049,"o":"m 897 -139 l 897 -67 l 939 -68 l 939 -17 l 583 -17 l 583 107 l 486 107 l 486 -17 l 83 -17 l 83 633 l 236 633 l 236 139 l 460 139 l 460 633 l 611 633 l 611 139 l 835 139 l 835 633 l 986 633 l 986 17 l 1049 17 l 1049 -76 l 986 -76 l 986 -139 l 897 -139 z "},"џ":{"ha":822,"x_min":83,"x_max":738,"o":"m 332 -140 l 332 -17 l 83 -17 l 83 632 l 236 632 l 236 140 l 583 140 l 583 632 l 738 632 l 738 -17 l 483 -17 l 483 -140 l 332 -140 z "},"ь":{"ha":819,"x_min":0,"x_max":654,"o":"m 125 -17 l 125 107 l 0 107 l 0 879 l 153 879 l 153 633 l 526 633 l 526 508 l 654 508 l 654 107 l 526 107 l 526 -17 l 125 -17 m 153 139 l 500 139 l 500 478 l 153 478 l 153 139 z "},"ы":{"ha":1071,"x_min":83,"x_max":986,"o":"m 208 -17 l 208 107 l 83 107 l 83 879 l 236 879 l 236 633 l 611 633 l 611 508 l 738 508 l 738 107 l 611 107 l 611 -17 l 208 -17 m 236 139 l 583 139 l 583 478 l 236 478 l 236 139 m 833 -17 l 833 879 l 986 879 l 986 -17 l 833 -17 z "},"ъ":{"ha":819,"x_min":0,"x_max":736,"o":"m 208 -17 l 208 107 l 83 107 l 83 722 l 0 722 l 0 879 l 235 879 l 235 633 l 610 633 l 610 508 l 736 508 l 736 107 l 610 107 l 610 -17 l 208 -17 m 235 139 l 582 139 l 582 478 l 235 478 l 235 139 z "},"љ":{"ha":1307,"x_min":83,"x_max":1222,"o":"m 83 -17 l 83 140 l 207 140 l 207 632 l 724 632 l 724 507 l 1097 507 l 1097 385 l 1222 385 l 1222 107 l 1097 107 l 1097 -17 l 569 -17 l 569 476 l 360 476 l 360 -17 l 83 -17 m 724 139 l 1071 139 l 1071 351 l 724 351 l 724 139 z "},"њ":{"ha":1185,"x_min":83,"x_max":1100,"o":"m 83 -17 l 83 635 l 236 635 l 236 372 l 447 372 l 447 635 l 600 635 l 600 507 l 975 507 l 975 385 l 1100 385 l 1100 107 l 975 107 l 975 -17 l 447 -17 l 447 217 l 236 217 l 236 -17 l 83 -17 m 600 139 l 947 139 l 947 351 l 600 351 l 600 139 z "},"ѕ":{"ha":822,"x_min":83,"x_max":738,"o":"m 83 -17 l 83 139 l 583 139 l 583 231 l 208 231 l 208 354 l 83 354 l 83 508 l 208 508 l 208 633 l 738 633 l 738 478 l 236 478 l 236 388 l 611 388 l 611 264 l 738 264 l 738 107 l 611 107 l 611 -17 l 83 -17 z "},"є":{"ha":822,"x_min":83,"x_max":738,"o":"m 208 -17 l 208 107 l 83 107 l 83 508 l 208 508 l 208 633 l 611 633 l 611 508 l 738 508 l 738 354 l 583 354 l 583 478 l 236 478 l 236 388 l 486 388 l 486 231 l 236 231 l 236 139 l 583 139 l 583 265 l 738 265 l 738 108 l 611 108 l 611 -17 l 208 -17 z "},"э":{"ha":822,"x_min":83,"x_max":738,"o":"m 208 -17 l 208 108 l 83 108 l 83 265 l 236 265 l 236 139 l 583 139 l 583 231 l 333 231 l 333 388 l 583 388 l 583 478 l 236 478 l 236 354 l 83 354 l 83 508 l 208 508 l 208 633 l 611 633 l 611 508 l 738 508 l 738 107 l 611 107 l 611 -17 l 208 -17 z "},"і":{"ha":321,"x_min":83,"x_max":236,"o":"m 83 -17 l 83 633 l 236 633 l 236 -17 l 83 -17 m 83 722 l 83 879 l 236 879 l 236 722 l 83 722 z "},"ї":{"ha":482,"x_min":14,"x_max":468,"o":"m 164 -17 l 164 388 l 318 388 l 318 -17 l 164 -17 m 14 478 l 14 633 l 167 633 l 167 478 l 14 478 m 315 478 l 315 633 l 468 633 l 468 478 l 315 478 z "},"ј":{"ha":697,"x_min":83,"x_max":613,"o":"m 208 -18 l 208 107 l 83 107 l 83 264 l 236 264 l 236 139 l 460 139 l 460 633 l 613 633 l 613 107 l 486 107 l 486 -18 l 208 -18 z "},"ћ":{"ha":821,"x_min":83,"x_max":736,"o":"m 83 -17 l 83 876 l 375 876 l 375 719 l 236 719 l 236 508 l 332 508 l 332 633 l 610 633 l 610 508 l 736 508 l 736 -17 l 583 -17 l 583 478 l 360 478 l 360 354 l 236 354 l 236 -17 l 83 -17 z "},"ю":{"ha":1183,"x_min":83,"x_max":1099,"o":"m 83 -17 l 83 635 l 236 635 l 236 372 l 446 372 l 446 508 l 571 508 l 571 633 l 974 633 l 974 508 l 1099 508 l 1099 107 l 974 107 l 974 -17 l 571 -17 l 571 107 l 446 107 l 446 217 l 236 217 l 236 -17 l 83 -17 m 599 139 l 946 139 l 946 478 l 599 478 l 599 139 z "},"я":{"ha":822,"x_min":83,"x_max":738,"o":"m 146 -17 l 146 139 l 271 139 l 271 232 l 208 232 l 208 356 l 83 356 l 83 508 l 208 508 l 208 633 l 611 633 l 611 508 l 738 508 l 738 -17 l 583 -17 l 583 232 l 424 232 l 424 107 l 299 107 l 299 -17 l 146 -17 m 236 389 l 583 389 l 583 478 l 236 478 l 236 389 z "},"ђ":{"ha":872,"x_min":83,"x_max":779,"o":"m 375 -362 l 375 -237 l 250 -237 l 250 -87 l 403 -87 l 403 -212 l 626 -212 l 626 481 l 403 481 l 403 357 l 278 357 l 278 -17 l 124 -17 l 124 685 l 83 685 l 83 833 l 124 833 l 124 878 l 278 878 l 278 833 l 418 833 l 418 685 l 278 685 l 278 504 l 375 504 l 375 629 l 654 629 l 654 504 l 779 504 l 779 -237 l 654 -237 l 654 -362 l 375 -362 z "},"Α":{"ha":822,"x_min":83,"x_max":738,"o":"m 83 -17 l 83 633 l 208 633 l 208 756 l 333 756 l 333 879 l 486 879 l 486 756 l 611 756 l 611 633 l 738 633 l 738 -17 l 583 -17 l 583 231 l 236 231 l 236 -17 l 83 -17 m 236 388 l 583 388 l 583 600 l 460 600 l 460 722 l 360 722 l 360 600 l 236 600 l 236 388 z "},"Β":{"ha":822,"x_min":83,"x_max":738,"o":"m 208 -17 l 208 107 l 83 107 l 83 756 l 208 756 l 208 879 l 611 879 l 611 756 l 738 756 l 738 478 l 611 478 l 611 388 l 738 388 l 738 107 l 611 107 l 611 -17 l 208 -17 m 236 139 l 583 139 l 583 354 l 333 354 l 333 508 l 583 508 l 583 722 l 236 722 l 236 139 z "},"Γ":{"ha":696,"x_min":83,"x_max":611,"o":"m 83 -17 l 83 879 l 611 879 l 611 722 l 236 722 l 236 -17 l 83 -17 z "},"Ε":{"ha":822,"x_min":83,"x_max":738,"o":"m 208 -17 l 208 107 l 83 107 l 83 756 l 208 756 l 208 879 l 611 879 l 611 756 l 738 756 l 738 600 l 583 600 l 583 722 l 236 722 l 236 508 l 486 508 l 486 354 l 236 354 l 236 139 l 583 139 l 583 264 l 738 264 l 738 107 l 611 107 l 611 -17 l 208 -17 z "},"Ζ":{"ha":822,"x_min":83,"x_max":738,"o":"m 208 -17 l 208 107 l 83 107 l 83 388 l 208 388 l 208 508 l 583 508 l 583 722 l 236 722 l 236 600 l 83 600 l 83 879 l 611 879 l 611 756 l 738 756 l 738 478 l 611 478 l 611 354 l 236 354 l 236 139 l 583 139 l 583 264 l 738 264 l 738 -17 l 208 -17 z "},"Η":{"ha":822,"x_min":83,"x_max":738,"o":"m 83 -17 l 83 879 l 236 879 l 236 508 l 333 508 l 333 633 l 486 633 l 486 508 l 583 508 l 583 879 l 738 879 l 738 -17 l 583 -17 l 583 354 l 236 354 l 236 -17 l 83 -17 z "},"Θ":{"ha":822,"x_min":83,"x_max":738,"o":"m 208 -17 l 208 107 l 83 107 l 83 756 l 208 756 l 208 879 l 611 879 l 611 756 l 738 756 l 738 107 l 611 107 l 611 -17 l 208 -17 m 236 139 l 583 139 l 583 722 l 236 722 l 236 139 m 308 367 l 308 475 l 513 475 l 513 367 l 308 367 z "},"Ι":{"ha":571,"x_min":83,"x_max":486,"o":"m 83 -17 l 83 139 l 208 139 l 208 722 l 83 722 l 83 879 l 486 879 l 486 722 l 360 722 l 360 139 l 486 139 l 486 -17 l 83 -17 z "},"Κ":{"ha":822,"x_min":83,"x_max":738,"o":"m 83 -17 l 83 756 l 208 756 l 208 879 l 360 879 l 360 722 l 236 722 l 236 508 l 333 508 l 333 633 l 460 633 l 460 756 l 583 756 l 583 879 l 738 879 l 738 722 l 611 722 l 611 600 l 486 600 l 486 478 l 360 478 l 360 388 l 486 388 l 486 264 l 611 264 l 611 139 l 738 139 l 738 -17 l 583 -17 l 583 107 l 460 107 l 460 231 l 333 231 l 333 354 l 236 354 l 236 -17 l 83 -17 z "},"Λ":{"ha":822,"x_min":83,"x_max":738,"o":"m 83 -17 l 83 508 l 208 508 l 208 757 l 333 757 l 333 879 l 486 879 l 486 757 l 611 757 l 611 508 l 738 508 l 738 -17 l 583 -17 l 583 478 l 460 478 l 460 724 l 360 724 l 360 478 l 236 478 l 236 -17 l 83 -17 z "},"Μ":{"ha":1071,"x_min":83,"x_max":986,"o":"m 83 -17 l 83 756 l 208 756 l 208 879 l 360 879 l 360 756 l 486 756 l 486 508 l 583 508 l 583 756 l 710 756 l 710 879 l 863 879 l 863 756 l 986 756 l 986 -17 l 835 -17 l 835 722 l 738 722 l 738 478 l 611 478 l 611 107 l 460 107 l 460 478 l 333 478 l 333 722 l 236 722 l 236 -17 l 83 -17 z "},"μ":{"ha":1071,"x_min":83,"x_max":986,"o":"m 83 -17 l 83 756 l 208 756 l 208 879 l 360 879 l 360 756 l 486 756 l 486 508 l 583 508 l 583 756 l 710 756 l 710 879 l 863 879 l 863 756 l 986 756 l 986 -17 l 835 -17 l 835 722 l 738 722 l 738 478 l 611 478 l 611 107 l 460 107 l 460 478 l 333 478 l 333 722 l 236 722 l 236 -17 l 83 -17 z "},"Ν":{"ha":822,"x_min":83,"x_max":738,"o":"m 83 -17 l 83 879 l 236 879 l 236 756 l 360 756 l 360 633 l 486 633 l 486 264 l 583 264 l 583 879 l 738 879 l 738 -17 l 583 -17 l 583 107 l 460 107 l 460 231 l 333 231 l 333 600 l 236 600 l 236 -17 l 83 -17 z "},"Ξ":{"ha":569,"x_min":83,"x_max":485,"o":"m 83 722 l 83 879 l 485 879 l 485 722 l 83 722 m 83 -17 l 83 140 l 485 140 l 485 -17 l 83 -17 m 83 353 l 83 508 l 485 508 l 485 353 l 83 353 z "},"Ο":{"ha":822,"x_min":83,"x_max":738,"o":"m 208 -17 l 208 107 l 83 107 l 83 756 l 208 756 l 208 879 l 611 879 l 611 756 l 738 756 l 738 107 l 611 107 l 611 -17 l 208 -17 m 236 139 l 583 139 l 583 722 l 236 722 l 236 139 z "},"Π":{"ha":822,"x_min":83,"x_max":738,"o":"m 83 -17 l 83 876 l 738 876 l 738 -17 l 583 -17 l 583 719 l 236 719 l 236 -17 l 83 -17 z "},"Ρ":{"ha":822,"x_min":83,"x_max":738,"o":"m 83 -17 l 83 756 l 208 756 l 208 879 l 611 879 l 611 756 l 738 756 l 738 354 l 611 354 l 611 231 l 236 231 l 236 -17 l 83 -17 m 236 388 l 583 388 l 583 722 l 236 722 l 236 388 z "},"Σ":{"ha":1071,"x_min":83,"x_max":986,"o":"m 208 -18 l 208 107 l 83 107 l 83 263 l 208 263 l 208 386 l 460 386 l 460 476 l 208 476 l 208 599 l 83 599 l 83 756 l 208 756 l 208 878 l 986 878 l 986 722 l 236 722 l 236 632 l 486 632 l 486 507 l 863 507 l 863 353 l 486 353 l 486 229 l 236 229 l 236 139 l 986 139 l 986 -18 l 208 -18 z "},"Τ":{"ha":822,"x_min":83,"x_max":738,"o":"m 333 -17 l 333 722 l 236 722 l 236 600 l 83 600 l 83 756 l 208 756 l 208 879 l 611 879 l 611 756 l 738 756 l 738 600 l 583 600 l 583 722 l 486 722 l 486 -17 l 333 -17 z "},"Υ":{"ha":822,"x_min":83,"x_max":738,"o":"m 333 -17 l 333 478 l 208 478 l 208 600 l 83 600 l 83 879 l 236 879 l 236 633 l 360 633 l 360 508 l 460 508 l 460 633 l 583 633 l 583 879 l 738 879 l 738 600 l 611 600 l 611 478 l 486 478 l 486 -17 l 333 -17 z "},"Φ":{"ha":822,"x_min":83,"x_max":738,"o":"m 329 -15 l 329 93 l 208 93 l 208 215 l 83 215 l 83 618 l 208 618 l 208 742 l 329 742 l 329 881 l 482 881 l 482 742 l 611 742 l 611 618 l 738 618 l 738 215 l 611 215 l 611 93 l 482 93 l 482 -15 l 329 -15 m 356 125 l 456 125 l 456 215 l 356 215 l 356 125 m 236 249 l 329 249 l 329 586 l 236 586 l 236 249 m 482 249 l 583 249 l 583 586 l 482 586 l 482 249 m 356 618 l 456 618 l 456 708 l 356 708 l 356 618 z "},"Χ":{"ha":822,"x_min":83,"x_max":738,"o":"m 83 -17 l 83 139 l 208 139 l 208 388 l 333 388 l 333 478 l 208 478 l 208 722 l 83 722 l 83 879 l 236 879 l 236 756 l 360 756 l 360 508 l 460 508 l 460 756 l 583 756 l 583 879 l 738 879 l 738 722 l 611 722 l 611 478 l 486 478 l 486 388 l 611 388 l 611 139 l 738 139 l 738 -17 l 583 -17 l 583 107 l 460 107 l 460 354 l 360 354 l 360 107 l 236 107 l 236 -17 l 83 -17 z "},"Ψ":{"ha":822,"x_min":83,"x_max":738,"o":"m 329 -17 l 329 281 l 208 281 l 208 404 l 83 404 l 83 876 l 236 876 l 236 436 l 329 436 l 329 879 l 482 879 l 482 436 l 583 436 l 583 876 l 738 876 l 738 404 l 611 404 l 611 281 l 482 281 l 482 -17 l 329 -17 z "},"Ά":{"ha":822,"x_min":83,"x_max":738,"o":"m 83 -17 l 83 633 l 208 633 l 208 756 l 333 756 l 333 879 l 486 879 l 486 756 l 611 756 l 611 633 l 738 633 l 738 -17 l 583 -17 l 583 231 l 236 231 l 236 -17 l 83 -17 m 236 388 l 583 388 l 583 600 l 460 600 l 460 722 l 360 722 l 360 600 l 236 600 l 236 388 m 363 942 l 363 1028 l 496 1161 l 575 1161 l 575 1075 l 443 942 l 363 942 z "},"Έ":{"ha":822,"x_min":83,"x_max":738,"o":"m 208 -17 l 208 107 l 83 107 l 83 756 l 208 756 l 208 879 l 611 879 l 611 756 l 738 756 l 738 600 l 583 600 l 583 722 l 236 722 l 236 508 l 486 508 l 486 354 l 236 354 l 236 139 l 583 139 l 583 264 l 738 264 l 738 107 l 611 107 l 611 -17 l 208 -17 m 363 942 l 363 1028 l 496 1161 l 575 1161 l 575 1075 l 443 942 l 363 942 z "},"Ή":{"ha":822,"x_min":83,"x_max":738,"o":"m 83 -17 l 83 879 l 236 879 l 236 508 l 333 508 l 333 633 l 486 633 l 486 508 l 583 508 l 583 879 l 738 879 l 738 -17 l 583 -17 l 583 354 l 236 354 l 236 -17 l 83 -17 m 365 942 l 365 1099 l 456 1099 l 456 942 l 365 942 z "},"Ί":{"ha":571,"x_min":83,"x_max":486,"o":"m 83 -17 l 83 139 l 208 139 l 208 722 l 83 722 l 83 879 l 486 879 l 486 722 l 360 722 l 360 139 l 486 139 l 486 -17 l 83 -17 m 243 942 l 243 1099 l 332 1099 l 332 942 l 243 942 z "},"ί":{"ha":571,"x_min":83,"x_max":486,"o":"m 83 -17 l 83 139 l 208 139 l 208 722 l 83 722 l 83 879 l 486 879 l 486 722 l 360 722 l 360 139 l 486 139 l 486 -17 l 83 -17 m 243 942 l 243 1099 l 332 1099 l 332 942 l 243 942 z "},"Ό":{"ha":822,"x_min":83,"x_max":738,"o":"m 208 -17 l 208 107 l 83 107 l 83 756 l 208 756 l 208 879 l 611 879 l 611 756 l 738 756 l 738 107 l 611 107 l 611 -17 l 208 -17 m 236 139 l 583 139 l 583 722 l 236 722 l 236 139 m 365 942 l 365 1099 l 456 1099 l 456 942 l 365 942 z "},"Ύ":{"ha":822,"x_min":83,"x_max":738,"o":"m 333 -17 l 333 478 l 208 478 l 208 600 l 83 600 l 83 879 l 236 879 l 236 633 l 360 633 l 360 508 l 460 508 l 460 633 l 583 633 l 583 879 l 738 879 l 738 600 l 611 600 l 611 478 l 486 478 l 486 -17 l 333 -17 m 365 942 l 365 1099 l 456 1099 l 456 942 l 365 942 z "},"Ώ":{"ha":819,"x_min":0,"x_max":817,"o":"m 0 -18 l 0 139 l 83 139 l 83 756 l 208 756 l 208 878 l 610 878 l 610 756 l 736 756 l 736 139 l 817 139 l 817 -18 l 582 -18 l 582 722 l 235 722 l 235 -18 l 0 -18 m 363 942 l 363 1028 l 494 1161 l 574 1161 l 574 1075 l 443 942 l 363 942 z "},"Ϊ":{"ha":571,"x_min":65,"x_max":511,"o":"m 83 -17 l 83 139 l 208 139 l 208 722 l 83 722 l 83 879 l 486 879 l 486 722 l 360 722 l 360 139 l 486 139 l 486 -17 l 83 -17 m 65 958 l 65 1115 l 218 1115 l 218 958 l 65 958 m 357 958 l 357 1115 l 511 1115 l 511 958 l 357 958 z "},"ϊ":{"ha":571,"x_min":65,"x_max":511,"o":"m 83 -17 l 83 139 l 208 139 l 208 722 l 83 722 l 83 879 l 486 879 l 486 722 l 360 722 l 360 139 l 486 139 l 486 -17 l 83 -17 m 65 958 l 65 1115 l 218 1115 l 218 958 l 65 958 m 357 958 l 357 1115 l 511 1115 l 511 958 l 357 958 z "},"Ϋ":{"ha":822,"x_min":83,"x_max":738,"o":"m 333 -17 l 333 478 l 208 478 l 208 600 l 83 600 l 83 879 l 236 879 l 236 633 l 360 633 l 360 508 l 460 508 l 460 633 l 583 633 l 583 879 l 738 879 l 738 600 l 611 600 l 611 478 l 486 478 l 486 -17 l 333 -17 m 229 942 l 229 1099 l 318 1099 l 318 942 l 229 942 m 503 942 l 503 1099 l 592 1099 l 592 942 l 503 942 z "},"ϋ":{"ha":822,"x_min":83,"x_max":738,"o":"m 333 -17 l 333 478 l 208 478 l 208 600 l 83 600 l 83 879 l 236 879 l 236 633 l 360 633 l 360 508 l 460 508 l 460 633 l 583 633 l 583 879 l 738 879 l 738 600 l 611 600 l 611 478 l 486 478 l 486 -17 l 333 -17 m 229 942 l 229 1099 l 318 1099 l 318 942 l 229 942 m 503 942 l 503 1099 l 592 1099 l 592 942 l 503 942 z "},"α":{"ha":822,"x_min":83,"x_max":738,"o":"m 583 -107 l 583 -17 l 208 -17 l 208 107 l 83 107 l 83 508 l 208 508 l 208 633 l 611 633 l 611 508 l 738 508 l 738 -107 l 583 -107 m 236 139 l 583 139 l 583 478 l 236 478 l 236 139 z "},"β":{"ha":822,"x_min":83,"x_max":738,"o":"m 83 -262 l 83 879 l 611 879 l 611 756 l 738 756 l 738 478 l 611 478 l 611 388 l 738 388 l 738 107 l 611 107 l 611 -17 l 333 -17 l 333 139 l 583 139 l 583 354 l 333 354 l 333 508 l 583 508 l 583 722 l 236 722 l 236 -262 l 83 -262 z "},"γ":{"ha":808,"x_min":69,"x_max":722,"o":"m 319 -17 l 319 281 l 194 281 l 194 529 l 69 529 l 69 633 l 222 633 l 222 563 l 346 563 l 346 314 l 444 314 l 444 563 l 569 563 l 569 633 l 722 633 l 722 529 l 596 529 l 596 281 l 472 281 l 472 -17 l 319 -17 z "},"δ":{"ha":822,"x_min":83,"x_max":738,"o":"m 208 -17 l 208 107 l 83 107 l 83 508 l 208 508 l 208 633 l 329 633 l 329 756 l 456 756 l 456 879 l 607 879 l 607 722 l 482 722 l 482 633 l 611 633 l 611 508 l 738 508 l 738 107 l 611 107 l 611 -17 l 208 -17 m 236 139 l 583 139 l 583 478 l 236 478 l 236 139 z "},"ε":{"ha":822,"x_min":83,"x_max":738,"o":"m 208 -17 l 208 107 l 83 107 l 83 508 l 208 508 l 208 633 l 611 633 l 611 508 l 738 508 l 738 354 l 583 354 l 583 478 l 236 478 l 236 388 l 486 388 l 486 231 l 236 231 l 236 139 l 583 139 l 583 265 l 738 265 l 738 108 l 611 108 l 611 -17 l 208 -17 z "},"ζ":{"ha":822,"x_min":83,"x_max":738,"o":"m 458 -257 l 458 -103 l 583 -103 l 583 -17 l 208 -17 l 208 108 l 83 108 l 83 388 l 208 388 l 208 508 l 583 508 l 583 724 l 208 724 l 208 879 l 611 879 l 611 757 l 738 757 l 738 478 l 611 478 l 611 354 l 236 354 l 236 140 l 583 140 l 583 264 l 738 264 l 738 -257 l 458 -257 z "},"η":{"ha":822,"x_min":83,"x_max":738,"o":"m 583 -262 l 583 478 l 236 478 l 236 -17 l 83 -17 l 83 633 l 611 633 l 611 508 l 738 508 l 738 -262 l 583 -262 z "},"θ":{"ha":822,"x_min":83,"x_max":738,"o":"m 208 -17 l 208 107 l 83 107 l 83 508 l 208 508 l 208 633 l 611 633 l 611 508 l 738 508 l 738 107 l 611 107 l 611 -17 l 208 -17 m 236 139 l 583 139 l 583 478 l 236 478 l 236 139 m 311 247 l 311 351 l 510 351 l 510 247 l 311 247 z "},"ι":{"ha":321,"x_min":83,"x_max":236,"o":"m 83 -17 l 83 633 l 236 633 l 236 -17 l 83 -17 m 83 722 l 83 879 l 236 879 l 236 722 l 83 722 z "},"κ":{"ha":822,"x_min":83,"x_max":738,"o":"m 83 -17 l 83 879 l 236 879 l 236 388 l 333 388 l 333 508 l 583 508 l 583 633 l 738 633 l 738 478 l 611 478 l 611 354 l 360 354 l 360 264 l 611 264 l 611 139 l 738 139 l 738 -17 l 583 -17 l 583 107 l 333 107 l 333 231 l 236 231 l 236 -17 l 83 -17 z "},"λ":{"ha":822,"x_min":83,"x_max":738,"o":"m 83 -17 l 83 264 l 208 264 l 208 388 l 333 388 l 333 879 l 486 879 l 486 388 l 611 388 l 611 264 l 738 264 l 738 -17 l 583 -17 l 583 231 l 460 231 l 460 354 l 360 354 l 360 231 l 236 231 l 236 -17 l 83 -17 z "},"ν":{"ha":808,"x_min":69,"x_max":722,"o":"m 319 -17 l 319 107 l 194 107 l 194 354 l 69 354 l 69 633 l 222 633 l 222 388 l 346 388 l 346 139 l 444 139 l 444 388 l 569 388 l 569 633 l 722 633 l 722 354 l 596 354 l 596 107 l 472 107 l 472 -17 l 319 -17 z "},"ξ":{"ha":819,"x_min":0,"x_max":736,"o":"m 332 -260 l 332 -106 l 582 -106 l 582 -17 l 208 -17 l 208 107 l 83 107 l 83 388 l 208 388 l 208 478 l 83 478 l 83 722 l 0 722 l 0 878 l 610 878 l 610 756 l 736 756 l 736 600 l 582 600 l 582 722 l 235 722 l 235 508 l 610 508 l 610 354 l 235 354 l 235 139 l 582 139 l 582 264 l 736 264 l 736 -260 l 332 -260 z "},"ο":{"ha":822,"x_min":83,"x_max":738,"o":"m 208 -17 l 208 107 l 83 107 l 83 508 l 208 508 l 208 633 l 611 633 l 611 508 l 738 508 l 738 107 l 611 107 l 611 -17 l 208 -17 m 236 139 l 583 139 l 583 478 l 236 478 l 236 139 z "},"π":{"ha":1321,"x_min":83,"x_max":1236,"o":"m 333 -17 l 333 476 l 236 476 l 236 353 l 83 353 l 83 507 l 208 507 l 208 632 l 611 632 l 611 507 l 710 507 l 710 632 l 1111 632 l 1111 507 l 1236 507 l 1236 353 l 1085 353 l 1085 476 l 986 476 l 986 -17 l 833 -17 l 833 476 l 738 476 l 738 353 l 583 353 l 583 476 l 486 476 l 486 -17 l 333 -17 z "},"ρ":{"ha":822,"x_min":83,"x_max":738,"o":"m 83 -256 l 83 508 l 208 508 l 208 633 l 611 633 l 611 508 l 738 508 l 738 107 l 611 107 l 611 -17 l 236 -17 l 236 -256 l 83 -256 m 236 139 l 583 139 l 583 478 l 236 478 l 236 139 z "},"σ":{"ha":819,"x_min":83,"x_max":817,"o":"m 208 -17 l 208 107 l 83 107 l 83 508 l 208 508 l 208 633 l 817 633 l 817 478 l 738 478 l 738 107 l 611 107 l 611 -17 l 208 -17 m 236 139 l 583 139 l 583 478 l 236 478 l 236 139 z "},"τ":{"ha":822,"x_min":83,"x_max":738,"o":"m 333 -17 l 333 478 l 236 478 l 236 354 l 83 354 l 83 508 l 208 508 l 208 633 l 611 633 l 611 508 l 738 508 l 738 354 l 583 354 l 583 478 l 486 478 l 486 -17 l 333 -17 z "},"υ":{"ha":822,"x_min":83,"x_max":738,"o":"m 208 -17 l 208 107 l 83 107 l 83 633 l 236 633 l 236 139 l 583 139 l 583 633 l 738 633 l 738 107 l 611 107 l 611 -17 l 208 -17 m 363 700 l 363 786 l 496 919 l 575 919 l 575 832 l 443 700 l 363 700 z "},"φ":{"ha":822,"x_min":83,"x_max":738,"o":"m 329 -17 l 329 108 l 208 108 l 208 231 l 83 231 l 83 633 l 208 633 l 208 757 l 329 757 l 329 879 l 482 879 l 482 757 l 611 757 l 611 633 l 738 633 l 738 231 l 611 231 l 611 108 l 482 108 l 482 -17 l 329 -17 m 236 264 l 329 264 l 329 600 l 236 600 l 236 264 m 482 264 l 583 264 l 583 600 l 482 600 l 482 264 z "},"χ":{"ha":822,"x_min":83,"x_max":738,"o":"m 83 -17 l 83 139 l 208 139 l 208 264 l 333 264 l 333 354 l 208 354 l 208 478 l 83 478 l 83 633 l 236 633 l 236 508 l 360 508 l 360 388 l 460 388 l 460 508 l 583 508 l 583 633 l 738 633 l 738 478 l 611 478 l 611 354 l 486 354 l 486 264 l 611 264 l 611 139 l 738 139 l 738 -17 l 583 -17 l 583 107 l 460 107 l 460 231 l 360 231 l 360 107 l 236 107 l 236 -17 l 83 -17 z "},"ψ":{"ha":822,"x_min":83,"x_max":738,"o":"m 329 -17 l 329 107 l 208 107 l 208 229 l 83 229 l 83 756 l 236 756 l 236 263 l 329 263 l 329 879 l 482 879 l 482 263 l 583 263 l 583 756 l 738 756 l 738 229 l 611 229 l 611 107 l 482 107 l 482 -17 l 329 -17 z "},"ω":{"ha":1071,"x_min":83,"x_max":986,"o":"m 83 -17 l 83 633 l 236 633 l 236 139 l 460 139 l 460 633 l 611 633 l 611 139 l 835 139 l 835 633 l 986 633 l 986 107 l 863 107 l 863 -17 l 583 -17 l 583 107 l 486 107 l 486 -17 l 83 -17 z "},"ύ":{"ha":822,"x_min":83,"x_max":738,"o":"m 208 -17 l 208 107 l 83 107 l 83 633 l 236 633 l 236 139 l 583 139 l 583 633 l 738 633 l 738 107 l 611 107 l 611 -17 l 208 -17 m 365 719 l 365 876 l 456 876 l 456 719 l 365 719 z "},"ό":{"ha":822,"x_min":83,"x_max":738,"o":"m 208 -17 l 208 107 l 83 107 l 83 508 l 208 508 l 208 633 l 611 633 l 611 508 l 738 508 l 738 107 l 611 107 l 611 -17 l 208 -17 m 236 139 l 583 139 l 583 478 l 236 478 l 236 139 m 365 719 l 365 876 l 456 876 l 456 719 l 365 719 z "},"ώ":{"ha":1071,"x_min":83,"x_max":986,"o":"m 83 -17 l 83 633 l 236 633 l 236 139 l 460 139 l 460 633 l 611 633 l 611 139 l 835 139 l 835 633 l 986 633 l 986 107 l 863 107 l 863 -17 l 583 -17 l 583 107 l 486 107 l 486 -17 l 83 -17 m 490 719 l 490 876 l 578 876 l 578 719 l 490 719 z "},"ά":{"ha":822,"x_min":83,"x_max":738,"o":"m 583 -107 l 583 -17 l 208 -17 l 208 107 l 83 107 l 83 508 l 208 508 l 208 633 l 611 633 l 611 508 l 738 508 l 738 -107 l 583 -107 m 236 139 l 583 139 l 583 478 l 236 478 l 236 139 m 365 719 l 365 876 l 456 876 l 456 719 l 365 719 z "},"έ":{"ha":822,"x_min":83,"x_max":738,"o":"m 208 -17 l 208 107 l 83 107 l 83 508 l 208 508 l 208 633 l 611 633 l 611 508 l 738 508 l 738 354 l 583 354 l 583 478 l 236 478 l 236 388 l 486 388 l 486 231 l 236 231 l 236 139 l 583 139 l 583 265 l 738 265 l 738 108 l 611 108 l 611 -17 l 208 -17 m 365 719 l 365 876 l 456 876 l 456 719 l 365 719 z "},"ή":{"ha":822,"x_min":83,"x_max":738,"o":"m 583 -262 l 583 478 l 236 478 l 236 -17 l 83 -17 l 83 633 l 611 633 l 611 508 l 738 508 l 738 -262 l 583 -262 m 365 719 l 365 876 l 456 876 l 456 719 l 365 719 z "},"½":{"ha":1139,"x_min":83,"x_max":1058,"o":"m 232 -17 l 232 225 l 340 225 l 340 442 l 451 442 l 451 551 l 560 551 l 560 769 l 672 769 l 672 878 l 808 878 l 808 636 l 700 636 l 700 526 l 588 526 l 588 310 l 479 310 l 479 200 l 368 200 l 368 -17 l 232 -17 m 213 407 l 213 790 l 175 790 l 175 726 l 83 726 l 83 814 l 147 814 l 147 878 l 239 878 l 239 814 l 304 814 l 304 407 l 213 407 m 775 -18 l 775 44 l 710 44 l 710 267 l 775 267 l 775 331 l 968 331 l 968 435 l 801 435 l 801 369 l 710 369 l 710 457 l 775 457 l 775 522 l 996 522 l 996 457 l 1058 457 l 1058 307 l 996 307 l 996 242 l 801 242 l 801 69 l 968 69 l 968 203 l 1058 203 l 1058 44 l 996 44 l 996 -18 l 775 -18 z "},"⅓":{"ha":1254,"x_min":83,"x_max":1171,"o":"m 300 -17 l 300 225 l 410 225 l 410 442 l 521 442 l 521 551 l 629 551 l 629 769 l 742 769 l 742 878 l 878 878 l 878 636 l 769 636 l 769 526 l 657 526 l 657 310 l 547 310 l 547 200 l 438 200 l 438 -17 l 300 -17 m 213 407 l 213 790 l 175 790 l 175 726 l 83 726 l 83 814 l 147 814 l 147 878 l 239 878 l 239 814 l 304 814 l 304 407 l 213 407 m 886 -18 l 886 46 l 819 46 l 819 135 l 914 135 l 914 71 l 1076 71 l 1076 197 l 886 197 l 886 285 l 1076 285 l 1076 386 l 914 386 l 914 324 l 819 324 l 819 411 l 886 411 l 886 476 l 1104 476 l 1104 411 l 1171 411 l 1171 260 l 1104 260 l 1104 221 l 1171 221 l 1171 46 l 1104 46 l 1104 -18 l 886 -18 z "},"⅔":{"ha":1276,"x_min":83,"x_max":1211,"o":"m 368 -17 l 368 225 l 479 225 l 479 442 l 588 442 l 588 551 l 699 551 l 699 769 l 808 769 l 808 878 l 947 878 l 947 636 l 836 636 l 836 526 l 726 526 l 726 310 l 615 310 l 615 200 l 506 200 l 506 -17 l 368 -17 m 147 404 l 147 467 l 83 467 l 83 642 l 147 642 l 147 707 l 340 707 l 340 810 l 175 810 l 175 746 l 83 746 l 83 835 l 147 835 l 147 897 l 368 897 l 368 835 l 433 835 l 433 682 l 368 682 l 368 618 l 175 618 l 175 492 l 340 492 l 340 557 l 433 557 l 433 467 l 368 467 l 368 404 l 147 404 m 928 -18 l 928 46 l 861 46 l 861 135 l 954 135 l 954 71 l 1118 71 l 1118 197 l 928 197 l 928 285 l 1118 285 l 1118 386 l 954 386 l 954 324 l 861 324 l 861 411 l 928 411 l 928 476 l 1146 476 l 1146 411 l 1211 411 l 1211 260 l 1146 260 l 1146 221 l 1211 221 l 1211 46 l 1146 46 l 1146 -18 l 928 -18 z "},"¼":{"ha":1222,"x_min":83,"x_max":1138,"o":"m 300 -17 l 300 232 l 408 232 l 408 447 l 518 447 l 518 556 l 628 556 l 628 772 l 739 772 l 739 879 l 875 879 l 875 632 l 765 632 l 765 522 l 654 522 l 654 307 l 546 307 l 546 199 l 436 199 l 436 -17 l 300 -17 m 211 404 l 211 783 l 174 783 l 174 719 l 83 719 l 83 815 l 147 815 l 147 879 l 239 879 l 239 815 l 304 815 l 304 404 l 211 404 m 1046 -18 l 1046 110 l 789 110 l 789 269 l 853 269 l 853 332 l 918 332 l 918 394 l 981 394 l 981 458 l 1138 458 l 1138 -18 l 1046 -18 m 901 204 l 1046 204 l 1046 363 l 1008 363 l 1008 299 l 953 299 l 951 256 l 901 256 l 901 204 z "},"¾":{"ha":1339,"x_min":83,"x_max":1251,"o":"m 410 -17 l 410 225 l 521 225 l 521 442 l 629 442 l 629 551 l 740 551 l 740 769 l 850 769 l 850 878 l 989 878 l 989 636 l 878 636 l 878 526 l 768 526 l 768 310 l 657 310 l 657 200 l 547 200 l 547 -17 l 410 -17 m 149 385 l 149 449 l 83 449 l 83 536 l 176 536 l 176 474 l 339 474 l 339 576 l 149 576 l 149 664 l 339 664 l 339 789 l 176 789 l 176 726 l 83 726 l 83 814 l 149 814 l 149 878 l 367 878 l 367 814 l 433 814 l 433 640 l 367 640 l 367 601 l 433 601 l 433 449 l 367 449 l 367 385 l 149 385 m 1160 -18 l 1160 110 l 901 110 l 901 263 l 967 263 l 967 325 l 1031 325 l 1031 389 l 1094 389 l 1094 453 l 1251 453 l 1251 -18 l 1160 -18 m 993 197 l 1160 197 l 1160 365 l 1122 365 l 1122 301 l 1057 301 l 1057 238 l 993 238 l 993 197 z "},"⅛":{"ha":1242,"x_min":83,"x_max":1158,"o":"m 300 -17 l 300 225 l 410 225 l 410 442 l 521 442 l 521 551 l 629 551 l 629 769 l 742 769 l 742 878 l 878 878 l 878 636 l 769 636 l 769 526 l 657 526 l 657 310 l 547 310 l 547 200 l 438 200 l 438 -17 l 300 -17 m 213 407 l 213 790 l 175 790 l 175 726 l 83 726 l 83 814 l 147 814 l 147 878 l 239 878 l 239 814 l 304 814 l 304 407 l 213 407 m 871 -18 l 871 46 l 806 46 l 806 217 l 871 217 l 871 256 l 806 256 l 806 408 l 871 408 l 871 472 l 1092 472 l 1092 408 l 1158 408 l 1158 256 l 1092 256 l 1092 217 l 1158 217 l 1158 46 l 1092 46 l 1092 -18 l 871 -18 m 899 71 l 1064 71 l 1064 192 l 899 192 l 899 71 m 899 281 l 1064 281 l 1064 385 l 899 385 l 899 281 z "},"⅜":{"ha":1338,"x_min":83,"x_max":1253,"o":"m 396 -17 l 396 225 l 507 225 l 507 442 l 615 442 l 615 551 l 726 551 l 726 769 l 836 769 l 836 878 l 975 878 l 975 636 l 864 636 l 864 526 l 754 526 l 754 310 l 643 310 l 643 200 l 533 200 l 533 -17 l 396 -17 m 149 385 l 149 449 l 83 449 l 83 536 l 176 536 l 176 474 l 339 474 l 339 576 l 149 576 l 149 664 l 339 664 l 339 789 l 176 789 l 176 726 l 83 726 l 83 814 l 149 814 l 149 878 l 367 878 l 367 814 l 433 814 l 433 640 l 367 640 l 367 601 l 433 601 l 433 449 l 367 449 l 367 385 l 149 385 m 994 71 l 1161 71 l 1161 197 l 994 197 l 994 71 m 967 -18 l 967 46 l 903 46 l 903 221 l 967 221 l 967 260 l 903 260 l 903 413 l 967 413 l 967 476 l 1189 476 l 1189 413 l 1253 413 l 1253 260 l 1189 260 l 1189 221 l 1253 221 l 1253 46 l 1189 46 l 1189 -18 l 967 -18 m 994 285 l 1161 285 l 1161 389 l 994 389 l 994 285 z "},"⅝":{"ha":1375,"x_min":83,"x_max":1290,"o":"m 438 -17 l 438 225 l 546 225 l 546 442 l 657 442 l 657 551 l 767 551 l 767 769 l 878 769 l 878 878 l 1015 878 l 1015 636 l 906 636 l 906 526 l 793 526 l 793 310 l 685 310 l 685 200 l 574 200 l 574 -17 l 438 -17 m 147 388 l 147 451 l 83 451 l 83 540 l 175 540 l 175 476 l 340 476 l 340 515 l 213 515 l 213 581 l 147 581 l 147 643 l 83 643 l 83 814 l 147 814 l 147 878 l 368 878 l 368 814 l 435 814 l 435 643 l 340 643 l 340 790 l 175 790 l 175 668 l 239 668 l 239 604 l 368 604 l 368 540 l 435 540 l 435 451 l 368 451 l 368 388 l 147 388 m 1031 71 l 1197 71 l 1197 197 l 1031 197 l 1031 71 m 1003 -18 l 1003 46 l 939 46 l 939 221 l 1003 221 l 1003 260 l 939 260 l 939 413 l 1003 413 l 1003 476 l 1224 476 l 1224 413 l 1290 413 l 1290 260 l 1224 260 l 1224 221 l 1290 221 l 1290 46 l 1224 46 l 1224 -18 l 1003 -18 m 1031 285 l 1197 285 l 1197 389 l 1031 389 l 1031 285 z "},"⅞":{"ha":1379,"x_min":83,"x_max":1294,"o":"m 464 -17 l 464 232 l 572 232 l 572 447 l 682 447 l 682 556 l 792 556 l 792 772 l 903 772 l 903 879 l 1039 879 l 1039 632 l 929 632 l 929 522 l 818 522 l 818 307 l 710 307 l 710 199 l 600 199 l 600 -17 l 464 -17 m 340 403 l 340 783 l 174 783 l 174 719 l 83 719 l 83 815 l 147 815 l 147 879 l 367 879 l 367 815 l 433 815 l 433 403 l 340 403 m 1008 -18 l 1008 46 l 944 46 l 944 203 l 988 207 l 988 243 l 944 250 l 944 396 l 1008 396 l 1008 460 l 1228 460 l 1228 396 l 1294 396 l 1294 239 l 1250 238 l 1250 203 l 1294 193 l 1294 46 l 1228 46 l 1228 -18 l 1008 -18 m 1036 79 l 1201 79 l 1201 174 l 1036 174 l 1036 79 m 1036 269 l 1201 269 l 1201 364 l 1036 364 l 1036 269 z "},"₀":{"ha":517,"x_min":83,"x_max":432,"o":"m 147 -18 l 147 46 l 83 46 l 83 394 l 147 394 l 147 458 l 367 458 l 367 394 l 432 394 l 432 46 l 367 46 l 367 -18 l 147 -18 m 174 79 l 340 79 l 340 363 l 174 363 l 174 79 z "},"₁":{"ha":389,"x_min":83,"x_max":304,"o":"m 211 -18 l 211 363 l 174 363 l 174 299 l 83 299 l 83 394 l 147 394 l 147 458 l 239 458 l 239 394 l 304 394 l 304 -18 l 211 -18 z "},"₂":{"ha":529,"x_min":83,"x_max":433,"o":"m 147 -18 l 147 44 l 83 44 l 83 219 l 147 219 l 147 285 l 340 285 l 340 388 l 175 388 l 175 324 l 83 324 l 83 411 l 147 411 l 147 476 l 368 476 l 368 411 l 433 411 l 433 260 l 368 260 l 368 196 l 175 196 l 175 69 l 340 69 l 340 135 l 433 135 l 433 44 l 368 44 l 368 -18 l 147 -18 z "},"₃":{"ha":529,"x_min":83,"x_max":433,"o":"m 149 -18 l 149 46 l 83 46 l 83 135 l 176 135 l 176 71 l 339 71 l 339 197 l 149 197 l 149 285 l 339 285 l 339 386 l 176 386 l 176 324 l 83 324 l 83 411 l 149 411 l 149 476 l 367 476 l 367 411 l 433 411 l 433 260 l 367 260 l 367 221 l 433 221 l 433 46 l 367 46 l 367 -18 l 149 -18 z "},"₄":{"ha":518,"x_min":83,"x_max":433,"o":"m 340 -18 l 340 110 l 83 110 l 83 269 l 147 269 l 147 333 l 211 333 l 211 396 l 278 396 l 278 460 l 433 460 l 433 -18 l 340 -18 m 196 206 l 340 206 l 340 364 l 306 364 l 306 300 l 250 300 l 244 257 l 196 257 l 196 206 z "},"₅":{"ha":531,"x_min":83,"x_max":435,"o":"m 147 -18 l 147 46 l 83 46 l 83 135 l 175 135 l 175 71 l 340 71 l 340 132 l 213 132 l 213 197 l 147 197 l 147 260 l 83 260 l 83 413 l 147 413 l 147 476 l 368 476 l 368 413 l 435 413 l 435 260 l 340 260 l 340 389 l 175 389 l 175 285 l 239 285 l 239 221 l 368 221 l 368 157 l 435 157 l 435 46 l 368 46 l 368 -18 l 147 -18 z "},"₆":{"ha":531,"x_min":83,"x_max":435,"o":"m 147 -18 l 147 46 l 83 46 l 83 413 l 147 413 l 147 476 l 368 476 l 368 413 l 435 413 l 435 325 l 340 325 l 340 389 l 175 389 l 175 285 l 368 285 l 368 221 l 435 221 l 435 46 l 368 46 l 368 -18 l 147 -18 m 175 71 l 340 71 l 340 197 l 175 197 l 175 71 z "},"₇":{"ha":518,"x_min":83,"x_max":433,"o":"m 340 -18 l 340 364 l 174 364 l 174 300 l 83 300 l 83 396 l 147 396 l 147 460 l 367 460 l 367 396 l 433 396 l 433 -18 l 340 -18 z "},"₈":{"ha":518,"x_min":83,"x_max":433,"o":"m 147 -18 l 147 46 l 83 46 l 83 203 l 126 204 l 126 239 l 83 250 l 83 396 l 147 396 l 147 460 l 367 460 l 367 396 l 433 396 l 433 239 l 389 238 l 389 203 l 433 193 l 433 46 l 367 46 l 367 -18 l 147 -18 m 174 79 l 340 79 l 340 174 l 174 174 l 174 79 m 174 269 l 340 269 l 340 364 l 174 364 l 174 269 z "},"₉":{"ha":531,"x_min":83,"x_max":435,"o":"m 147 -18 l 147 46 l 83 46 l 83 135 l 175 135 l 175 71 l 340 71 l 340 197 l 147 197 l 147 260 l 83 260 l 83 413 l 147 413 l 147 476 l 368 476 l 368 413 l 435 413 l 435 46 l 368 46 l 368 -18 l 147 -18 m 175 285 l 340 285 l 340 389 l 175 389 l 175 285 z "},"⁰":{"ha":517,"x_min":83,"x_max":432,"o":"m 147 404 l 147 468 l 83 468 l 83 815 l 147 815 l 147 879 l 367 879 l 367 815 l 432 815 l 432 468 l 367 468 l 367 404 l 147 404 m 174 500 l 340 500 l 340 783 l 174 783 l 174 500 z "},"¹":{"ha":389,"x_min":83,"x_max":304,"o":"m 211 404 l 211 783 l 174 783 l 174 719 l 83 719 l 83 815 l 147 815 l 147 879 l 239 879 l 239 815 l 304 815 l 304 404 l 211 404 z "},"²":{"ha":529,"x_min":83,"x_max":433,"o":"m 147 382 l 147 444 l 83 444 l 83 597 l 147 597 l 147 661 l 340 661 l 340 788 l 175 788 l 175 724 l 83 724 l 83 813 l 147 813 l 147 875 l 368 875 l 368 813 l 433 813 l 433 638 l 368 638 l 368 572 l 175 572 l 175 469 l 340 469 l 340 533 l 433 533 l 433 444 l 368 444 l 368 382 l 147 382 z "},"³":{"ha":529,"x_min":83,"x_max":433,"o":"m 149 385 l 149 449 l 83 449 l 83 536 l 176 536 l 176 474 l 339 474 l 339 576 l 149 576 l 149 664 l 339 664 l 339 789 l 176 789 l 176 726 l 83 726 l 83 814 l 149 814 l 149 878 l 367 878 l 367 814 l 433 814 l 433 640 l 367 640 l 367 601 l 433 601 l 433 449 l 367 449 l 367 385 l 149 385 z "},"⁴":{"ha":518,"x_min":83,"x_max":433,"o":"m 340 403 l 340 529 l 83 529 l 83 689 l 147 689 l 147 753 l 211 753 l 211 815 l 278 815 l 278 879 l 433 879 l 433 403 l 340 403 m 196 626 l 340 626 l 340 783 l 306 783 l 306 719 l 250 719 l 244 676 l 196 676 l 196 626 z "},"⁵":{"ha":531,"x_min":83,"x_max":435,"o":"m 147 383 l 147 447 l 83 447 l 83 535 l 175 535 l 175 472 l 340 472 l 340 511 l 213 511 l 213 575 l 147 575 l 147 639 l 83 639 l 83 814 l 147 814 l 147 878 l 368 878 l 368 814 l 435 814 l 435 661 l 340 661 l 340 790 l 175 790 l 175 663 l 239 663 l 239 600 l 368 600 l 368 535 l 435 535 l 435 447 l 368 447 l 368 383 l 147 383 z "},"⁶":{"ha":531,"x_min":83,"x_max":435,"o":"m 147 383 l 147 447 l 83 447 l 83 814 l 147 814 l 147 878 l 368 878 l 368 814 l 435 814 l 435 726 l 340 726 l 340 790 l 175 790 l 175 663 l 368 663 l 368 600 l 435 600 l 435 447 l 368 447 l 368 383 l 147 383 m 175 472 l 340 472 l 340 575 l 175 575 l 175 472 z "},"⁷":{"ha":518,"x_min":83,"x_max":433,"o":"m 340 403 l 340 783 l 174 783 l 174 719 l 83 719 l 83 815 l 147 815 l 147 879 l 367 879 l 367 815 l 433 815 l 433 403 l 340 403 z "},"⁸":{"ha":531,"x_min":83,"x_max":435,"o":"m 147 383 l 147 447 l 83 447 l 83 600 l 147 600 l 147 639 l 83 639 l 83 814 l 147 814 l 147 878 l 368 878 l 368 814 l 435 814 l 435 639 l 368 639 l 368 600 l 435 600 l 435 447 l 368 447 l 368 383 l 147 383 m 175 472 l 340 472 l 340 575 l 175 575 l 175 472 m 175 663 l 340 663 l 340 790 l 175 790 l 175 663 z "},"⁹":{"ha":531,"x_min":83,"x_max":435,"o":"m 147 383 l 147 447 l 83 447 l 83 535 l 175 535 l 175 472 l 340 472 l 340 575 l 147 575 l 147 639 l 83 639 l 83 814 l 147 814 l 147 878 l 368 878 l 368 814 l 435 814 l 435 447 l 368 447 l 368 383 l 147 383 m 175 663 l 340 663 l 340 790 l 175 790 l 175 663 z "}," ":{"ha":278,"x_min":0,"x_max":0,"o":""}," ":{"ha":278,"x_min":0,"x_max":0,"o":""},".":{"ha":321,"x_min":83,"x_max":236,"o":"m 83 0 l 83 157 l 236 157 l 236 0 l 83 0 z "},",":{"ha":383,"x_min":83,"x_max":299,"o":"m 146 -122 l 146 -50 l 189 -42 l 189 0 l 83 0 l 83 157 l 236 157 l 236 33 l 299 33 l 299 -60 l 236 -60 l 236 -122 l 146 -122 z "},":":{"ha":321,"x_min":83,"x_max":236,"o":"m 83 111 l 83 268 l 236 268 l 236 111 l 83 111 m 83 353 l 83 508 l 236 508 l 236 353 l 83 353 z "},";":{"ha":383,"x_min":83,"x_max":299,"o":"m 146 -12 l 146 61 l 189 68 l 189 111 l 83 111 l 83 268 l 236 268 l 236 143 l 299 143 l 299 50 l 236 50 l 236 -12 l 146 -12 m 83 353 l 83 508 l 236 508 l 236 353 l 83 353 z "},"…":{"ha":900,"x_min":83,"x_max":815,"o":"m 372 0 l 372 157 l 526 157 l 526 0 l 372 0 m 83 0 l 83 157 l 236 157 l 236 0 l 83 0 m 663 0 l 663 157 l 815 157 l 815 0 l 663 0 z "},"!":{"ha":321,"x_min":83,"x_max":236,"o":"m 83 231 l 83 879 l 236 879 l 236 231 l 83 231 m 83 -17 l 83 139 l 236 139 l 236 -17 l 83 -17 z "},"¡":{"ha":321,"x_min":83,"x_max":236,"o":"m 83 -17 l 83 633 l 236 633 l 236 -17 l 83 -17 m 83 724 l 83 879 l 236 879 l 236 724 l 83 724 z "},"?":{"ha":822,"x_min":83,"x_max":738,"o":"m 333 231 l 333 508 l 583 508 l 583 722 l 236 722 l 236 478 l 83 478 l 83 756 l 208 756 l 208 879 l 611 879 l 611 756 l 738 756 l 738 478 l 611 478 l 611 354 l 486 354 l 486 231 l 333 231 m 333 -17 l 333 139 l 486 139 l 486 -17 l 333 -17 z "},"¿":{"ha":822,"x_min":83,"x_max":738,"o":"m 208 -17 l 208 108 l 83 108 l 83 388 l 208 388 l 208 508 l 333 508 l 333 633 l 486 633 l 486 354 l 236 354 l 236 140 l 583 140 l 583 388 l 738 388 l 738 108 l 611 108 l 611 -17 l 208 -17 m 333 724 l 333 879 l 486 879 l 486 724 l 333 724 z "},"·":{"ha":321,"x_min":83,"x_max":236,"o":"m 83 363 l 83 518 l 236 518 l 236 363 l 83 363 z "},"•":{"ha":371,"x_min":83,"x_max":286,"o":"m 83 339 l 83 543 l 286 543 l 286 339 l 83 339 z "},"*":{"ha":383,"x_min":83,"x_max":299,"o":"m 83 600 l 83 688 l 125 692 l 125 725 l 83 726 l 83 817 l 146 817 l 146 879 l 236 879 l 236 817 l 299 817 l 299 726 l 257 725 l 257 692 l 299 675 l 299 600 l 208 600 l 208 663 l 172 663 l 172 600 l 83 600 z "},"‼":{"ha":608,"x_min":83,"x_max":524,"o":"m 369 231 l 369 879 l 524 879 l 524 231 l 369 231 m 83 -17 l 83 139 l 236 139 l 236 -17 l 83 -17 m 369 -17 l 369 139 l 524 139 l 524 -17 l 369 -17 m 83 231 l 83 879 l 236 879 l 236 231 l 83 231 z "},"#":{"ha":947,"x_min":83,"x_max":863,"o":"m 208 -17 l 208 107 l 83 107 l 83 264 l 208 264 l 208 478 l 83 478 l 83 633 l 208 633 l 208 879 l 360 879 l 360 633 l 583 633 l 583 879 l 738 879 l 738 633 l 863 633 l 863 478 l 738 478 l 738 264 l 863 264 l 863 107 l 738 107 l 738 -17 l 583 -17 l 583 107 l 360 107 l 360 -17 l 208 -17 m 360 264 l 583 264 l 583 478 l 360 478 l 360 264 z "},"/":{"ha":743,"x_min":82,"x_max":660,"o":"m 82 -17 l 524 876 l 660 876 l 218 -17 l 82 -17 z "},"\\":{"ha":743,"x_min":82,"x_max":660,"o":"m 524 -17 l 82 876 l 218 876 l 660 -17 l 524 -17 z "},"-":{"ha":478,"x_min":35,"x_max":436,"o":"m 35 269 l 35 426 l 436 426 l 436 269 l 35 269 z "},"–":{"ha":569,"x_min":83,"x_max":485,"o":"m 83 329 l 83 486 l 485 486 l 485 329 l 83 329 z "},"—":{"ha":707,"x_min":83,"x_max":621,"o":"m 83 329 l 83 486 l 621 486 l 621 329 l 83 329 z "},"_":{"ha":624,"x_min":83,"x_max":540,"o":"m 83 0 l 83 157 l 540 157 l 540 0 l 83 0 z "},"(":{"ha":529,"x_min":83,"x_max":486,"o":"m 333 -218 l 333 33 l 208 33 l 208 278 l 83 278 l 83 558 l 208 558 l 208 806 l 333 806 l 333 1051 l 486 1051 l 486 774 l 360 774 l 360 525 l 236 525 l 236 311 l 360 311 l 360 61 l 486 61 l 486 -218 l 333 -218 z "},")":{"ha":529,"x_min":42,"x_max":444,"o":"m 42 -218 l 42 61 l 167 61 l 167 311 l 293 311 l 293 525 l 167 525 l 167 774 l 42 774 l 42 1051 l 194 1051 l 194 806 l 319 806 l 319 558 l 444 558 l 444 278 l 319 278 l 319 33 l 194 33 l 194 -218 l 42 -218 z "},"{":{"ha":654,"x_min":42,"x_max":568,"o":"m 293 -146 l 293 -22 l 168 -22 l 168 349 l 42 349 l 42 503 l 167 503 l 167 874 l 293 874 l 293 999 l 444 999 l 444 874 l 568 874 l 568 718 l 418 718 l 418 842 l 319 842 l 319 472 l 194 472 l 194 382 l 319 382 l 319 11 l 418 11 l 418 135 l 568 135 l 568 -22 l 444 -22 l 444 -146 l 293 -146 z "},"}":{"ha":654,"x_min":42,"x_max":568,"o":"m 165 -146 l 165 -22 l 42 -22 l 42 135 l 193 135 l 193 11 l 293 11 l 293 382 l 417 382 l 417 472 l 293 472 l 293 842 l 193 842 l 193 718 l 42 718 l 42 874 l 165 874 l 165 999 l 319 999 l 319 874 l 443 874 l 443 503 l 568 503 l 568 349 l 443 349 l 443 -22 l 319 -22 l 319 -146 l 165 -146 z "},"[":{"ha":529,"x_min":83,"x_max":486,"o":"m 208 -83 l 208 42 l 83 42 l 83 813 l 208 813 l 208 936 l 486 936 l 486 781 l 236 781 l 236 74 l 486 74 l 486 -83 l 208 -83 z "},"]":{"ha":529,"x_min":42,"x_max":444,"o":"m 42 -83 l 42 74 l 293 74 l 293 781 l 42 781 l 42 936 l 319 936 l 319 813 l 444 813 l 444 42 l 319 42 l 319 -83 l 42 -83 z "},"‚":{"ha":383,"x_min":83,"x_max":299,"o":"m 146 -122 l 146 -44 l 189 -42 l 189 0 l 83 0 l 83 157 l 236 157 l 236 33 l 299 33 l 299 -60 l 236 -60 l 236 -122 l 146 -122 z "},"„":{"ha":656,"x_min":83,"x_max":571,"o":"m 419 -122 l 419 -47 l 463 -42 l 463 0 l 356 0 l 356 157 l 510 157 l 510 33 l 571 33 l 571 -60 l 510 -60 l 510 -122 l 419 -122 m 146 -122 l 146 -47 l 189 -42 l 189 0 l 83 0 l 83 157 l 236 157 l 236 33 l 299 33 l 299 -60 l 236 -60 l 236 -122 l 146 -122 z "},"“":{"ha":656,"x_min":83,"x_max":571,"o":"m 418 600 l 418 724 l 356 724 l 356 817 l 418 817 l 418 879 l 508 879 l 508 806 l 467 799 l 467 757 l 571 757 l 571 600 l 418 600 m 144 600 l 144 724 l 83 724 l 83 817 l 144 817 l 144 879 l 235 879 l 235 806 l 192 799 l 192 757 l 299 757 l 299 600 l 144 600 z "},"”":{"ha":656,"x_min":83,"x_max":571,"o":"m 419 600 l 419 674 l 463 682 l 463 722 l 356 722 l 356 879 l 510 879 l 510 756 l 571 756 l 571 663 l 510 663 l 510 600 l 419 600 m 146 600 l 146 675 l 189 682 l 189 722 l 83 722 l 83 879 l 236 879 l 236 756 l 299 756 l 299 663 l 236 663 l 236 600 l 146 600 z "},"‘":{"ha":383,"x_min":83,"x_max":299,"o":"m 144 600 l 144 724 l 83 724 l 83 817 l 144 817 l 144 879 l 235 879 l 235 807 l 192 799 l 192 757 l 299 757 l 299 600 l 144 600 z "},"’":{"ha":383,"x_min":83,"x_max":299,"o":"m 146 600 l 146 672 l 189 682 l 189 722 l 83 722 l 83 879 l 236 879 l 236 756 l 299 756 l 299 663 l 236 663 l 236 600 l 146 600 z "},"«":{"ha":1217,"x_min":42,"x_max":1133,"o":"m 979 -146 l 979 -22 l 856 -22 l 856 103 l 731 103 l 731 225 l 604 225 l 604 349 l 479 349 l 479 503 l 604 503 l 604 628 l 731 628 l 731 751 l 856 751 l 856 874 l 979 874 l 979 999 l 1133 999 l 1133 842 l 1007 842 l 1007 718 l 882 718 l 882 594 l 757 594 l 757 472 l 632 472 l 632 382 l 757 382 l 757 258 l 882 258 l 882 135 l 1007 135 l 1007 11 l 1133 11 l 1133 -146 l 979 -146 m 543 -146 l 543 -22 l 418 -22 l 418 103 l 293 103 l 293 225 l 167 225 l 167 349 l 42 349 l 42 503 l 167 503 l 167 628 l 293 628 l 293 751 l 418 751 l 418 874 l 543 874 l 543 999 l 696 999 l 696 842 l 568 842 l 568 718 l 444 718 l 444 594 l 319 594 l 319 472 l 194 472 l 194 382 l 319 382 l 319 258 l 444 258 l 444 135 l 568 135 l 568 11 l 696 11 l 696 -146 l 543 -146 z "},"»":{"ha":1189,"x_min":14,"x_max":1106,"o":"m 451 -146 l 451 11 l 576 11 l 576 135 l 701 135 l 701 258 l 828 258 l 828 382 l 953 382 l 953 472 l 828 472 l 828 594 l 701 594 l 701 718 l 576 718 l 576 842 l 451 842 l 451 999 l 604 999 l 604 874 l 729 874 l 729 751 l 854 751 l 854 628 l 979 628 l 979 503 l 1106 503 l 1106 349 l 979 349 l 979 225 l 854 225 l 854 103 l 729 103 l 729 -22 l 604 -22 l 604 -146 l 451 -146 m 14 -146 l 14 11 l 139 11 l 139 135 l 264 135 l 264 258 l 390 258 l 390 382 l 515 382 l 515 472 l 390 472 l 390 594 l 264 594 l 264 718 l 139 718 l 139 842 l 14 842 l 14 999 l 167 999 l 167 874 l 292 874 l 292 751 l 417 751 l 417 628 l 542 628 l 542 503 l 667 503 l 667 349 l 542 349 l 542 225 l 417 225 l 417 103 l 292 103 l 292 -22 l 167 -22 l 167 -146 l 14 -146 z "},"‹":{"ha":781,"x_min":83,"x_max":738,"o":"m 583 -146 l 583 -22 l 460 -22 l 460 103 l 333 103 l 333 225 l 208 225 l 208 349 l 83 349 l 83 503 l 208 503 l 208 628 l 333 628 l 333 751 l 460 751 l 460 874 l 583 874 l 583 999 l 738 999 l 738 842 l 611 842 l 611 718 l 486 718 l 486 594 l 360 594 l 360 472 l 236 472 l 236 382 l 360 382 l 360 258 l 486 258 l 486 135 l 611 135 l 611 11 l 738 11 l 738 -146 l 583 -146 z "},"›":{"ha":781,"x_min":42,"x_max":696,"o":"m 42 -146 l 42 11 l 167 11 l 167 135 l 293 135 l 293 258 l 418 258 l 418 382 l 543 382 l 543 472 l 418 472 l 418 594 l 293 594 l 293 718 l 167 718 l 167 842 l 42 842 l 42 999 l 194 999 l 194 874 l 319 874 l 319 751 l 444 751 l 444 628 l 568 628 l 568 503 l 696 503 l 696 349 l 568 349 l 568 225 l 444 225 l 444 103 l 319 103 l 319 -22 l 194 -22 l 194 -146 l 42 -146 z "},"\"":{"ha":656,"x_min":83,"x_max":571,"o":"m 419 600 l 419 674 l 463 682 l 463 722 l 356 722 l 356 879 l 510 879 l 510 756 l 571 756 l 571 663 l 510 663 l 510 600 l 419 600 m 146 600 l 146 672 l 189 682 l 189 722 l 83 722 l 83 879 l 236 879 l 236 756 l 299 756 l 299 663 l 236 663 l 236 600 l 146 600 z "},"'":{"ha":383,"x_min":83,"x_max":299,"o":"m 146 600 l 146 664 l 189 682 l 189 722 l 83 722 l 83 879 l 236 879 l 236 756 l 299 756 l 299 663 l 236 663 l 236 600 l 146 600 z "},"ƒ":{"ha":822,"x_min":-44,"x_max":736,"o":"m -44 -140 l -44 17 l 82 17 l 82 756 l 207 756 l 207 879 l 610 879 l 610 756 l 736 756 l 736 600 l 582 600 l 582 722 l 235 722 l 235 508 l 485 508 l 485 354 l 235 354 l 235 -140 l -44 -140 z "},"@":{"ha":854,"x_min":93,"x_max":735,"o":"m 210 94 l 210 157 l 146 157 l 146 210 l 93 210 l 93 546 l 146 546 l 146 606 l 210 606 l 210 660 l 550 660 l 550 606 l 604 606 l 604 546 l 667 546 l 667 483 l 735 483 l 735 333 l 672 333 l 672 272 l 617 272 l 617 219 l 528 219 l 528 263 l 489 263 l 489 219 l 293 219 l 293 263 l 244 263 l 244 440 l 293 440 l 293 486 l 499 486 l 499 440 l 546 440 l 546 286 l 590 286 l 590 358 l 653 358 l 653 458 l 594 458 l 594 521 l 532 521 l 532 583 l 224 583 l 224 521 l 174 521 l 174 225 l 236 225 l 236 164 l 489 164 l 489 94 l 210 94 m 321 286 l 471 286 l 471 417 l 321 417 l 321 286 z "},"&":{"ha":947,"x_min":83,"x_max":863,"o":"m 208 -17 l 208 107 l 83 107 l 83 264 l 208 264 l 208 388 l 333 388 l 333 478 l 208 478 l 208 600 l 83 600 l 83 756 l 208 756 l 208 879 l 611 879 l 611 756 l 738 756 l 738 600 l 611 600 l 611 478 l 486 478 l 486 388 l 611 388 l 611 264 l 738 264 l 738 139 l 863 139 l 863 -17 l 710 -17 l 710 107 l 611 107 l 611 -17 l 208 -17 m 236 139 l 583 139 l 583 231 l 460 231 l 460 354 l 360 354 l 360 231 l 236 231 l 236 139 m 360 508 l 460 508 l 460 633 l 583 633 l 583 722 l 236 722 l 236 633 l 360 633 l 360 508 z "},"¶":{"ha":1069,"x_min":83,"x_max":985,"o":"m 583 -262 l 583 233 l 208 233 l 208 356 l 83 356 l 83 756 l 208 756 l 208 879 l 985 879 l 985 722 l 915 722 l 915 -262 l 831 -262 l 831 722 l 668 722 l 668 -262 l 583 -262 z "},"§":{"ha":822,"x_min":83,"x_max":738,"o":"m 208 -17 l 208 107 l 83 107 l 83 388 l 208 388 l 208 478 l 83 478 l 83 756 l 208 756 l 208 879 l 611 879 l 611 756 l 738 756 l 738 600 l 583 600 l 583 722 l 236 722 l 236 508 l 611 508 l 611 388 l 738 388 l 738 231 l 236 231 l 236 139 l 738 139 l 738 -17 l 208 -17 z "},"©":{"ha":590,"x_min":97,"x_max":482,"o":"m 160 500 l 160 550 l 97 550 l 97 803 l 160 803 l 160 851 l 418 851 l 418 803 l 482 803 l 482 550 l 418 550 l 418 500 l 160 500 m 174 574 l 404 574 l 404 778 l 174 778 l 174 574 m 243 607 l 243 625 l 222 625 l 222 721 l 243 721 l 243 743 l 342 743 l 342 721 l 361 721 l 361 679 l 319 679 l 319 697 l 265 697 l 265 650 l 319 650 l 319 671 l 361 671 l 361 625 l 342 625 l 342 607 l 243 607 z "},"®":{"ha":590,"x_min":97,"x_max":493,"o":"m 160 494 l 160 544 l 97 544 l 97 804 l 160 804 l 160 853 l 429 853 l 429 804 l 493 804 l 493 544 l 429 544 l 429 494 l 160 494 m 186 579 l 403 579 l 403 769 l 186 769 l 186 579 m 246 619 l 246 689 l 263 689 l 263 714 l 338 714 l 338 693 l 354 693 l 354 665 l 322 665 l 322 682 l 283 682 l 283 619 l 246 619 z "},"™":{"ha":1101,"x_min":83,"x_max":1017,"o":"m 542 406 l 542 815 l 607 815 l 607 879 l 697 879 l 697 815 l 761 815 l 761 692 l 797 692 l 797 815 l 861 815 l 861 879 l 954 879 l 954 815 l 1017 815 l 1017 406 l 928 406 l 928 783 l 889 783 l 889 658 l 825 658 l 825 469 l 733 469 l 733 658 l 669 658 l 669 783 l 633 783 l 633 406 l 542 406 m 211 406 l 211 783 l 174 783 l 174 719 l 83 719 l 83 815 l 147 815 l 147 879 l 367 879 l 367 815 l 431 815 l 431 719 l 340 719 l 340 783 l 303 783 l 303 406 l 211 406 z "},"°":{"ha":446,"x_min":83,"x_max":361,"o":"m 133 535 l 133 585 l 83 585 l 83 765 l 133 765 l 133 815 l 313 815 l 313 765 l 361 765 l 361 585 l 313 585 l 313 535 l 133 535 m 161 617 l 285 617 l 285 732 l 161 732 l 161 617 z "},"|":{"ha":321,"x_min":83,"x_max":236,"o":"m 83 -17 l 83 879 l 236 879 l 236 -17 l 83 -17 z "},"†":{"ha":569,"x_min":83,"x_max":485,"o":"m 207 -17 l 207 550 l 83 550 l 83 707 l 207 707 l 207 879 l 360 879 l 360 707 l 485 707 l 485 550 l 360 550 l 360 -17 l 207 -17 z "},"№":{"ha":1611,"x_min":83,"x_max":1526,"o":"m 83 -17 l 83 879 l 236 879 l 236 756 l 360 756 l 360 633 l 486 633 l 486 264 l 583 264 l 583 879 l 738 879 l 738 -17 l 583 -17 l 583 107 l 460 107 l 460 231 l 333 231 l 333 600 l 236 600 l 236 -17 l 83 -17 m 971 -18 l 971 139 l 1428 139 l 1428 -18 l 971 -18 m 999 228 l 999 350 l 874 350 l 874 753 l 999 753 l 999 876 l 1401 876 l 1401 753 l 1526 753 l 1526 350 l 1401 350 l 1401 228 l 999 228 m 1026 383 l 1375 383 l 1375 719 l 1026 719 l 1026 383 z "},"¢":{"ha":822,"x_min":83,"x_max":738,"o":"m 329 0 l 329 133 l 208 133 l 208 257 l 83 257 l 83 658 l 208 658 l 208 783 l 329 783 l 329 918 l 492 918 l 492 783 l 611 783 l 611 658 l 738 658 l 738 503 l 583 503 l 583 626 l 236 626 l 236 289 l 583 289 l 583 413 l 738 413 l 738 257 l 611 257 l 611 133 l 492 133 l 492 0 l 329 0 z "},"₡":{"ha":822,"x_min":83,"x_max":738,"o":"m 222 -97 l 235 -17 l 208 -17 l 208 107 l 83 107 l 83 756 l 208 756 l 208 879 l 368 879 l 381 960 l 467 960 l 454 879 l 492 879 l 504 960 l 589 960 l 576 879 l 611 879 l 611 756 l 738 756 l 738 478 l 583 478 l 583 722 l 553 722 l 467 139 l 583 139 l 583 388 l 738 388 l 738 107 l 611 107 l 611 -17 l 443 -17 l 431 -97 l 344 -97 l 357 -17 l 321 -17 l 308 -97 l 222 -97 m 236 146 l 260 146 l 343 722 l 236 722 l 236 146 m 344 139 l 381 139 l 467 722 l 429 722 l 344 139 z "},"¤":{"ha":688,"x_min":83,"x_max":604,"o":"m 233 256 l 233 318 l 169 318 l 169 533 l 233 533 l 233 596 l 453 596 l 453 533 l 517 533 l 517 318 l 453 318 l 453 256 l 233 256 m 83 192 l 83 281 l 175 281 l 175 192 l 83 192 m 83 572 l 83 660 l 175 660 l 175 572 l 83 572 m 261 343 l 425 343 l 425 508 l 261 508 l 261 343 m 513 192 l 513 281 l 604 281 l 604 192 l 513 192 m 513 572 l 513 660 l 604 660 l 604 572 l 513 572 z "},"$":{"ha":822,"x_min":83,"x_max":738,"o":"m 346 -140 l 346 -17 l 208 -17 l 208 107 l 83 107 l 83 264 l 236 264 l 236 139 l 583 139 l 583 354 l 208 354 l 208 478 l 83 478 l 83 756 l 208 756 l 208 879 l 346 879 l 346 1004 l 499 1004 l 499 879 l 611 879 l 611 756 l 738 756 l 738 600 l 583 600 l 583 722 l 236 722 l 236 508 l 611 508 l 611 388 l 738 388 l 738 107 l 611 107 l 611 -17 l 499 -17 l 499 -140 l 346 -140 z "},"€":{"ha":822,"x_min":83,"x_max":738,"o":"m 208 -17 l 208 107 l 83 107 l 83 756 l 208 756 l 208 879 l 611 879 l 611 756 l 738 756 l 738 478 l 583 478 l 583 722 l 236 722 l 236 603 l 488 603 l 488 446 l 236 446 l 236 399 l 488 399 l 488 243 l 236 243 l 236 139 l 583 139 l 583 388 l 738 388 l 738 107 l 611 107 l 611 -17 l 208 -17 z "},"₣":{"ha":819,"x_min":31,"x_max":736,"o":"m 31 -17 l 31 140 l 83 140 l 83 879 l 610 879 l 610 756 l 736 756 l 736 600 l 583 600 l 583 722 l 236 722 l 236 508 l 486 508 l 486 354 l 236 354 l 236 140 l 296 140 l 296 -17 l 31 -17 z "},"₤":{"ha":946,"x_min":83,"x_max":861,"o":"m 83 -17 l 83 139 l 208 139 l 208 756 l 333 756 l 333 879 l 738 879 l 738 756 l 861 756 l 861 600 l 710 600 l 710 722 l 360 722 l 360 576 l 611 576 l 611 421 l 360 421 l 360 361 l 611 361 l 611 206 l 360 206 l 360 139 l 710 139 l 710 264 l 861 264 l 861 107 l 738 107 l 738 -17 l 83 -17 z "},"₧":{"ha":1660,"x_min":83,"x_max":1575,"o":"m 83 -17 l 83 756 l 208 756 l 208 879 l 611 879 l 611 756 l 738 756 l 738 354 l 611 354 l 611 231 l 236 231 l 236 -17 l 83 -17 m 236 388 l 583 388 l 583 722 l 236 722 l 236 388 m 915 -17 l 915 44 l 853 44 l 853 225 l 792 225 l 792 319 l 853 319 l 853 439 l 942 439 l 942 319 l 1126 319 l 1126 225 l 942 225 l 942 78 l 1099 78 l 1099 138 l 1189 138 l 1189 44 l 1126 44 l 1126 -17 l 915 -17 m 1240 -17 l 1240 78 l 1426 78 l 1426 125 l 1282 125 l 1282 171 l 1240 176 l 1240 258 l 1303 258 l 1303 319 l 1575 319 l 1575 225 l 1390 225 l 1390 179 l 1533 179 l 1533 133 l 1575 128 l 1575 44 l 1513 44 l 1513 -17 l 1240 -17 z "},"£":{"ha":946,"x_min":83,"x_max":861,"o":"m 83 -17 l 83 139 l 208 139 l 208 756 l 333 756 l 333 879 l 738 879 l 738 756 l 861 756 l 861 600 l 710 600 l 710 722 l 360 722 l 360 508 l 611 508 l 611 354 l 360 354 l 360 139 l 710 139 l 710 264 l 861 264 l 861 107 l 738 107 l 738 -17 l 83 -17 z "},"¥":{"ha":832,"x_min":83,"x_max":740,"o":"m 333 -17 l 333 92 l 210 92 l 210 222 l 333 222 l 333 278 l 210 278 l 210 408 l 333 408 l 333 481 l 210 481 l 210 604 l 83 604 l 83 878 l 236 878 l 236 629 l 361 629 l 361 504 l 461 504 l 461 629 l 585 629 l 585 878 l 740 878 l 740 604 l 613 604 l 613 481 l 489 481 l 489 408 l 613 408 l 613 278 l 489 278 l 489 222 l 613 222 l 613 92 l 489 92 l 489 -17 l 333 -17 z "},"∕":{"ha":743,"x_min":83,"x_max":658,"o":"m 83 -17 l 83 232 l 193 232 l 193 447 l 303 447 l 303 556 l 411 556 l 411 772 l 522 772 l 522 879 l 658 879 l 658 632 l 550 632 l 550 522 l 439 522 l 439 307 l 329 307 l 329 199 l 219 199 l 219 -17 l 83 -17 z "},"+":{"ha":833,"x_min":90,"x_max":743,"o":"m 339 118 l 339 350 l 90 350 l 90 506 l 339 506 l 339 768 l 493 768 l 493 506 l 743 506 l 743 350 l 493 350 l 493 118 l 339 118 z "},"−":{"ha":833,"x_min":147,"x_max":685,"o":"m 147 335 l 147 492 l 685 492 l 685 335 l 147 335 z "},"×":{"ha":833,"x_min":124,"x_max":708,"o":"m 243 150 l 133 260 l 311 432 l 124 617 l 233 725 l 421 540 l 599 715 l 708 607 l 532 432 l 697 269 l 588 161 l 421 324 l 243 150 z "},"÷":{"ha":833,"x_min":147,"x_max":685,"o":"m 147 335 l 147 492 l 685 492 l 685 335 l 147 335 m 340 107 l 340 264 l 493 264 l 493 107 l 340 107 m 340 569 l 340 725 l 493 725 l 493 569 l 340 569 z "},"=":{"ha":833,"x_min":147,"x_max":686,"o":"m 147 406 l 147 563 l 686 563 l 686 406 l 147 406 m 147 168 l 147 324 l 686 324 l 686 168 l 147 168 z "},"≠":{"ha":833,"x_min":147,"x_max":686,"o":"m 226 14 l 433 721 l 586 721 l 381 14 l 226 14 m 147 168 l 147 324 l 686 324 l 686 168 l 147 168 m 147 406 l 147 563 l 686 563 l 686 406 l 147 406 z "},">":{"ha":833,"x_min":90,"x_max":743,"o":"m 90 -146 l 90 11 l 215 11 l 215 135 l 340 135 l 340 258 l 465 258 l 465 382 l 590 382 l 590 472 l 465 472 l 465 594 l 340 594 l 340 718 l 215 718 l 215 842 l 90 842 l 90 999 l 242 999 l 242 874 l 367 874 l 367 751 l 493 751 l 493 628 l 617 628 l 617 503 l 743 503 l 743 349 l 617 349 l 617 225 l 493 225 l 493 103 l 367 103 l 367 -22 l 242 -22 l 242 -146 l 90 -146 z "},"<":{"ha":833,"x_min":90,"x_max":743,"o":"m 589 -146 l 589 -22 l 465 -22 l 465 103 l 339 103 l 339 225 l 215 225 l 215 349 l 90 349 l 90 503 l 215 503 l 215 628 l 339 628 l 339 751 l 465 751 l 465 874 l 589 874 l 589 999 l 743 999 l 743 842 l 617 842 l 617 718 l 493 718 l 493 594 l 367 594 l 367 472 l 242 472 l 242 382 l 367 382 l 367 258 l 493 258 l 493 135 l 617 135 l 617 11 l 743 11 l 743 -146 l 589 -146 z "},"≥":{"ha":833,"x_min":171,"x_max":663,"o":"m 172 144 l 172 269 l 265 269 l 265 360 l 358 360 l 358 450 l 451 450 l 451 542 l 542 542 l 542 600 l 451 600 l 451 692 l 358 692 l 358 783 l 265 783 l 265 874 l 172 874 l 172 999 l 293 999 l 293 907 l 385 907 l 385 815 l 478 815 l 478 724 l 569 724 l 569 633 l 663 633 l 663 508 l 569 508 l 569 417 l 478 417 l 478 328 l 385 328 l 385 236 l 293 236 l 293 144 l 172 144 m 171 -82 l 171 25 l 663 25 l 663 -82 l 171 -82 z "},"≤":{"ha":833,"x_min":171,"x_max":661,"o":"m 539 144 l 539 236 l 447 236 l 447 328 l 356 328 l 356 417 l 263 417 l 263 508 l 171 508 l 171 633 l 263 633 l 263 724 l 356 724 l 356 815 l 447 815 l 447 907 l 539 907 l 539 999 l 660 999 l 660 874 l 567 874 l 567 783 l 475 783 l 475 692 l 382 692 l 382 600 l 290 600 l 290 542 l 382 542 l 382 450 l 475 450 l 475 360 l 567 360 l 567 269 l 660 269 l 660 144 l 539 144 m 171 -82 l 171 25 l 661 25 l 661 -82 l 171 -82 z "},"±":{"ha":833,"x_min":140,"x_max":694,"o":"m 338 215 l 338 378 l 140 378 l 140 519 l 338 519 l 338 682 l 496 682 l 496 519 l 694 519 l 694 378 l 496 378 l 496 215 l 338 215 m 140 -10 l 140 138 l 694 138 l 694 -10 l 140 -10 z "},"≈":{"ha":833,"x_min":240,"x_max":593,"o":"m 240 404 l 240 564 l 461 564 l 461 501 l 501 501 l 501 564 l 593 564 l 593 404 l 371 404 l 371 469 l 331 469 l 331 404 l 240 404 m 240 164 l 240 324 l 461 324 l 461 261 l 501 261 l 501 324 l 593 324 l 593 164 l 371 164 l 371 229 l 331 229 l 331 164 l 240 164 z "},"~":{"ha":833,"x_min":240,"x_max":593,"o":"m 240 268 l 240 428 l 461 428 l 461 365 l 501 365 l 501 428 l 593 428 l 593 268 l 371 268 l 371 333 l 331 333 l 331 268 l 240 268 z "},"¬":{"ha":833,"x_min":147,"x_max":685,"o":"m 533 281 l 533 406 l 147 406 l 147 563 l 685 563 l 685 281 l 533 281 z "},"^":{"ha":383,"x_min":83,"x_max":299,"o":"m 83 722 l 83 817 l 146 817 l 146 879 l 236 879 l 236 817 l 299 817 l 299 722 l 208 722 l 208 785 l 172 785 l 172 722 l 83 722 z "},"∞":{"ha":1321,"x_min":83,"x_max":1236,"o":"m 208 -17 l 208 107 l 83 107 l 83 508 l 208 508 l 208 633 l 611 633 l 611 508 l 710 508 l 710 633 l 1111 633 l 1111 508 l 1236 508 l 1236 107 l 1111 107 l 1111 -17 l 710 -17 l 710 107 l 611 107 l 611 -17 l 208 -17 m 236 139 l 583 139 l 583 478 l 236 478 l 236 139 m 738 139 l 1085 139 l 1085 478 l 738 478 l 738 139 z "},"Ω":{"ha":819,"x_min":0,"x_max":817,"o":"m 0 -18 l 0 139 l 83 139 l 83 756 l 208 756 l 208 878 l 610 878 l 610 756 l 736 756 l 736 139 l 817 139 l 817 -18 l 582 -18 l 582 722 l 235 722 l 235 -18 l 0 -18 z "},"∆":{"ha":822,"x_min":83,"x_max":738,"o":"m 83 -17 l 83 633 l 208 633 l 208 756 l 333 756 l 333 879 l 486 879 l 486 756 l 611 756 l 611 633 l 738 633 l 738 -17 l 83 -17 m 236 140 l 583 140 l 583 600 l 460 600 l 460 722 l 360 722 l 360 600 l 236 600 l 236 140 z "},"∏":{"ha":822,"x_min":83,"x_max":738,"o":"m 83 -17 l 83 879 l 738 879 l 738 -17 l 585 -17 l 585 722 l 236 722 l 236 -17 l 83 -17 z "},"∑":{"ha":1071,"x_min":82,"x_max":985,"o":"m 207 -17 l 207 108 l 82 108 l 82 264 l 207 264 l 207 388 l 458 388 l 458 478 l 207 478 l 207 600 l 82 600 l 82 757 l 207 757 l 207 879 l 985 879 l 985 724 l 235 724 l 235 633 l 485 633 l 485 508 l 861 508 l 861 354 l 485 354 l 485 231 l 235 231 l 235 140 l 985 140 l 985 -17 l 207 -17 z "},"µ":{"ha":822,"x_min":83,"x_max":738,"o":"m 83 -256 l 83 633 l 236 633 l 236 139 l 583 139 l 583 633 l 738 633 l 738 107 l 611 107 l 611 -17 l 236 -17 l 236 -256 l 83 -256 z "},"%":{"ha":1208,"x_min":83,"x_max":1124,"o":"m 151 -17 l 151 139 l 278 139 l 278 264 l 401 264 l 401 388 l 528 388 l 528 508 l 651 508 l 651 633 l 778 633 l 778 756 l 904 756 l 904 879 l 1056 879 l 1056 722 l 931 722 l 931 600 l 804 600 l 804 478 l 679 478 l 679 354 l 556 354 l 556 231 l 429 231 l 429 107 l 306 107 l 306 -17 l 151 -17 m 208 478 l 208 600 l 83 600 l 83 756 l 208 756 l 208 879 l 360 879 l 360 756 l 486 756 l 486 600 l 360 600 l 360 478 l 208 478 m 846 -17 l 846 107 l 721 107 l 721 264 l 846 264 l 846 388 l 999 388 l 999 264 l 1124 264 l 1124 107 l 999 107 l 999 -17 l 846 -17 z "},"‰":{"ha":899,"x_min":42,"x_max":814,"o":"m 146 472 l 146 535 l 83 535 l 83 883 l 146 883 l 146 946 l 367 946 l 367 883 l 431 883 l 431 535 l 367 535 l 367 472 l 146 472 m 146 -85 l 146 -22 l 83 -22 l 83 181 l 146 181 l 146 243 l 367 243 l 367 181 l 431 181 l 431 -22 l 367 -22 l 367 -85 l 146 -85 m 174 11 l 339 11 l 339 147 l 174 147 l 174 11 m 531 -85 l 531 -22 l 465 -22 l 465 181 l 531 181 l 531 243 l 750 243 l 750 181 l 814 181 l 814 -22 l 750 -22 l 750 -85 l 531 -85 m 557 11 l 724 11 l 724 147 l 557 147 l 557 11 m 42 338 l 42 418 l 750 418 l 750 338 l 42 338 m 174 568 l 339 568 l 339 851 l 174 851 l 174 568 z "},"̈":{"ha":0,"x_min":-14,"x_max":431,"o":"m -14 718 l -14 875 l 139 875 l 139 718 l -14 718 m 279 718 l 279 875 l 431 875 l 431 718 l 279 718 z "},"̇":{"ha":0,"x_min":132,"x_max":285,"o":"m 132 722 l 132 879 l 285 879 l 285 722 l 132 722 z "},"̀":{"ha":0,"x_min":83,"x_max":297,"o":"m 208 721 l 208 782 l 146 782 l 146 844 l 83 844 l 83 939 l 172 939 l 172 875 l 236 875 l 236 814 l 297 814 l 297 721 l 208 721 z "},"́":{"ha":0,"x_min":101,"x_max":315,"o":"m 101 721 l 101 814 l 164 814 l 164 875 l 226 875 l 226 939 l 315 939 l 315 844 l 254 844 l 254 782 l 190 782 l 190 721 l 101 721 z "},"̋":{"ha":0,"x_min":3,"x_max":414,"o":"m 325 721 l 325 782 l 261 782 l 261 844 l 200 844 l 200 939 l 289 939 l 289 875 l 351 875 l 351 814 l 414 814 l 414 721 l 325 721 m 128 721 l 128 782 l 65 782 l 65 844 l 3 844 l 3 939 l 92 939 l 92 875 l 156 875 l 156 814 l 218 814 l 218 721 l 128 721 z "},"̂":{"ha":0,"x_min":101,"x_max":315,"o":"m 101 721 l 101 815 l 163 815 l 163 878 l 253 878 l 253 815 l 315 815 l 315 721 l 226 721 l 226 783 l 190 783 l 190 721 l 101 721 z "},"̌":{"ha":0,"x_min":101,"x_max":315,"o":"m 163 721 l 163 785 l 101 785 l 101 878 l 190 878 l 190 815 l 226 815 l 226 878 l 315 878 l 315 785 l 253 785 l 253 721 l 163 721 z "},"̆":{"ha":0,"x_min":35,"x_max":383,"o":"m 35 721 l 35 878 l 124 878 l 124 815 l 296 815 l 296 878 l 383 878 l 383 721 l 35 721 z "},"̊":{"ha":0,"x_min":133,"x_max":285,"o":"m 133 722 l 133 879 l 285 879 l 285 722 l 133 722 m 179 768 l 239 768 l 239 833 l 179 833 l 179 768 z "},"̃":{"ha":0,"x_min":32,"x_max":385,"o":"m 32 721 l 32 881 l 254 881 l 254 818 l 292 818 l 292 881 l 385 881 l 385 721 l 161 721 l 161 786 l 124 786 l 124 721 l 32 721 z "},"̄":{"ha":0,"x_min":7,"x_max":410,"o":"m 7 721 l 7 858 l 410 858 l 410 721 l 7 721 z "},"̒":{"ha":0,"x_min":101,"x_max":315,"o":"m 163 721 l 163 846 l 101 846 l 101 938 l 163 938 l 163 1001 l 253 1001 l 253 919 l 211 919 l 211 878 l 315 878 l 315 721 l 163 721 z "},"̦":{"ha":0,"x_min":122,"x_max":336,"o":"m 185 -349 l 185 -267 l 226 -267 l 226 -226 l 122 -226 l 122 -69 l 275 -69 l 275 -193 l 336 -193 l 336 -286 l 275 -286 l 275 -349 l 185 -349 z "},"̧":{"ha":0,"x_min":38,"x_max":378,"o":"m 101 -272 l 101 -211 l 38 -211 l 38 -117 l 128 -117 l 128 -178 l 268 -178 l 268 -140 l 225 -137 l 225 -89 l 163 -89 l 163 44 l 272 44 l 272 -75 l 336 -75 l 336 -135 l 378 -143 l 378 -211 l 315 -211 l 315 -272 l 101 -272 z "},"̨":{"ha":0,"x_min":38,"x_max":378,"o":"m 101 -272 l 101 -211 l 38 -211 l 38 -117 l 101 -117 l 101 -65 l 143 -65 l 143 53 l 253 53 l 253 -89 l 190 -89 l 190 -135 l 149 -137 l 149 -178 l 289 -178 l 289 -117 l 378 -117 l 378 -211 l 315 -211 l 315 -272 l 101 -272 z "},"¨":{"ha":417,"x_min":-15,"x_max":431,"o":"m -15 681 l -15 838 l 139 838 l 139 681 l -15 681 m 278 681 l 278 838 l 431 838 l 431 681 l 278 681 z "},"˙":{"ha":417,"x_min":144,"x_max":299,"o":"m 144 738 l 144 894 l 299 894 l 299 738 l 144 738 z "},"`":{"ha":381,"x_min":83,"x_max":297,"o":"m 208 721 l 208 782 l 146 782 l 146 844 l 83 844 l 83 939 l 172 939 l 172 875 l 236 875 l 236 814 l 297 814 l 297 721 l 208 721 z "},"´":{"ha":417,"x_min":83,"x_max":297,"o":"m 83 736 l 83 829 l 146 829 l 146 890 l 208 890 l 208 953 l 297 953 l 297 858 l 236 858 l 236 796 l 172 796 l 172 736 l 83 736 z "},"˝":{"ha":465,"x_min":17,"x_max":426,"o":"m 338 733 l 338 794 l 275 794 l 275 857 l 213 857 l 213 951 l 301 951 l 301 888 l 365 888 l 365 826 l 426 826 l 426 733 l 338 733 m 142 733 l 142 794 l 78 794 l 78 857 l 17 857 l 17 951 l 106 951 l 106 888 l 168 888 l 168 826 l 231 826 l 231 733 l 142 733 z "},"ˆ":{"ha":417,"x_min":101,"x_max":315,"o":"m 101 721 l 101 815 l 163 815 l 163 878 l 253 878 l 253 815 l 315 815 l 315 721 l 226 721 l 226 783 l 190 783 l 190 721 l 101 721 z "},"ˇ":{"ha":417,"x_min":101,"x_max":315,"o":"m 163 721 l 163 785 l 101 785 l 101 878 l 190 878 l 190 815 l 226 815 l 226 878 l 315 878 l 315 785 l 253 785 l 253 721 l 163 721 z "},"˘":{"ha":417,"x_min":31,"x_max":378,"o":"m 31 736 l 31 893 l 119 893 l 119 831 l 290 831 l 290 893 l 378 893 l 378 736 l 31 736 z "},"˚":{"ha":417,"x_min":126,"x_max":278,"o":"m 126 738 l 126 894 l 278 894 l 278 738 l 126 738 m 172 783 l 232 783 l 232 849 l 172 849 l 172 783 z "},"˜":{"ha":417,"x_min":32,"x_max":385,"o":"m 32 721 l 32 881 l 254 881 l 254 818 l 292 818 l 292 881 l 385 881 l 385 721 l 161 721 l 161 786 l 124 786 l 124 721 l 32 721 z "},"¯":{"ha":417,"x_min":11,"x_max":413,"o":"m 11 771 l 11 928 l 413 928 l 413 771 l 11 771 z "},"¸":{"ha":417,"x_min":51,"x_max":390,"o":"m 114 -272 l 114 -211 l 51 -211 l 51 -117 l 142 -117 l 142 -178 l 281 -178 l 281 -142 l 238 -137 l 238 -89 l 176 -89 l 176 44 l 286 44 l 286 -75 l 349 -75 l 349 -135 l 390 -143 l 390 -211 l 328 -211 l 328 -272 l 114 -272 z "},"˛":{"ha":417,"x_min":39,"x_max":379,"o":"m 103 -272 l 103 -211 l 39 -211 l 39 -117 l 103 -117 l 103 -69 l 144 -65 l 144 53 l 254 53 l 254 -89 l 192 -89 l 192 -133 l 150 -137 l 150 -178 l 290 -178 l 290 -117 l 379 -117 l 379 -211 l 317 -211 l 317 -272 l 103 -272 z "}}}
